<svg width="20" height="18" viewBox="0 0 20 18" fill="none" xmlns="http://www.w3.org/2000/svg">
<path d="M4.28053 18C3.49049 18 2.85666 17.3297 2.85666 16.4908C2.85666 15.6752 3.50388 15.0003 4.28053 15.0003C5.07951 15.0003 5.71333 15.6706 5.71333 16.5002C5.71333 17.3344 5.07504 18.0047 4.28053 18Z" fill="#382817"/>
<path d="M17.14 16.5002C17.1355 17.3344 16.5017 18 15.7072 18C14.9216 18 14.2789 17.3204 14.2833 16.4861C14.2878 15.6565 14.935 14.991 15.7295 14.9956C16.5062 15.005 17.1445 15.6846 17.14 16.5002Z" fill="#382817"/>
<path d="M19.9967 13.463C19.9967 13.0177 20.0011 12.5819 19.9118 12.1366C19.528 10.2243 19.1754 8.30267 18.7915 6.38571C18.5728 5.30303 17.622 4.50624 16.5731 4.50156C15.7563 4.49687 14.935 4.49687 14.1182 4.50156C13.4129 4.50624 12.8595 5.08742 12.855 5.82328C12.8505 6.18417 12.855 6.54038 12.855 6.90128C12.855 8.34486 12.855 9.79313 12.855 11.2367C12.855 11.6398 12.6541 11.9163 12.3149 11.9866C11.8596 12.085 11.4267 11.682 11.4267 11.157C11.4267 9.46035 11.4267 7.76836 11.4267 6.07169C11.4267 4.38438 11.4267 2.69708 11.4267 1.00978C11.4267 0.423909 11.0339 0.00208309 10.4759 0.00208309C7.29342 -0.00260386 4.11092 0.00208309 0.923953 0.00208309C0.406182 0.00677004 0.0133906 0.423909 0.00446354 0.967595C0 1.18788 0 1.40817 0 1.62377C0 5.37802 0 9.13226 0 12.8818C0 13.7958 0 14.7097 0 15.6237C0 16.158 0.325838 16.4955 0.839145 16.5002C1.09357 16.5002 1.34353 16.4955 1.59795 16.5002C1.73185 16.5048 1.78542 16.4814 1.79434 16.3174C1.87915 14.9535 2.96825 13.8801 4.25375 13.8755C5.58389 13.8661 6.68192 14.916 6.77565 16.2939C6.78904 16.4767 6.84707 16.5002 6.99883 16.5002C9.00742 16.4955 11.016 16.4955 13.0246 16.5002C13.1853 16.5002 13.2121 16.4486 13.2255 16.2939C13.3147 15.0238 14.2699 14.0067 15.4796 13.8801C16.6535 13.7536 17.7872 14.5691 18.122 15.7596C18.1889 16.0033 18.0863 16.3549 18.3005 16.472C18.5014 16.5798 18.796 16.4955 19.0459 16.4955C19.6173 16.4908 19.9922 16.0971 19.9967 15.4971C20.0011 14.8222 20.0011 14.1426 19.9967 13.463ZM17.7872 12.0007C17.2873 12.0007 16.7918 12.0054 16.2919 12.0007C15.9259 12.0007 15.7117 11.771 15.7117 11.3867C15.7117 10.8383 15.7117 10.2946 15.7117 9.74625C15.7117 9.20726 15.7117 8.66826 15.7117 8.12926C15.7117 7.72618 15.9214 7.50589 16.3008 7.50121C16.582 7.50121 16.8677 7.49652 17.1489 7.50121C17.4167 7.50589 17.5774 7.6465 17.631 7.92303C17.8542 9.06665 18.0729 10.2149 18.2871 11.3633C18.3675 11.757 18.1711 12.0007 17.7872 12.0007Z" fill="#382817"/>
</svg>
