<svg width="32" height="31" viewBox="0 0 32 31" fill="none" xmlns="http://www.w3.org/2000/svg">
<path d="M0.00713808 11.2586C0.00713808 8.87673 0.00713808 6.48767 0.00713808 4.10576C0.00713808 1.7453 1.7631 0 4.11867 0C8.25875 0 12.3988 0 16.5389 0C18.7946 0 20.5648 1.77392 20.5648 4.03423C20.5648 6.68079 20.5719 9.32736 20.5648 11.9739C20.5648 14.2629 18.8017 16.0225 16.5175 16.0225C12.8771 16.0225 9.23667 16.0296 5.59625 16.0153C4.94669 16.0153 4.42561 16.2227 3.96877 16.6877C3.13362 17.5389 2.26991 18.3615 1.43475 19.2055C1.15637 19.4845 0.863707 19.649 0.478251 19.4988C0.092795 19.3486 0 19.0195 0 18.6261C0.0142762 16.1655 0.00713808 13.7121 0.00713808 11.2586Z" fill="#382817"/>
<path d="M31.9929 22.689C31.9929 25.1424 31.9857 27.603 32 30.0564C32 30.4427 31.9286 30.7789 31.5432 30.9362C31.1648 31.0936 30.865 30.9434 30.5867 30.6644C29.7301 29.8061 28.8592 28.962 27.9955 28.0965C27.5673 27.6674 27.0747 27.4671 26.4609 27.4671C22.799 27.4742 19.13 27.4742 15.4682 27.4671C13.2126 27.4671 11.4423 25.6932 11.4352 23.4329C11.4352 22.0881 11.4352 20.7362 11.4352 19.3915C11.4352 18.6905 11.8135 18.3114 12.5202 18.3114C13.8764 18.3114 15.2327 18.3114 16.5889 18.3114C19.9938 18.3042 22.7919 15.5504 22.8561 12.1384C22.8633 11.6449 23.0631 11.4446 23.5557 11.4446C25.0689 11.4446 26.5751 11.4375 28.0883 11.4446C30.2012 11.4518 31.9786 13.2543 31.9929 15.3859C32 16.6018 31.9929 17.8178 31.9929 19.0338C31.9929 20.257 31.9929 21.473 31.9929 22.689Z" fill="#382817"/>
</svg>
