<svg width="18" height="22" viewBox="0 0 18 22" fill="none" xmlns="http://www.w3.org/2000/svg">
<path d="M16.419 6.28127C14.7228 6.27637 13.4061 5.555 12.5392 4.00922C12.1925 3.386 12.0191 2.70389 11.9956 1.97762C11.9863 1.71754 12.0003 1.45254 11.991 1.19246C11.9863 0.956913 12.0659 0.775345 12.2815 0.682107C12.4923 0.593777 12.6563 0.672293 12.8063 0.834232C13.7153 1.79114 14.6291 2.74315 15.5428 3.69516C16.091 4.2693 16.6346 4.83854 17.1828 5.41269C17.3375 5.57463 17.4359 5.74638 17.3421 5.98193C17.2484 6.22239 17.0657 6.296 16.8361 6.28618C16.7002 6.27637 16.5596 6.28127 16.419 6.28127Z" fill="#382817"/>
<path d="M17.9935 9.69181C17.9935 8.80851 17.4077 8.0577 16.5784 7.90066C16.1988 7.82706 15.8005 7.85159 15.4163 7.79271C12.5954 7.36578 10.5243 4.86308 10.4962 1.87457C10.4868 0.804788 9.71835 0 8.69685 0C7.18333 0 5.66513 0 4.15162 0C3.91733 0 3.68304 0.0294435 3.45343 0.0785159C1.34951 0.549612 0 2.3015 0 4.56374C0 6.7082 0 8.84776 0 10.9922C0 13.1858 0 15.3744 0 17.5679C0.0046858 19.9921 1.89775 21.9796 4.21722 21.9845C6.82721 21.9894 9.43252 21.9894 12.0425 21.9845C12.7969 21.9845 13.556 22.0384 14.3104 21.9452C16.3488 21.69 17.9794 19.8056 17.9888 17.6661C18.0075 15.0064 17.9982 12.3466 17.9935 9.69181ZM13.4857 14.8493C13.4717 15.605 13.153 16.2577 12.5673 16.6994C11.6536 17.3815 10.7211 18.0341 9.77458 18.6672C9.25914 19.0107 8.69216 18.991 8.18141 18.6426C7.29579 18.0488 6.41955 17.4354 5.55736 16.8073C4.84512 16.2921 4.49837 15.5609 4.49837 14.653C4.49837 13.9022 4.49837 13.1514 4.49837 12.3957C4.49837 11.5958 4.49837 10.7959 4.49837 9.99115C4.49837 9.62311 4.61551 9.46608 4.96226 9.4121C6.26023 9.20599 7.45979 8.7349 8.57502 8.01353C8.85148 7.83196 9.13262 7.83687 9.41377 8.01844C10.5431 8.75453 11.7614 9.22562 13.0734 9.42191C13.3405 9.46117 13.4904 9.63783 13.4904 9.92245C13.4951 11.5664 13.5138 13.2103 13.4857 14.8493Z" fill="#382817"/>
<path d="M7.93775 12.7785C8.15798 12.7834 8.34541 12.8815 8.50473 13.0336C8.60782 13.1318 8.67342 13.1171 8.77182 13.014C9.15137 12.6018 9.54498 12.2043 9.92453 11.797C10.2291 11.4682 10.6743 11.4339 10.9882 11.7332C11.2975 12.0326 11.3209 12.5184 11.021 12.8521C10.782 13.122 10.529 13.3722 10.2806 13.6323C9.94327 13.9856 9.61058 14.339 9.2732 14.6874C8.94051 15.0309 8.57502 15.0554 8.20484 14.7659C7.95649 14.5696 7.70346 14.3733 7.46448 14.1672C7.20676 13.9464 7.12242 13.598 7.23488 13.2839C7.33796 12.9846 7.63317 12.7736 7.93775 12.7785Z" fill="#382817"/>
</svg>
