<svg width="8" height="6" viewBox="0 0 8 6" fill="none" xmlns="http://www.w3.org/2000/svg">
<path d="M2.2105 5.99962C2.03274 5.99962 1.88037 5.9417 1.75339 5.82587C1.24186 5.34891 0.726707 4.87535 0.218806 4.39839C-0.0641678 4.13265 -0.0714235 3.76811 0.189783 3.51601C0.450989 3.2639 0.853682 3.2673 1.14391 3.52963C1.46679 3.82262 1.78604 4.11562 2.09441 4.41883C2.18874 4.51081 2.2359 4.50741 2.33385 4.41883C3.82853 3.02201 5.32684 1.62519 6.82515 0.231776C7.08273 -0.0101124 7.36207 -0.0612156 7.64504 0.0716526C7.99332 0.23859 8.10941 0.657636 7.88448 0.960848C7.85183 1.00854 7.8083 1.04943 7.76476 1.09031C6.08143 2.65747 4.40173 4.22464 2.7184 5.7918C2.57692 5.92126 2.41729 6.00643 2.2105 5.99962Z" fill="#ffffff"/>
</svg>
