<svg width="24" height="22" viewBox="0 0 24 22" fill="none" xmlns="http://www.w3.org/2000/svg">
<path d="M20.3629 0.00224205C17.5774 -0.00280256 14.792 0.00224205 12.0065 0.00224205C9.19433 0.00224205 6.3821 -0.00280256 3.56988 0.00224205C1.62543 0.00224205 0.00238072 1.52572 0.00238072 3.35691C-0.0029759 7.57925 0.00238072 11.7966 0.00238072 16.0189C0.00238072 16.3216 0.0452336 16.6242 0.141653 16.9118C0.532685 18.0872 1.34689 18.8691 2.60034 19.2323C3.17885 19.3988 3.43061 19.7166 3.43061 20.2866C3.43061 20.6145 3.44132 20.9424 3.43061 21.2703C3.4199 21.5528 3.5056 21.7899 3.78415 21.9261C4.06805 22.0674 4.32517 21.9917 4.57693 21.8202C5.43398 21.235 6.30711 20.665 7.16417 20.0748C7.86589 19.5905 8.6426 19.3685 9.51037 19.3685C13.1154 19.3786 16.7204 19.3736 20.3307 19.3736C22.4144 19.3736 24 17.8753 24 15.9079C24 11.7562 24 7.60448 24 3.44771C24 1.51563 22.4144 0.00224205 20.3629 0.00224205ZM4.57693 5.04686C4.7537 4.90056 4.95725 4.84507 5.19294 4.84507C8.75508 4.84507 12.3119 4.84507 15.874 4.84507C16.8382 4.84507 17.8024 4.84507 18.7666 4.84507C19.329 4.84507 19.7147 5.17802 19.7201 5.65725C19.7201 6.13145 19.329 6.45935 18.7612 6.45935C16.5061 6.45935 14.2456 6.45935 11.9905 6.45935C9.72463 6.45935 7.45878 6.45935 5.19294 6.45935C4.79655 6.45935 4.48051 6.26261 4.35195 5.9448C4.21268 5.62194 4.30374 5.26882 4.57693 5.04686ZM13.0511 14.5055C12.9493 14.5307 12.8368 14.5307 12.735 14.5307C11.487 14.5307 10.2389 14.5307 8.99077 14.5307C7.74268 14.5307 6.49459 14.5307 5.2465 14.5307C4.6787 14.5307 4.29303 14.2079 4.28767 13.7286C4.28231 13.2544 4.67335 12.9165 5.23579 12.9165C7.76947 12.9165 10.3031 12.9165 12.8368 12.9165C13.2921 12.9165 13.6564 13.209 13.7099 13.6177C13.7635 14.0162 13.485 14.4046 13.0511 14.5055ZM19.0612 10.4648C18.9862 10.485 18.9005 10.49 18.8255 10.49C14.2778 10.49 9.72463 10.49 5.17687 10.49C4.76976 10.49 4.45908 10.2832 4.33588 9.94518C4.21803 9.62232 4.31981 9.27424 4.60371 9.06237C4.78583 8.92616 4.99474 8.88076 5.22508 8.88076C7.48021 8.88581 9.7407 8.88076 11.9958 8.88076C14.2724 8.88076 16.5436 8.88076 18.8202 8.88076C19.2915 8.88076 19.6558 9.1784 19.704 9.5971C19.7576 9.99058 19.4844 10.3639 19.0612 10.4648Z" fill="#FDB15D"/>
</svg>
