<svg width="30" height="30" viewBox="0 0 30 30" fill="none" xmlns="http://www.w3.org/2000/svg">
<path d="M28.0233 10.3581C25.2414 7.56069 22.4461 4.77674 19.6575 1.98609C19.2956 1.62384 18.9001 1.28842 18.4644 1.02009C15.7763 -0.61674 12.6257 -0.267908 10.3868 1.95254C7.55802 4.74991 4.74262 7.56069 1.94732 10.3916C-0.653572 13.0347 -0.646869 16.9859 1.95403 19.6222C4.74932 22.4531 7.57142 25.2572 10.3868 28.068C11.6538 29.3292 13.1955 29.9665 15.0456 30C16.7751 29.9665 18.3236 29.3426 19.5905 28.0814C22.4193 25.2639 25.2481 22.4599 28.0501 19.6155C30.6644 16.959 30.6443 12.9877 28.0233 10.3581ZM8.57022 9.57319C8.57693 8.40594 9.48858 7.49361 10.655 7.49361C11.1711 7.49361 11.6806 7.49361 12.1967 7.49361C12.6995 7.49361 13.2022 7.49361 13.705 7.49361C14.744 7.49361 15.783 7.48019 16.822 7.50032C17.1103 7.50703 17.1907 7.41982 17.1572 7.14478C17.1237 6.88315 17.1974 6.64836 17.4521 6.52761C17.6868 6.41357 17.908 6.46724 18.089 6.65507C19.1213 7.68815 20.1603 8.72123 21.1859 9.76102C21.454 10.0361 21.454 10.3111 21.1792 10.5861C20.1469 11.6259 19.1146 12.659 18.0823 13.6921C17.908 13.8665 17.7002 13.9269 17.4723 13.833C17.2443 13.739 17.117 13.5445 17.1505 13.303C17.2041 12.9341 17.0701 12.8536 16.7014 12.8536C14.2815 12.8737 11.8549 12.8603 9.43495 12.8603C8.81154 12.8603 8.56352 12.6121 8.56352 11.9882C8.57022 11.1832 8.56352 10.3782 8.57022 9.57319ZM21.4406 20.3534C21.4406 21.6146 20.5491 22.5135 19.2956 22.5135C18.7928 22.5135 18.2901 22.5135 17.7873 22.5135C17.2846 22.5135 16.7818 22.5135 16.2791 22.5135C15.24 22.5135 14.201 22.5202 13.162 22.5068C12.9073 22.5001 12.8268 22.5739 12.8537 22.8221C12.8872 23.1039 12.8268 23.3655 12.5252 23.4862C12.2973 23.5801 12.0895 23.5265 11.9152 23.3521C10.8829 22.3123 9.84386 21.2792 8.81154 20.2394C8.54341 19.9711 8.54341 19.6893 8.81825 19.4143C9.84386 18.3812 10.8695 17.3615 11.8951 16.3285C12.0828 16.1406 12.2906 16.0735 12.5319 16.1742C12.7598 16.2748 12.8872 16.4693 12.847 16.7108C12.7866 17.0999 12.9542 17.1536 13.3028 17.1536C15.716 17.1402 18.1292 17.1469 20.5424 17.1469C21.1926 17.1469 21.4339 17.3884 21.4339 18.0391C21.4406 18.8105 21.4406 19.582 21.4406 20.3534Z" fill="#382817"/>
</svg>
