<svg width="32" height="32" viewBox="0 0 32 32" fill="none" xmlns="http://www.w3.org/2000/svg">
<path d="M16.025 1.04767e-05C7.20227 -0.00998951 0.0200481 7.14 4.18689e-05 15.95C-0.0199643 24.8 7.13225 31.98 15.975 32C24.7977 32.02 31.99 24.86 32 16.05C32.02 7.19 24.8677 0.0100105 16.025 1.04767e-05ZM15.975 25.6C15.0947 25.58 14.4045 24.87 14.4045 23.99C14.4045 23.12 15.1247 22.4 15.995 22.4C16.9153 22.4 17.6155 23.13 17.6055 24.07C17.5955 24.95 16.8753 25.62 15.975 25.6ZM17.6055 19.05C17.6055 20.1 16.9353 20.81 15.975 20.8C15.0547 20.79 14.4045 20.07 14.4045 19.04C14.4045 15.39 14.4045 11.75 14.4045 8.1C14.4045 7.13 15.0747 6.4 15.985 6.4C16.9253 6.39 17.6055 7.11 17.6055 8.11C17.6055 9.95999 17.6055 11.81 17.6055 13.65C17.6055 15.45 17.6055 17.25 17.6055 19.05Z" fill="#FDB15D"/>
</svg>
