<svg width="22" height="18" viewBox="0 0 22 18" fill="none" xmlns="http://www.w3.org/2000/svg">
<path d="M12.2742 17.9998C11.4936 17.9853 10.6148 17.5947 9.87346 16.8617C8.61171 15.6126 7.34505 14.3684 6.07839 13.1241C5.70527 12.7576 5.4647 12.7431 5.03266 13.0614C4.82646 13.2109 4.5908 13.2158 4.40915 13.0325C4.03112 12.6563 3.64817 12.2802 3.29469 11.8751C2.85283 11.3687 2.88229 10.6116 3.35851 10.1389C4.25696 9.24193 5.15049 8.32564 6.10294 7.4865C6.87374 6.80652 7.80164 6.48822 8.83755 6.45447C9.09284 6.44482 9.28432 6.54127 9.38742 6.77758C9.48561 7.00424 9.41196 7.19715 9.23522 7.36594C8.759 7.82891 8.28768 8.30153 7.81146 8.7645C7.22722 9.33356 7.02593 10.028 7.1143 10.8141C7.17322 11.3494 7.65926 11.7786 8.20913 11.8124C8.97011 11.8606 9.66726 11.7015 10.2957 11.2578C10.6835 10.9877 11.0861 10.7418 11.4838 10.4862C12.0189 10.1438 12.505 10.192 12.9665 10.6405C13.1874 10.8575 13.4132 11.0649 13.6243 11.2867C13.9385 11.6147 14.3264 11.769 14.7781 11.7931C15.7894 11.8461 16.5259 12.3091 16.8892 13.2495C17.2574 14.1996 17.0561 15.0676 16.3344 15.8007C15.9073 16.2347 15.4752 16.6639 15.0285 17.0739C14.3559 17.6863 13.4672 18.0094 12.2742 17.9998Z" fill="#382817"/>
<path d="M0.00530229 4.28429C0.00530229 3.02559 0.00530229 1.76207 0.00530229 0.503367C0.00530229 0.295995 0.039669 0.122381 0.260598 0.0307512C0.471708 -0.0512332 0.614084 0.0548642 0.75646 0.19472C2.43061 1.83441 4.10476 3.46927 5.78382 5.10414C6.13731 5.44654 6.13731 5.75519 5.78382 6.10242C4.73809 7.13928 3.68745 8.18096 2.64172 9.213C2.23423 9.6181 1.54199 9.74348 0.977389 9.50235C0.363698 9.24193 0.0200309 8.76932 0.0102118 8.11827C-0.0094263 6.84027 0.00530229 5.56228 0.00530229 4.28429Z" fill="#382817"/>
<path d="M22 4.31323C22 5.52852 22 6.739 22 7.9543C22 8.68733 21.6514 9.23711 21.0328 9.49271C20.4142 9.74831 19.7711 9.60363 19.2408 9.08761C18.2442 8.11344 17.2525 7.13445 16.2558 6.15546C15.9024 5.80341 15.9024 5.43207 16.2608 5.08002C17.9251 3.44998 19.5894 1.81994 21.2488 0.189897C21.3863 0.0548642 21.5336 -0.0560558 21.7447 0.0307512C21.9656 0.117558 22 0.295995 22 0.503367C21.9951 1.77171 22 3.04006 22 4.31323Z" fill="#382817"/>
<path d="M19.1672 11.0552C19.1574 11.5182 18.9365 11.8558 18.5093 12.0439C18.0822 12.232 17.6698 12.1596 17.3261 11.8461C16.9579 11.5037 16.6142 11.1372 16.2608 10.7803C15.9269 10.4379 15.5243 10.2643 15.0383 10.2547C14.459 10.245 13.9582 10.0425 13.5311 9.65668C12.8535 9.04903 12.1122 8.98633 11.3316 9.46377C10.6295 9.89299 9.93237 10.3222 9.23031 10.7466C8.85719 10.9732 8.50861 10.9395 8.28277 10.6598C8.05202 10.3801 8.10112 10.0184 8.41042 9.71455C9.20576 8.92846 10.0306 8.16649 10.8014 7.35629C11.6507 6.45929 12.6768 6.24709 13.8453 6.47858C14.8321 6.67631 15.6814 7.13445 16.3884 7.83855C17.1985 8.64393 18.0036 9.45413 18.8137 10.2643C19.0396 10.4813 19.1721 10.7369 19.1672 11.0552Z" fill="#382817"/>
<path d="M8.15021 17.9516C7.97347 17.9467 7.74272 17.8503 7.55616 17.667C6.66753 16.799 5.78382 15.9309 4.90501 15.0628C4.65954 14.8169 4.65463 14.4889 4.88538 14.2671C5.1014 14.0549 5.44506 14.0501 5.67581 14.2767C6.65772 15.2316 7.6298 16.1913 8.6068 17.151C8.7639 17.3053 8.79827 17.4838 8.71481 17.6815C8.62644 17.8889 8.4546 17.966 8.15021 17.9516Z" fill="#382817"/>
</svg>
