<svg width="16" height="16" viewBox="0 0 16 16" fill="none" xmlns="http://www.w3.org/2000/svg">
<path d="M12.5029 10.4966C12.5565 10.1257 12.5601 9.79398 12.5601 9.46227C12.5565 8.89872 12.4671 8.34944 12.2991 7.81443C12.2527 7.67176 12.2848 7.58973 12.3849 7.48986C12.728 7.14388 13.0962 6.82288 13.35 6.39843C14.3508 4.71493 13.2249 2.48928 11.2733 2.29668C10.4369 2.21464 9.70421 2.44648 9.09301 3.02073C8.58546 3.49867 8.09221 3.99088 7.61326 4.49379C6.8984 5.24281 6.70539 6.13806 6.91985 7.13318C7.02707 7.63966 7.24153 8.10334 7.56679 8.50638C8.20659 9.2982 8.02787 10.1364 7.41667 10.8283C7.35591 10.8997 7.30229 10.9068 7.22009 10.864C6.0227 10.222 5.1613 9.2661 4.786 7.96424C4.21412 5.98826 4.64661 4.22985 6.11921 2.76035C6.64105 2.23961 7.14145 1.6939 7.69904 1.20882C9.52907 -0.385518 12.317 -0.403352 14.1792 1.15888C15.2408 2.05057 15.8555 3.19193 15.9771 4.56513C16.1093 6.04176 15.6697 7.35076 14.6546 8.44218C14.0827 9.05566 13.4894 9.65131 12.871 10.2149C12.7638 10.3076 12.6458 10.3861 12.5029 10.4966Z" fill="#FDB15D"/>
<path d="M4.32241e-05 10.7641C0.0250632 9.61207 0.500442 8.40295 1.4655 7.39712C1.89441 6.95128 2.34477 6.52327 2.78083 6.08456C2.89878 5.96686 3.03461 5.92762 3.1883 5.98826C3.34199 6.04889 3.40633 6.1773 3.40276 6.34493C3.39561 6.94415 3.47782 7.52909 3.65296 8.09977C3.71014 8.28881 3.6601 8.42791 3.52428 8.56345C3.22047 8.86306 2.90593 9.15196 2.67718 9.5229C1.69068 11.1386 2.56638 13.243 4.41785 13.6496C5.41508 13.8672 6.27648 13.5676 7.00205 12.8685C7.47743 12.4084 7.94209 11.9412 8.39602 11.4596C9.31461 10.4895 9.37895 8.98076 8.54972 7.92857C8.24233 7.53979 8.04574 7.11535 7.99213 6.62314C7.96354 6.35563 7.99928 6.10239 8.11008 5.85985C8.33883 5.37121 8.93217 5.21784 9.3575 5.54598C10.8122 6.66594 11.5164 8.14614 11.3984 9.97588C11.3198 11.16 10.8408 12.1944 10.0259 13.0575C9.4826 13.6318 8.93931 14.2096 8.33883 14.7268C5.86901 16.8561 2.26971 16.2141 0.679156 13.5498C0.2145 12.7686 -0.00353105 11.9126 4.32241e-05 10.7641Z" fill="#FDB15D"/>
</svg>
