<svg width="117" height="84" viewBox="0 0 117 84" fill="none" xmlns="http://www.w3.org/2000/svg">
<path d="M10.368 68.908H5.94V80.356H4.626V68.908H0.197998V67.756H10.368V68.908Z" fill="#382817"/>
<path d="M17.0319 70.816C17.9199 70.816 18.7239 71.02 19.4439 71.428C20.1639 71.824 20.7279 72.388 21.1359 73.12C21.5439 73.852 21.7479 74.686 21.7479 75.622C21.7479 76.57 21.5439 77.41 21.1359 78.142C20.7279 78.874 20.1639 79.444 19.4439 79.852C18.7359 80.248 17.9319 80.446 17.0319 80.446C16.2639 80.446 15.5679 80.29 14.9439 79.978C14.3319 79.654 13.8279 79.186 13.4319 78.574V83.848H12.1539V70.888H13.3779V72.76C13.7619 72.136 14.2659 71.656 14.8899 71.32C15.5259 70.984 16.2399 70.816 17.0319 70.816ZM16.9419 79.312C17.6019 79.312 18.2019 79.162 18.7419 78.862C19.2819 78.55 19.7019 78.112 20.0019 77.548C20.3139 76.984 20.4699 76.342 20.4699 75.622C20.4699 74.902 20.3139 74.266 20.0019 73.714C19.7019 73.15 19.2819 72.712 18.7419 72.4C18.2019 72.088 17.6019 71.932 16.9419 71.932C16.2699 71.932 15.6639 72.088 15.1239 72.4C14.5959 72.712 14.1759 73.15 13.8639 73.714C13.5639 74.266 13.4139 74.902 13.4139 75.622C13.4139 76.342 13.5639 76.984 13.8639 77.548C14.1759 78.112 14.5959 78.55 15.1239 78.862C15.6639 79.162 16.2699 79.312 16.9419 79.312Z" fill="#382817"/>
<path d="M24.4938 70.888H25.7718V78.412L32.0898 70.888H33.2238V80.356H31.9458V72.832L25.6458 80.356H24.4938V70.888Z" fill="#382817"/>
<path d="M44.9324 70.888L40.1984 81.49C39.8144 82.378 39.3704 83.008 38.8664 83.38C38.3624 83.752 37.7564 83.938 37.0484 83.938C36.5924 83.938 36.1664 83.866 35.7704 83.722C35.3744 83.578 35.0324 83.362 34.7444 83.074L35.3384 82.12C35.8184 82.6 36.3944 82.84 37.0664 82.84C37.4984 82.84 37.8644 82.72 38.1644 82.48C38.4764 82.24 38.7644 81.832 39.0284 81.256L39.4424 80.338L35.2124 70.888H36.5444L40.1084 78.934L43.6724 70.888H44.9324Z" fill="#382817"/>
<path d="M57.5075 70.888V80.356H56.3375V72.868L52.5035 79.204H51.9275L48.0935 72.85V80.356H46.9235V70.888H48.2195L52.2335 77.71L56.3195 70.888H57.5075Z" fill="#382817"/>
<path d="M72.5742 75.604C72.5742 77.08 72.0882 78.238 71.1162 79.078C70.1442 79.918 68.7702 80.374 66.9942 80.446V83.848H65.7522V80.464C63.9882 80.392 62.6202 79.936 61.6482 79.096C60.6882 78.244 60.2082 77.08 60.2082 75.604C60.2082 74.14 60.6882 72.994 61.6482 72.166C62.6202 71.338 63.9882 70.888 65.7522 70.816V67H66.9942V70.816C68.7702 70.9 70.1442 71.356 71.1162 72.184C72.0882 73.012 72.5742 74.152 72.5742 75.604ZM61.4682 75.604C61.4682 76.732 61.8282 77.614 62.5482 78.25C63.2802 78.886 64.3482 79.246 65.7522 79.33V71.95C64.3602 72.022 63.2982 72.376 62.5662 73.012C61.8342 73.636 61.4682 74.5 61.4682 75.604ZM66.9942 79.33C68.3982 79.258 69.4662 78.904 70.1982 78.268C70.9422 77.632 71.3142 76.744 71.3142 75.604C71.3142 74.488 70.9422 73.618 70.1982 72.994C69.4662 72.37 68.3982 72.022 66.9942 71.95V79.33Z" fill="#382817"/>
<path d="M88.021 77.98V82.966H85.321V80.356H76.429V82.966H73.729L73.747 77.98H74.251C75.007 77.956 75.541 77.404 75.853 76.324C76.165 75.244 76.357 73.702 76.429 71.698L76.573 67.756H86.257V77.98H88.021ZM79.003 71.968C78.943 73.468 78.817 74.728 78.625 75.748C78.433 76.756 78.139 77.5 77.743 77.98H83.377V70.132H79.057L79.003 71.968Z" fill="#382817"/>
<path d="M101.468 67.756V80.356H98.57V70.132H92.882V80.356H89.984V67.756H101.468Z" fill="#382817"/>
<path d="M109.469 75.28H107.453V80.356H104.555V67.756H107.453V72.85H109.541L112.853 67.756H115.931L111.809 73.84L116.057 80.356H112.745L109.469 75.28Z" fill="#382817"/>
<circle cx="59.4487" cy="27.5" r="27.3718" fill="#FDB15D"/>
<path d="M94.0007 25.0713C94.0007 26.5555 94.0007 28.0397 94.0007 29.5239C93.8777 30.7382 93.7547 31.9661 93.4129 33.1534C92.3191 36.9179 90.4597 40.1966 87.3015 42.6523C85.8386 43.7857 84.1707 44.5547 82.3113 44.8381C81.8465 44.973 81.3679 45 80.8894 45C66.3015 45 51.7136 45 37.1394 45C36.6609 45 36.1824 44.973 35.7175 44.8381C33.4754 44.4738 31.534 43.4753 29.8797 41.9641C26.7351 39.1037 24.9988 35.4877 24.2058 31.3859C24.0828 30.7787 24.1511 30.1446 24.0144 29.5239C24.0144 28.1746 24.0144 26.8254 24.0144 25.4761C24.1238 23.7895 24.4382 22.1569 25.0125 20.5648C26.3113 16.8813 28.4304 13.8049 31.7527 11.5921C33.6531 10.4722 35.7039 10 37.9324 10C51.8914 10.027 65.8504 10.0135 79.8093 10.0135C80.1238 10.0135 80.4519 10.0135 80.7664 10.0135C82.407 10.081 83.3504 11.1199 83.241 12.7525C82.8582 14.1288 82.0652 14.7494 80.5613 14.7494C75.6121 14.7629 70.6765 14.7494 65.7273 14.7494C59.575 14.7494 53.4226 14.7494 47.2703 14.7494C47.0925 14.7494 46.9011 14.7494 46.7234 14.7494C46.2586 14.7359 46.2449 14.8978 46.4636 15.2621C46.9832 16.1527 47.6668 16.5439 48.7879 16.517C52.7664 16.436 56.7586 16.49 60.7507 16.49C61.448 16.49 62.1179 16.5709 62.6785 17.0297C63.4441 17.6773 63.7449 18.4869 63.4851 19.4449C63.2254 20.4298 62.5281 20.9965 61.5164 21.1854C61.1746 21.2394 60.8328 21.2259 60.491 21.2259C57.1687 21.2259 53.8328 21.2259 50.5105 21.2259C49.5808 21.2259 49.5398 21.2799 49.7586 22.1434C49.9363 22.845 50.0867 23.5466 50.2097 24.2483C50.3464 25.0848 50.4011 25.1253 51.2761 25.1253C55.3367 25.1253 59.3836 25.1253 63.4441 25.1253C65.5222 25.1253 67.5867 25.1253 69.6648 25.1253C70.239 25.1253 70.7996 25.2197 71.2918 25.5571C72.0847 26.1103 72.4812 27.0547 72.2761 27.9722C72.0711 28.9167 71.3054 29.6453 70.3211 29.8072C69.9656 29.8612 69.5964 29.8477 69.2273 29.8477C63.28 29.8477 57.3328 29.8477 51.3855 29.8477C50.3738 29.8477 50.3601 29.8477 50.2097 30.8057C50.0867 31.5208 49.9226 32.2224 49.7449 32.9106C49.5535 33.6662 49.6082 33.7336 50.3875 33.7336C51.7273 33.7336 53.0808 33.7336 54.4207 33.7336C55.0086 33.7336 55.5554 33.8416 56.034 34.1924C56.8406 34.786 57.1961 35.7575 56.9363 36.702C56.6765 37.66 55.8562 38.3616 54.8172 38.4291C53.8191 38.4965 52.8074 38.4561 51.8093 38.4561C50.6199 38.4561 49.4441 38.4561 48.2547 38.4561C47.5164 38.4561 46.532 39.2251 46.3406 39.9268C46.2859 40.1157 46.3679 40.1696 46.532 40.1831C46.7097 40.2101 46.9011 40.1966 47.0789 40.1966C58.2898 40.1966 69.5007 40.1966 80.698 40.1966C82.407 40.1966 83.8836 39.6164 85.2371 38.564C84.95 38.3886 84.6902 38.4561 84.4578 38.4561C81.2175 38.4561 77.991 38.4561 74.7507 38.4561C74.1765 38.4561 73.616 38.4156 73.1101 38.1052C72.2625 37.5925 71.8113 36.6345 71.989 35.6766C72.1668 34.7051 72.9461 33.936 73.9578 33.7606C74.2996 33.7066 74.6414 33.7201 74.9832 33.7201C79.1121 33.7201 83.2273 33.7201 87.3562 33.7201C88.45 33.7201 88.4773 33.6931 88.7644 32.6677C88.9422 31.9931 89.0925 31.3184 89.2019 30.6168C89.3113 29.9017 89.2566 29.8207 88.532 29.8207C87.5066 29.8072 86.4812 29.8207 85.4558 29.8207C84.8953 29.8207 84.3757 29.6993 83.9109 29.3755C83.1043 28.7953 82.7351 27.8103 82.9812 26.8793C83.241 25.8944 84.075 25.1928 85.155 25.1253C86.2625 25.0578 87.3836 25.1118 88.5047 25.0983C89.325 25.0983 89.3797 25.0308 89.2429 24.2618C89.1062 23.4927 88.8875 22.7236 88.6687 21.968C88.5047 21.4013 88.1765 21.1854 87.575 21.1854C85.4558 21.1989 83.3367 21.1989 81.2175 21.1989C80.6433 21.1989 80.0828 21.118 79.5906 20.7806C78.7429 20.214 78.3601 19.202 78.6062 18.244C78.866 17.2591 79.7 16.5574 80.78 16.49C81.9558 16.4225 83.1453 16.4765 84.3347 16.463C85.0457 16.463 85.0457 16.4495 84.7175 15.8288C84.28 15.0193 84.3484 14.2367 84.8132 13.4676C85.3191 12.8739 85.907 12.4152 86.7547 12.4422C87.575 12.4152 88.2039 12.7795 88.7371 13.3462C91.239 16.0042 92.8797 19.121 93.7136 22.6561C93.8777 23.4792 93.864 24.2887 94.0007 25.0713Z" fill="#382817"/>
<path d="M37.1523 27.9722C37.918 26.623 39.0117 26.1372 40.1328 26.596C41.0351 26.9603 41.623 27.8913 41.4726 28.8628C41.2539 30.2795 40.748 31.5883 39.7773 32.6947C38.2597 34.4083 36.1816 34.4083 34.6367 32.7082C32.1484 29.9692 32.1484 25.0174 34.6367 22.2783C35.1699 21.6982 35.7715 21.2529 36.5644 21.064C37.7676 20.7807 38.9433 21.4688 39.2578 22.6561C39.5449 23.7625 38.9023 24.9094 37.7402 25.2197C37.2617 25.3412 37.1387 25.5571 37.1523 25.9888C37.166 26.623 37.1523 27.2436 37.1523 27.9722Z" fill="#382817"/>
</svg>
