<svg xmlns="http://www.w3.org/2000/svg" viewBox="0 0 70.1 54.8"><defs><style>.cls-1{fill:none;}.cls-2{fill:#fdb15d;}.cls-3{fill:#382817;}</style></defs><title>logo-min</title><g id="Слой_2" data-name="Слой 2"><g id="Слой_1-2" data-name="Слой 1"><path class="cls-1" d="M14.5,9.9h0Z"/><path class="cls-1" d="M6,41.9A19.1,19.1,0,0,1,.3,31.3c-.1-.6-.1-1.2-.2-1.9v-4a16.45,16.45,0,0,1,1-4.9,17.25,17.25,0,0,1,6.7-9A12.2,12.2,0,0,1,14,9.9H.1v35H13.2a3.18,3.18,0,0,1-1.4-.2A10.56,10.56,0,0,1,6,41.9Z"/><path class="cls-2" d="M55.9,9.9h0Z"/><path class="cls-2" d="M35.5,54.8a26.94,26.94,0,0,0,21-9.9h-42A27.41,27.41,0,0,0,35.5,54.8Z"/><path class="cls-2" d="M35.5,0a26.94,26.94,0,0,0-21,9.9H56.6A27.46,27.46,0,0,0,35.5,0Z"/><path class="cls-3" d="M59.3,12.7h0a2.44,2.44,0,0,0-2.5-2.8h-.3a19.42,19.42,0,0,1,2.3,3.3c.1-.2.1-.3.2-.5Z"/><path class="cls-3" d="M7.6,37.5a13.34,13.34,0,0,1-2.8-6.3A18.4,18.4,0,0,1,6.2,19.4a11.08,11.08,0,0,1,2.2-3,7.25,7.25,0,0,1,2.8-1.6A30.83,30.83,0,0,1,14.4,10h-.5a12.2,12.2,0,0,0-6.2,1.6,17.25,17.25,0,0,0-6.7,9,16.45,16.45,0,0,0-1,4.9v4c.1.6.1,1.3.2,1.9A18.5,18.5,0,0,0,5.9,42a11.83,11.83,0,0,0,5.8,2.9,6.75,6.75,0,0,0,1.4.2h1.3a30.83,30.83,0,0,1-3.2-4.8A10.37,10.37,0,0,1,7.6,37.5Z"/><path class="cls-3" d="M63.4,42.6a17.67,17.67,0,0,0,6.1-9.5,22.54,22.54,0,0,0,.6-3.6V25a19.67,19.67,0,0,0-.3-2.4,19.68,19.68,0,0,0-5-9.3,2.52,2.52,0,0,0-2-.9,2.42,2.42,0,0,0-1.9,1l.1.1a2.29,2.29,0,0,0,.6,3.2h-1A21.62,21.62,0,0,1,62,21h1.9c.4,0,.6.1.7.5a13.23,13.23,0,0,1,.8,3.3c.1.4,0,.5-.5.5H62.6a15.48,15.48,0,0,1,.1,2.2,16.2,16.2,0,0,1-.1,2.2h2.3c.5,0,.5.2.5.6a30.05,30.05,0,0,1-.7,3.2c0,.3-.2.4-.6.4H62.2a30.87,30.87,0,0,1-1.4,4.3H62a8.47,8.47,0,0,1-1.9,1.4,27,27,0,0,1-3.5,5.3H57a3.18,3.18,0,0,0,1.4-.2A10.14,10.14,0,0,0,63.4,42.6Z"/><path class="cls-3" d="M59.2,27.4a2.31,2.31,0,0,0,2.3,2.2h1.4a15.48,15.48,0,0,0,.1-2.2,17,17,0,0,0-.1-2.2H61.5A2.18,2.18,0,0,0,59.2,27.4Z"/><path class="cls-3" d="M57,40.4H21.9a24.26,24.26,0,0,0,1.4-2c.2-.3.5-.2.7-.2h6.6a2.16,2.16,0,1,0,0-4.3H25.4a30.1,30.1,0,0,0,.9-4.1c0-.4.4-.2.6-.2h19a2.21,2.21,0,0,0,2.4-2.2,2.14,2.14,0,0,0-2.4-2.1H27.2c-.6,0-.9-.1-.9-.7a15.53,15.53,0,0,0-.8-3.6H37.3a2.15,2.15,0,1,0,0-4.3H24.2a1.22,1.22,0,0,1-1.2-.6,14.31,14.31,0,0,0-1.1-1.5c.2-.2.5-.1.7-.1h34c1.4,0,2-.3,2.4-1.3-.7-1.1-1.5-2.2-2.3-3.3H14.6a30.83,30.83,0,0,0-3.2,4.8A6.61,6.61,0,0,1,18,16.3a11.62,11.62,0,0,1,3.6,6.9,15.33,15.33,0,0,1,.4,4.3,17.14,17.14,0,0,1-2.3,8.9,7.91,7.91,0,0,1-5.1,3.8,7.27,7.27,0,0,1-3.3-.1,30.83,30.83,0,0,0,3.2,4.8H56.6a27,27,0,0,0,3.5-5.3A6.81,6.81,0,0,1,57,40.4Z"/><path class="cls-3" d="M48.4,36.9a2.08,2.08,0,0,0,2.1,1.3H60.7a21.62,21.62,0,0,0,1.4-4.3H50.4A2.11,2.11,0,0,0,48.4,36.9Z"/><path class="cls-3" d="M54.8,18.8A2.24,2.24,0,0,0,57.3,21h4.9a30.87,30.87,0,0,0-1.4-4.3H57.3A2.12,2.12,0,0,0,54.8,18.8Z"/><path class="cls-3" d="M10.7,32.6a3.19,3.19,0,0,0,5.1,0,6.93,6.93,0,0,0,1.7-3.8,2.09,2.09,0,0,0-1.3-2.3c-1.1-.5-2.2,0-3,1.4v-2c0-.4.1-.6.6-.8a2.09,2.09,0,0,0,1.5-2.6,2.2,2.2,0,0,0-2.7-1.6,3.47,3.47,0,0,0-1.9,1.2A8.29,8.29,0,0,0,10.7,32.6Z"/></g></g></svg>