<svg width="70" height="55" viewBox="0 0 70 55" fill="none" xmlns="http://www.w3.org/2000/svg">
<circle cx="35.4487" cy="27.5" r="27.3718" fill="#FDB15D"/>
<path d="M70.0007 25.0713C70.0007 26.5555 70.0007 28.0397 70.0007 29.5239C69.8777 30.7382 69.7547 31.9661 69.4129 33.1534C68.3191 36.9179 66.4597 40.1966 63.3015 42.6523C61.8386 43.7857 60.1707 44.5547 58.3113 44.8381C57.8465 44.973 57.3679 45 56.8894 45C42.3015 45 27.7136 45 13.1394 45C12.6609 45 12.1824 44.973 11.7175 44.8381C9.47536 44.4738 7.53395 43.4753 5.87965 41.9641C2.73512 39.1037 0.998795 35.4877 0.205826 31.3859C0.0827789 30.7787 0.151138 30.1446 0.0144196 29.5239C0.0144196 28.1746 0.0144196 26.8254 0.0144196 25.4761C0.123795 23.7895 0.438248 22.1569 1.01247 20.5648C2.31129 16.8813 4.43044 13.8049 7.7527 11.5921C9.65309 10.4722 11.7039 10 13.9324 10C27.8914 10.027 41.8504 10.0135 55.8093 10.0135C56.1238 10.0135 56.4519 10.0135 56.7664 10.0135C58.407 10.081 59.3504 11.1199 59.241 12.7525C58.8582 14.1288 58.0652 14.7494 56.5613 14.7494C51.6121 14.7629 46.6765 14.7494 41.7273 14.7494C35.575 14.7494 29.4226 14.7494 23.2703 14.7494C23.0925 14.7494 22.9011 14.7494 22.7234 14.7494C22.2586 14.7359 22.2449 14.8978 22.4636 15.2621C22.9832 16.1527 23.6668 16.5439 24.7879 16.517C28.7664 16.436 32.7586 16.49 36.7507 16.49C37.448 16.49 38.1179 16.5709 38.6785 17.0297C39.4441 17.6773 39.7449 18.4869 39.4851 19.4449C39.2254 20.4298 38.5281 20.9965 37.5164 21.1854C37.1746 21.2394 36.8328 21.2259 36.491 21.2259C33.1687 21.2259 29.8328 21.2259 26.5105 21.2259C25.5808 21.2259 25.5398 21.2799 25.7586 22.1434C25.9363 22.845 26.0867 23.5466 26.2097 24.2483C26.3464 25.0848 26.4011 25.1253 27.2761 25.1253C31.3367 25.1253 35.3836 25.1253 39.4441 25.1253C41.5222 25.1253 43.5867 25.1253 45.6648 25.1253C46.239 25.1253 46.7996 25.2197 47.2918 25.5571C48.0847 26.1103 48.4812 27.0547 48.2761 27.9722C48.0711 28.9167 47.3054 29.6453 46.3211 29.8072C45.9656 29.8612 45.5964 29.8477 45.2273 29.8477C39.28 29.8477 33.3328 29.8477 27.3855 29.8477C26.3738 29.8477 26.3601 29.8477 26.2097 30.8057C26.0867 31.5208 25.9226 32.2224 25.7449 32.9106C25.5535 33.6662 25.6082 33.7336 26.3875 33.7336C27.7273 33.7336 29.0808 33.7336 30.4207 33.7336C31.0086 33.7336 31.5554 33.8416 32.034 34.1924C32.8406 34.786 33.1961 35.7575 32.9363 36.702C32.6765 37.66 31.8562 38.3616 30.8172 38.4291C29.8191 38.4965 28.8074 38.4561 27.8093 38.4561C26.6199 38.4561 25.4441 38.4561 24.2547 38.4561C23.5164 38.4561 22.532 39.2251 22.3406 39.9268C22.2859 40.1157 22.3679 40.1696 22.532 40.1831C22.7097 40.2101 22.9011 40.1966 23.0789 40.1966C34.2898 40.1966 45.5007 40.1966 56.698 40.1966C58.407 40.1966 59.8836 39.6164 61.2371 38.564C60.95 38.3886 60.6902 38.4561 60.4578 38.4561C57.2175 38.4561 53.991 38.4561 50.7507 38.4561C50.1765 38.4561 49.616 38.4156 49.1101 38.1052C48.2625 37.5925 47.8113 36.6345 47.989 35.6766C48.1668 34.7051 48.9461 33.936 49.9578 33.7606C50.2996 33.7066 50.6414 33.7201 50.9832 33.7201C55.1121 33.7201 59.2273 33.7201 63.3562 33.7201C64.45 33.7201 64.4773 33.6931 64.7644 32.6677C64.9422 31.9931 65.0925 31.3184 65.2019 30.6168C65.3113 29.9017 65.2566 29.8207 64.532 29.8207C63.5066 29.8072 62.4812 29.8207 61.4558 29.8207C60.8953 29.8207 60.3757 29.6993 59.9109 29.3755C59.1043 28.7953 58.7351 27.8103 58.9812 26.8793C59.241 25.8944 60.075 25.1928 61.155 25.1253C62.2625 25.0578 63.3836 25.1118 64.5047 25.0983C65.325 25.0983 65.3797 25.0308 65.2429 24.2618C65.1062 23.4927 64.8875 22.7236 64.6687 21.968C64.5047 21.4013 64.1765 21.1854 63.575 21.1854C61.4558 21.1989 59.3367 21.1989 57.2175 21.1989C56.6433 21.1989 56.0828 21.118 55.5906 20.7806C54.7429 20.214 54.3601 19.202 54.6062 18.244C54.866 17.2591 55.7 16.5574 56.78 16.49C57.9558 16.4225 59.1453 16.4765 60.3347 16.463C61.0457 16.463 61.0457 16.4495 60.7175 15.8288C60.28 15.0193 60.3484 14.2367 60.8132 13.4676C61.3191 12.8739 61.907 12.4152 62.7547 12.4422C63.575 12.4152 64.2039 12.7795 64.7371 13.3462C67.239 16.0042 68.8797 19.121 69.7136 22.6561C69.8777 23.4792 69.864 24.2887 70.0007 25.0713Z" fill="#382817"/>
<path d="M13.1523 27.9722C13.918 26.623 15.0117 26.1372 16.1328 26.596C17.0351 26.9603 17.623 27.8913 17.4726 28.8628C17.2539 30.2795 16.748 31.5883 15.7773 32.6947C14.2597 34.4083 12.1816 34.4083 10.6367 32.7082C8.14842 29.9692 8.14842 25.0174 10.6367 22.2783C11.1699 21.6982 11.7715 21.2529 12.5644 21.064C13.7676 20.7807 14.9433 21.4688 15.2578 22.6561C15.5449 23.7625 14.9023 24.9094 13.7402 25.2197C13.2617 25.3412 13.1387 25.5571 13.1523 25.9888C13.166 26.623 13.1523 27.2436 13.1523 27.9722Z" fill="#382817"/>
</svg>
