<?xml version="1.0" encoding="utf-8"?>
<!-- Generator: Adobe Illustrator 23.0.3, SVG Export Plug-In . SVG Version: 6.00 Build 0)  -->
<svg version="1.1" id="Слой_1" xmlns="http://www.w3.org/2000/svg" xmlns:xlink="http://www.w3.org/1999/xlink" x="0px" y="0px"
	 viewBox="0 0 117 84" style="enable-background:new 0 0 117 84;" xml:space="preserve">
<style type="text/css">
	.st0{fill:#382817;}
	.st1{fill:none;}
	.st2{fill:#FDB15D;}
</style>
<path class="st0" d="M10.4,68.9H5.9v11.4H4.6V68.9H0.2v-1.2h10.2V68.9z"/>
<path class="st0" d="M17,70.8c0.9,0,1.7,0.2,2.4,0.6c0.7,0.4,1.3,1,1.7,1.7c0.4,0.7,0.6,1.6,0.6,2.5c0,0.9-0.2,1.8-0.6,2.5
	c-0.4,0.7-1,1.3-1.7,1.7c-0.7,0.4-1.5,0.6-2.4,0.6c-0.8,0-1.5-0.2-2.1-0.5c-0.6-0.3-1.1-0.8-1.5-1.4v5.3h-1.3v-13h1.2v1.9
	c0.4-0.6,0.9-1.1,1.5-1.4C15.5,71,16.2,70.8,17,70.8z M16.9,79.3c0.7,0,1.3-0.1,1.8-0.4c0.5-0.3,1-0.8,1.3-1.3
	c0.3-0.6,0.5-1.2,0.5-1.9s-0.2-1.4-0.5-1.9c-0.3-0.6-0.7-1-1.3-1.3c-0.5-0.3-1.1-0.5-1.8-0.5c-0.7,0-1.3,0.2-1.8,0.5
	c-0.5,0.3-0.9,0.8-1.3,1.3c-0.3,0.6-0.4,1.2-0.4,1.9s0.1,1.4,0.4,1.9c0.3,0.6,0.7,1,1.3,1.3C15.7,79.2,16.3,79.3,16.9,79.3z"/>
<path class="st0" d="M24.5,70.9h1.3v7.5l6.3-7.5h1.1v9.5h-1.3v-7.5l-6.3,7.5h-1.2V70.9z"/>
<path class="st0" d="M44.9,70.9l-4.7,10.6c-0.4,0.9-0.8,1.5-1.3,1.9c-0.5,0.4-1.1,0.6-1.8,0.6c-0.5,0-0.9-0.1-1.3-0.2
	s-0.7-0.4-1-0.6l0.6-1c0.5,0.5,1.1,0.7,1.7,0.7c0.4,0,0.8-0.1,1.1-0.4c0.3-0.2,0.6-0.6,0.9-1.2l0.4-0.9l-4.2-9.4h1.3l3.6,8l3.6-8
	H44.9z"/>
<path class="st0" d="M57.5,70.9v9.5h-1.2v-7.5l-3.8,6.3h-0.6l-3.8-6.4v7.5h-1.2v-9.5h1.3l4,6.8l4.1-6.8H57.5z"/>
<path class="st0" d="M72.6,75.6c0,1.5-0.5,2.6-1.5,3.5c-1,0.8-2.3,1.3-4.1,1.4v3.4h-1.2v-3.4c-1.8-0.1-3.1-0.5-4.1-1.4
	c-1-0.9-1.4-2-1.4-3.5c0-1.5,0.5-2.6,1.4-3.4c1-0.8,2.3-1.3,4.1-1.3V67H67v3.8c1.8,0.1,3.2,0.5,4.1,1.4C72.1,73,72.6,74.2,72.6,75.6
	z M61.5,75.6c0,1.1,0.4,2,1.1,2.6c0.7,0.6,1.8,1,3.2,1.1v-7.4c-1.4,0.1-2.5,0.4-3.2,1.1C61.8,73.6,61.5,74.5,61.5,75.6z M67,79.3
	c1.4-0.1,2.5-0.4,3.2-1.1c0.7-0.6,1.1-1.5,1.1-2.7c0-1.1-0.4-2-1.1-2.6c-0.7-0.6-1.8-1-3.2-1V79.3z"/>
<path class="st0" d="M88,78v5h-2.7v-2.6h-8.9V83h-2.7l0-5h0.5c0.8,0,1.3-0.6,1.6-1.7c0.3-1.1,0.5-2.6,0.6-4.6l0.1-3.9h9.7V78H88z
	 M79,72c-0.1,1.5-0.2,2.8-0.4,3.8c-0.2,1-0.5,1.8-0.9,2.2h5.6v-7.8h-4.3L79,72z"/>
<path class="st0" d="M101.5,67.8v12.6h-2.9V70.1h-5.7v10.2H90V67.8H101.5z"/>
<path class="st0" d="M109.5,75.3h-2v5.1h-2.9V67.8h2.9v5.1h2.1l3.3-5.1h3.1l-4.1,6.1l4.2,6.5h-3.3L109.5,75.3z"/>
<path class="st1" d="M38.4,10h-0.5C38.1,10,38.2,10,38.4,10C38.4,10,38.4,10,38.4,10z"/>
<path class="st1" d="M29.9,42c-3.1-2.9-4.9-6.5-5.7-10.6c-0.1-0.6-0.1-1.2-0.2-1.9c0-1.3,0-2.7,0-4c0.1-1.7,0.4-3.3,1-4.9
	c1.3-3.7,3.4-6.8,6.7-9c1.9-1.1,4-1.6,6.2-1.6H24v35h13.1c-0.5,0-1,0-1.4-0.2C33.5,44.5,31.5,43.5,29.9,42z"/>
<path class="st2" d="M79.8,10c0.2,0,0.5,0,0.7,0c0,0,0,0,0,0H38.4c0,0,0,0,0,0C52.2,10,66,10,79.8,10z"/>
<path class="st2" d="M59.4,54.9c8.5,0,16-3.8,21-9.9H38.4C43.4,51,51,54.9,59.4,54.9z"/>
<path class="st2" d="M59.4,0.1c-8.5,0-16,3.8-21,9.9h42.1C75.5,4,67.9,0.1,59.4,0.1z"/>
<path class="st0" d="M83.2,12.8C83.2,12.8,83.2,12.8,83.2,12.8c0.1-1.6-0.8-2.7-2.5-2.8c-0.1,0-0.2,0-0.3,0c0.9,1,1.6,2.1,2.3,3.3
	c0.1-0.2,0.1-0.3,0.2-0.5C83.1,12.8,83.2,12.8,83.2,12.8z"/>
<path class="st0" d="M31.5,37.6c-1.5-1.8-2.4-4-2.8-6.3c-0.7-4.1-0.5-8.1,1.4-11.8c0.6-1.1,1.3-2.2,2.2-3c0.9-0.8,1.8-1.3,2.8-1.6
	c0.9-1.7,2-3.3,3.2-4.8c-0.2,0-0.3,0-0.5,0c-2.2,0-4.3,0.5-6.2,1.6c-3.3,2.2-5.4,5.3-6.7,9c-0.6,1.6-0.9,3.2-1,4.9c0,1.3,0,2.7,0,4
	c0.1,0.6,0.1,1.3,0.2,1.9c0.8,4.1,2.5,7.7,5.7,10.6c1.7,1.5,3.6,2.5,5.8,2.9c0.5,0.1,0.9,0.2,1.4,0.2h1.3c-1.2-1.5-2.3-3.1-3.2-4.8
	C33.8,39.8,32.6,38.9,31.5,37.6z"/>
<path class="st0" d="M87.3,42.7c3.2-2.5,5-5.7,6.1-9.5c0.3-1.2,0.5-2.4,0.6-3.6v-4.5c-0.1-0.8-0.1-1.6-0.3-2.4
	c-0.8-3.5-2.5-6.7-5-9.3c-0.5-0.6-1.2-0.9-2-0.9c-0.8,0-1.4,0.4-1.9,1c0,0,0.1,0.1,0.1,0.1c-0.7,1.2-0.5,2.2,0.6,3.2
	c-0.3,0-0.7,0-1,0c0.6,1.4,1.1,2.8,1.4,4.3c0.6,0,1.3,0,1.9,0c0.4,0,0.6,0.1,0.7,0.5c0.4,1.1,0.7,2.2,0.8,3.3c0.1,0.4,0,0.5-0.5,0.5
	c-0.8,0-1.5,0-2.3,0c0.1,0.7,0.1,1.4,0.1,2.2c0,0.7,0,1.5-0.1,2.2c0.8,0,1.5,0,2.3,0c0.5,0,0.5,0.2,0.5,0.6
	c-0.2,1.1-0.4,2.2-0.7,3.2C88.6,33.9,88.4,34,88,34c-0.6,0-1.3,0-1.9,0c-0.4,1.5-0.8,2.9-1.4,4.3c0.2,0,0.4,0,0.6,0
	c0.2,0,0.3,0,0.6,0c-0.6,0.6-1.2,1-1.9,1.4c-1,1.9-2.1,3.7-3.5,5.3h0.4c0.5,0,1,0,1.4-0.2C84.2,44.6,85.8,43.8,87.3,42.7z"/>
<path class="st0" d="M83.1,27.5c0,1.2,1,2.1,2.3,2.2c0.5,0,0.9,0,1.4,0c0.1-0.7,0.1-1.4,0.1-2.2c0-0.7,0-1.4-0.1-2.2
	c-0.5,0-0.9,0-1.4,0C84,25.3,83.1,26.3,83.1,27.5z"/>
<path class="st0" d="M80.9,40.5c-6.5,0-12.9,0-19.3,0c-5,0-10.1,0-15.1,0c-0.2,0-0.4,0-0.7,0c0.5-0.7,1-1.3,1.4-2
	c0.2-0.3,0.5-0.2,0.7-0.2c2.2,0,4.4,0,6.6,0c1.4,0,2.4-0.9,2.4-2.1c0-1.3-1-2.2-2.4-2.2c-1.7,0-3.4,0-5.2,0c0.4-1.4,0.7-2.7,0.9-4.1
	c0-0.4,0.4-0.2,0.6-0.2c2.9,0,5.7,0,8.6,0c3.5,0,6.9,0,10.4,0c1.4,0,2.4-0.9,2.4-2.2c0-1.3-1-2.1-2.4-2.1c-6.2,0-12.5,0-18.7,0
	c-0.6,0-0.9-0.1-0.9-0.7c-0.1-1.2-0.4-2.4-0.8-3.6c2.6,0,5.1,0,7.6,0c1.4,0,2.8,0,4.2,0c1.3,0,2.3-0.9,2.3-2.1c0-1.3-1-2.2-2.3-2.2
	c-4.3,0-8.7,0-13.1,0c-0.5,0-0.9-0.1-1.2-0.6c-0.3-0.5-0.7-1-1.1-1.5c0.2-0.2,0.5-0.1,0.7-0.1c11.3,0,22.7,0,34,0
	c1.4,0,2-0.3,2.4-1.3c-0.7-1.1-1.5-2.2-2.3-3.3c-0.2,0-0.5,0-0.7,0c-13.8,0-27.6,0-41.4,0c-1.2,1.5-2.3,3.1-3.2,4.8
	c2.2-0.7,4.7-0.2,6.6,1.6c2.1,1.8,3.1,4.3,3.6,6.9c0.3,1.4,0.5,2.8,0.4,4.3c-0.1,3.2-0.6,6.2-2.3,8.9c-1.2,1.9-2.8,3.3-5.1,3.8
	c-1.2,0.2-2.3,0.2-3.3-0.1c0.9,1.7,2,3.3,3.2,4.8h42.1c1.4-1.6,2.5-3.4,3.5-5.3C83,40.2,82,40.5,80.9,40.5z"/>
<path class="st0" d="M72.3,37c0.4,0.9,1.1,1.3,2.1,1.3c3.4,0,6.8,0,10.2,0c0.6-1.4,1.1-2.8,1.4-4.3c-3.9,0-7.8,0-11.7,0
	C72.7,34,71.6,35.6,72.3,37z"/>
<path class="st0" d="M78.7,18.9c0,1.3,1,2.2,2.5,2.2c1.6,0,3.2,0,4.9,0c-0.4-1.5-0.8-2.9-1.4-4.3c-1.2,0-2.3,0-3.5,0
	C79.7,16.7,78.7,17.6,78.7,18.9z"/>
<path class="st0" d="M34.6,32.7c1.5,1.7,3.6,1.7,5.1,0c1-1.1,1.5-2.4,1.7-3.8c0.2-1-0.4-1.9-1.3-2.3c-1.1-0.5-2.2,0-3,1.4
	c0-0.7,0-1.3,0-2c0-0.4,0.1-0.6,0.6-0.8c1.2-0.3,1.8-1.5,1.5-2.6c-0.3-1.2-1.5-1.9-2.7-1.6c-0.8,0.2-1.4,0.6-1.9,1.2
	C32.1,25,32.1,30,34.6,32.7z"/>
</svg>
