<svg width="44" height="30" viewBox="0 0 44 30" fill="none" xmlns="http://www.w3.org/2000/svg">
<path d="M12.5696 27.0097C12.5696 28.6783 11.1555 30.0093 9.40755 29.9999C7.66941 29.9906 6.28479 28.6501 6.28479 26.9722C6.28479 25.3506 7.71851 24.0008 9.42719 24.0008C11.1751 24.0102 12.5794 25.3506 12.5696 27.0097Z" fill="#382817"/>
<path d="M37.7088 27.0097C37.6989 28.6783 36.3045 29.9999 34.5467 29.9999C32.8184 29.9999 31.4043 28.6314 31.424 26.9722C31.4338 25.3131 32.8675 23.982 34.6155 24.0008C36.3241 24.0102 37.7186 25.3693 37.7088 27.0097Z" fill="#382817"/>
<path d="M43.9935 17.861C43.9837 16.5112 43.0017 15.3676 41.6171 15.077C40.8708 14.9177 40.1147 15.0208 39.3683 15.0114C38.1703 14.9927 37.2669 14.299 37.0312 13.1929C36.3438 9.90277 35.6662 6.62199 34.9788 3.33182C34.5565 1.30711 32.9362 0.0135398 30.7955 0.00416608C28.2423 -0.0052076 25.6891 0.00416608 23.1359 0.00416608C20.6613 0.00416608 18.8544 1.72892 18.8544 4.08172C18.8544 7.56873 18.8446 11.0464 18.8642 14.5334C18.8642 14.9271 18.7464 15.0114 18.3536 15.0114C15.7316 14.9927 13.1195 15.0021 10.4976 15.0021C7.91491 15.0021 5.32243 15.0021 2.73978 15.0021C1.09984 15.0021 0.00981999 16.0519 0 17.6267C0 19.642 0 21.6574 0 23.6727C0.00981999 25.6693 1.44354 27.0191 3.52538 27.0097C3.83962 27.0097 3.91818 26.9348 3.94764 26.6254C4.14404 23.9071 6.54011 21.7605 9.36827 21.7511C12.2848 21.7417 14.7005 23.8414 14.9067 26.6067C14.9362 26.9348 15.0246 27.0097 15.3585 27.0097C19.7971 27.0004 24.2259 27.0004 28.6645 27.0097C28.9788 27.0097 29.0573 26.9348 29.0868 26.6254C29.293 23.8883 31.6891 21.7511 34.5074 21.7511C37.4338 21.7511 39.8004 23.8133 40.0459 26.6067C40.0656 26.8785 40.1048 27.0191 40.4485 27.0097C41.1065 26.9816 41.7546 27.0097 42.4125 27.0004C43.3553 26.991 43.9837 26.3911 43.9837 25.5006C44.0034 22.9509 44.0034 20.4013 43.9935 17.861ZM32.8184 15.0021C31.8659 15.0114 30.9231 15.0021 29.9706 15.0021C29.0573 15.0021 28.1343 15.0114 27.221 15.0021C26.023 14.9927 25.149 14.1678 25.1392 13.0242C25.1294 11.3369 25.1294 9.64968 25.1392 7.96242C25.149 6.84695 26.023 6.0127 27.2014 6.0127C28.5565 6.00332 29.9215 6.00332 31.2767 6.0127C32.0132 6.0127 32.3765 6.29391 32.5336 7.00631C33.0148 9.23724 33.4862 11.4682 33.9477 13.6991C34.1048 14.4115 33.604 14.9927 32.8184 15.0021Z" fill="#382817"/>
</svg>
