<svg width="22" height="20" viewBox="0 0 22 20" fill="none" xmlns="http://www.w3.org/2000/svg">
<path d="M21.9978 18.0831C21.9978 18.5623 21.9978 19.0363 21.9978 19.5155C21.9978 19.8176 21.8407 20.0051 21.6002 19.9999C21.3694 19.9947 21.2172 19.8124 21.2123 19.5259C21.2074 19.2759 21.2123 19.0206 21.2074 18.7706C21.2025 18.4633 21.0847 18.3383 20.7852 18.3331C20.2796 18.3331 19.769 18.3331 19.2634 18.3331C18.9492 18.3331 18.851 18.2289 18.851 17.9008C18.851 17.3538 18.851 16.8069 18.851 16.26C18.851 15.9475 18.9541 15.8329 19.2437 15.8329C19.8967 15.8329 20.5545 15.8277 21.2074 15.8329C21.7082 15.8329 21.9929 16.1454 21.9978 16.6767C22.0027 17.1455 21.9978 17.6143 21.9978 18.0831Z" fill="#382817"/>
<path d="M19.6414 6.65502C19.6414 7.00401 19.6414 7.34779 19.6414 7.69678C19.6414 7.92075 19.5628 8.10306 19.3861 8.22807C19.0817 8.44163 18.8461 8.33746 18.797 7.95722C18.7037 7.15507 18.5319 6.37375 18.3011 5.60285C18.1833 5.22261 18.3502 4.99863 18.7283 4.99342C18.7381 4.99342 18.743 4.99342 18.7528 4.99342C19.5088 4.98822 19.6414 5.13406 19.6414 5.9258C19.6414 6.17061 19.6414 6.41542 19.6414 6.65502Z" fill="#382817"/>
<path d="M17.2849 9.32191C17.2849 8.67082 17.2408 8.01972 17.118 7.38425C16.1853 2.46717 11.7669 -0.731014 7.1326 0.14406C3.03337 0.914958 0.0190915 4.69132 0.00436378 9.08752C-0.00545473 11.5773 0.00436378 14.0671 0.00436378 16.5621C0.00436378 17.5934 0.701478 18.3279 1.67351 18.3331C3.99559 18.3331 6.31766 18.3331 8.64465 18.3331C10.9667 18.3331 13.2888 18.3331 15.6158 18.3331C16.5829 18.3331 17.2898 17.5882 17.2898 16.5621C17.2849 14.1452 17.28 11.7336 17.2849 9.32191ZM2.64063 9.4313C2.52772 9.54589 2.39517 9.59798 2.23807 9.53547C2.00734 9.44693 1.94843 9.2542 1.96806 9.0146C1.95825 8.86875 1.96316 8.72291 2.06625 8.6031C2.14971 8.50935 2.2528 8.46768 2.37062 8.47288C2.53263 8.47809 2.64554 8.56143 2.71427 8.7177C2.80264 8.91563 2.76336 9.30629 2.64063 9.4313ZM3.3672 6.38417C3.32793 6.46751 3.28865 6.55606 3.24447 6.6394C3.12665 6.85817 2.92046 6.9363 2.72409 6.83733C2.53263 6.74357 2.44917 6.5196 2.53754 6.2852C2.73391 5.78516 2.98919 5.32158 3.29847 4.89446C4.41778 3.35266 5.89547 2.44113 7.70698 2.14423C8.00645 2.09735 8.31082 2.08693 8.61028 2.07651C8.85575 2.0713 9.02757 2.2484 9.02757 2.4828C9.03248 2.73803 8.86066 2.8995 8.57101 2.90471C7.64316 2.92554 6.7595 3.14952 5.93474 3.60789C4.8007 4.24336 3.94649 5.17052 3.3672 6.38417ZM8.57592 13.3275C6.46494 13.3222 4.71234 11.4158 4.71725 9.1344C4.72707 6.8217 6.50421 4.98822 8.7232 4.99343C10.8244 5.00384 12.577 6.91025 12.5671 9.17607C12.5622 11.494 10.7949 13.3327 8.57592 13.3275Z" fill="#382817"/>
<path d="M7.07369 9.12919C7.0786 8.20724 7.78553 7.47801 8.66429 7.48322C9.52831 7.49364 10.2156 8.22807 10.2107 9.15002C10.2107 10.0668 9.49395 10.822 8.62992 10.8168C7.76589 10.8116 7.06878 10.0564 7.07369 9.12919Z" fill="#382817"/>
</svg>
