<svg width="44" height="22" viewBox="0 0 44 22" fill="none" xmlns="http://www.w3.org/2000/svg">
<path d="M34.204 0.0785341C37.0817 0.0785341 39.9691 0.0981676 42.8467 0.0687174C43.7798 0.0589006 44.1235 0.883509 43.8682 1.38416C43.7208 1.66885 43.5146 1.84555 43.2101 1.92409C42.6896 2.07134 42.1691 2.20877 41.6584 2.37566C39.9004 2.9254 39.3602 4.96728 40.637 6.29255C41.6289 7.32331 42.6012 8.35407 43.22 9.6597C45.5378 14.6073 42.4539 20.7232 37.0915 21.803C31.4344 22.9516 25.8854 18.9464 25.2077 13.1937C24.972 11.1911 25.139 9.17867 25.1193 7.16624C25.0997 4.93783 25.1193 2.71924 25.1095 0.490838C25.1095 0.117801 25.1881 0 25.5809 0C28.4586 0.0196335 31.346 0.00981676 34.2237 0.00981676C34.204 0.0392671 34.204 0.0589006 34.204 0.0785341Z" fill="#382817"/>
<path d="M23.6363 7.49019C23.6363 9.60079 23.6363 11.7114 23.6363 13.822C23.6363 14.7448 23.1551 15.0785 22.2712 14.784C18.1561 13.4097 14.041 12.0255 9.92584 10.6414C8.95354 10.3174 8.46247 9.64988 8.43301 8.63875C8.42319 8.0792 8.42319 7.52946 8.43301 6.9699C8.44283 6.48888 8.22676 6.25328 7.75534 6.19438C5.95805 5.94896 4.16076 5.68391 2.37328 5.42867C0.959022 5.22252 -0.0918543 3.98561 0.00635839 2.63089C0.104571 1.13874 1.24384 0.0196335 2.72685 0.0196335C9.35621 0.00981676 15.9757 0.0196335 22.6051 0.0196335C23.3417 0.0196335 23.6363 0.323953 23.6363 1.07003C23.6363 3.21008 23.6363 5.35014 23.6363 7.49019Z" fill="#382817"/>
</svg>
