<svg width="19" height="17" viewBox="0 0 19 17" fill="none" xmlns="http://www.w3.org/2000/svg">
<path d="M18.9916 12.4642C18.9154 14.1487 18.2801 15.4091 17.001 16.3543C16.2599 16.9037 15.4086 17.0734 14.4895 16.9724C13.1173 16.8189 11.851 16.3301 10.5635 15.8938C7.84442 14.9687 5.64209 13.3367 3.71505 11.3331C2.68589 10.2585 1.73719 9.13144 1.00026 7.85895C0.356499 6.75612 -0.0500847 5.58058 0.0049736 4.30001C0.0685024 2.8215 0.682614 1.58133 1.84307 0.599691C2.77483 -0.188042 4.1767 -0.107249 5.02375 0.312875C5.39645 0.498699 5.64209 0.793594 5.80303 1.15716C6.23503 2.14284 6.66279 3.12851 7.11596 4.10611C7.30231 4.50604 7.38278 4.89788 7.20914 5.31397C7.06514 5.64926 6.88302 5.96839 6.62891 6.24713C6.48491 6.40467 6.34091 6.56222 6.20538 6.72381C5.98938 6.9783 5.97244 7.22876 6.16303 7.50346C7.37855 9.28495 8.97523 10.6463 11.0336 11.4906C11.4402 11.6562 11.6773 11.6077 11.9611 11.2765C12.3084 10.8685 12.6557 10.4605 12.9987 10.0525C13.3714 9.61216 13.8881 9.47077 14.5022 9.67275C15.2773 9.92725 15.993 10.307 16.7342 10.6342C17.2001 10.8402 17.666 11.0503 18.1276 11.2644C18.7121 11.5431 19.0594 11.9552 18.9916 12.4642Z" fill="#FDB15D"/>
</svg>
