<svg width="15" height="27" viewBox="0 0 15 27" fill="none" xmlns="http://www.w3.org/2000/svg">
<path d="M14.7094 1.72808C14.9796 1.42593 15.0641 1.06713 14.9515 0.664264C14.8389 0.273989 14.5855 0.0599665 14.2308 0.0096084C13.8929 -0.0407498 13.6114 0.110325 13.3749 0.381C12.2151 1.68402 11.0552 2.98074 9.89529 4.27746C9.5462 4.66774 9.41669 4.68033 9.00567 4.34041C8.71851 4.10121 8.43136 3.8683 8.1442 3.6291C7.52485 3.12552 6.82666 3.11922 6.21857 3.6291C4.64203 4.94471 3.05986 6.26031 1.48895 7.58851C0.492356 8.43201 0.00250244 9.55877 0.00250244 10.9562C0.00813294 12.9391 0.00250244 14.9219 0.00250244 16.9048C0.00250244 18.9317 -0.00312805 20.9523 0.00250244 22.9792C0.00813294 25.2076 1.61282 26.9953 3.60602 26.9953C5.99898 27.0016 8.39194 27.0016 10.7849 26.9953C12.8119 26.9953 14.4166 25.2076 14.4166 22.9477C14.4222 18.9191 14.4222 14.8904 14.4166 10.8618C14.4166 9.81056 14.0844 8.89153 13.4369 8.12986C12.8626 7.46261 12.1475 6.98421 11.4943 6.41768C11.0326 6.01482 11.0158 5.85115 11.4212 5.39793C12.5191 4.17045 13.6114 2.94927 14.7094 1.72808ZM7.86831 5.86374C8.13857 5.94557 8.18925 6.13442 7.99218 6.36732C7.53048 6.88979 7.06315 7.40596 6.60144 7.92843C6.33681 8.23058 6.24672 8.58938 6.37059 8.99854C6.47757 9.37622 6.72532 9.58395 7.06315 9.65319C7.38408 9.72243 7.64872 9.59025 7.87957 9.33845C8.3469 8.82228 8.8086 8.29982 9.27593 7.78365C9.55183 7.4752 9.71511 7.51927 9.81083 7.94731C10.0867 9.18109 9.79957 10.2449 8.93247 11.0569C8.07101 11.8627 7.08004 12.0011 6.06655 11.4724C5.04743 10.9436 4.55757 9.98682 4.51253 9.05519C4.50127 6.89608 6.28051 5.37275 7.86831 5.86374ZM9.12954 20.0333C8.97188 20.071 8.81423 20.0899 8.65658 20.0899C7.87394 20.0899 7.0913 20.0899 6.31429 20.0899C6.23546 20.0899 6.21294 20.1088 6.21857 20.1969C6.2242 20.3228 6.2242 20.4424 6.21857 20.5683C6.21294 20.6564 6.25235 20.6564 6.31429 20.6564C6.92801 20.6564 7.54737 20.6564 8.16109 20.6564C8.3469 20.6564 8.53271 20.6564 8.71851 20.6564C9.05634 20.6564 9.32661 20.9775 9.32661 21.3615C9.32661 21.7391 9.05634 22.0476 8.72414 22.0476C7.92461 22.0476 7.13071 22.0476 6.33118 22.0476C6.24672 22.0476 6.2242 22.0665 6.2242 22.1672C6.22983 22.5512 6.21857 22.9415 6.22983 23.3254C6.24109 23.7157 5.92015 24.0179 5.58796 24.0179C5.25013 24.0179 4.97986 23.7094 4.97986 23.3254C4.97986 22.9352 4.97986 22.5386 4.97986 22.1483C4.97986 22.0728 4.96297 22.0476 4.8954 22.0539C4.76027 22.0602 4.63077 22.0602 4.49564 22.0539C4.16907 22.0476 3.90444 21.7329 3.91007 21.3615C3.9157 20.9838 4.18596 20.669 4.5069 20.6627C4.64203 20.6627 4.78279 20.6627 4.91793 20.6627C4.9686 20.6627 4.98549 20.6502 4.98549 20.5872C4.97986 20.4487 4.97986 20.3102 4.98549 20.1718C4.98549 20.1088 4.9686 20.0899 4.9123 20.0899C4.77716 20.0962 4.64766 20.0899 4.51253 20.0899C4.18033 20.0836 3.9157 19.7815 3.9157 19.3975C3.9157 19.0198 4.18033 18.6988 4.5069 18.6925C4.6364 18.6862 4.7659 18.6862 4.8954 18.6925C4.97986 18.6988 4.98549 18.661 4.98549 18.5855C4.98549 17.4587 4.98549 16.3382 4.98549 15.2115C4.98549 14.859 5.14878 14.6072 5.42467 14.5253C5.48661 14.5065 5.55417 14.5065 5.61611 14.5065C6.13974 14.5065 6.66338 14.5065 7.18702 14.5065V14.5128C7.71628 14.5128 8.23992 14.4939 8.76919 14.519C9.87276 14.5631 10.8525 15.5136 11.0721 16.7222C11.3367 18.2581 10.4978 19.6933 9.12954 20.0333Z" fill="#382817"/>
<path d="M8.63405 15.8976C7.85705 15.8913 7.08004 15.8976 6.30303 15.8913C6.22983 15.8913 6.21857 15.9165 6.21857 15.992C6.21857 16.8607 6.21857 17.7294 6.21857 18.5981C6.21857 18.6736 6.24109 18.6925 6.30866 18.6925C6.71406 18.6862 7.11382 18.6925 7.51922 18.6925C7.87957 18.6925 8.23429 18.6925 8.59464 18.6925C8.75229 18.6925 8.90432 18.6736 9.05634 18.6232C9.72074 18.3966 10.0867 17.6853 9.91218 16.9425C9.75452 16.3319 9.24215 15.9039 8.63405 15.8976Z" fill="#382817"/>
</svg>
