<svg width="30" height="30" viewBox="0 0 30 30" fill="none" xmlns="http://www.w3.org/2000/svg">
<path d="M14.0625 0C14.6895 0 15.3105 0 15.9375 0C16.0137 0.0175781 16.0898 0.0351562 16.1602 0.046875C17.0918 0.205078 18.0527 0.269531 18.9434 0.544922C24.8789 2.36133 28.4941 6.32812 29.7656 12.416C29.877 12.9551 29.9238 13.5117 30 14.0625C30 14.6895 30 15.3105 30 15.9375C29.9824 16.0254 29.9531 16.1074 29.9473 16.1953C29.8418 17.6426 29.5488 19.0605 28.9863 20.3965C26.8418 25.5469 23.0391 28.6934 17.5547 29.7715C17.0215 29.877 16.4766 29.9238 15.9375 30C15.3105 30 14.6895 30 14.0625 30C13.9863 29.9824 13.916 29.9648 13.8398 29.9531C12.9082 29.7949 11.959 29.7012 11.0508 29.4609C5.49023 27.9961 1.17188 23.2324 0.228516 17.584C0.134766 17.0391 0.0761719 16.4883 0 15.9375C0 15.3105 0 14.6895 0 14.0625C0.0175781 13.9746 0.0351562 13.8926 0.0527344 13.8047C0.210938 12.8965 0.298828 11.9648 0.533203 11.0742C2.03906 5.44922 6.69141 1.22461 12.4453 0.222656C12.9785 0.128906 13.5234 0.0761719 14.0625 0ZM8.88281 22.0488C9.2168 22.0605 9.44531 21.8672 9.66797 21.6504C13.6582 17.6602 17.6543 13.6758 21.6504 9.68555C21.7207 9.61523 21.791 9.55078 21.8555 9.47461C22.2891 8.94727 22.0488 8.16211 21.3926 7.96875C20.9883 7.85156 20.6719 7.99805 20.3906 8.2793C16.3594 12.3047 12.3223 16.3418 8.29102 20.373C8.22656 20.4375 8.16211 20.4961 8.11523 20.5723C7.9043 20.8828 7.88672 21.2168 8.05664 21.5449C8.22656 21.8672 8.50781 22.043 8.88281 22.0488ZM15.7031 19.3242C15.7031 21.3281 17.332 22.9453 19.3418 22.9453C21.3164 22.9453 22.9395 21.3223 22.9453 19.3477C22.9453 17.3379 21.3164 15.7148 19.3125 15.7266C17.3379 15.7324 15.7031 17.3613 15.7031 19.3242ZM10.6172 14.2441C12.6035 14.2559 14.2266 12.6621 14.2441 10.6816C14.2617 8.67773 12.6562 7.03711 10.6758 7.03125C8.66602 7.02539 7.05469 8.625 7.03711 10.6465C7.01367 12.6328 8.60742 14.2324 10.6172 14.2441Z" fill="#382817"/>
<path d="M19.3301 21.0703C18.375 21.0645 17.6016 20.291 17.5957 19.3359C17.5957 18.375 18.3926 17.5781 19.3535 17.5957C20.3086 17.6133 21.082 18.3926 21.0703 19.3418C21.0645 20.3027 20.2852 21.0762 19.3301 21.0703Z" fill="#382817"/>
<path d="M12.3691 10.6641C12.3691 11.625 11.6016 12.3984 10.6465 12.3984C9.69141 12.4043 8.91211 11.6309 8.90625 10.6758C8.90039 9.70313 9.67969 8.91797 10.6465 8.92383C11.6074 8.92969 12.3691 9.70312 12.3691 10.6641Z" fill="#382817"/>
</svg>
