<svg width="22" height="22" viewBox="0 0 22 22" fill="none" xmlns="http://www.w3.org/2000/svg">
<path d="M11.0172 7.20274e-06C4.95156 -0.00686779 0.013783 4.90875 2.87848e-05 10.9656C-0.0137255 17.05 4.90342 21.9862 10.9828 22C17.0484 22.0137 21.9931 17.0912 22 11.0344C22.0137 4.94312 17.0966 0.00688219 11.0172 7.20274e-06ZM11.2029 16.9469C10.7077 16.9469 10.2813 16.4931 10.2813 15.9775C10.2813 15.4687 10.6871 15.0494 11.196 15.0425C11.7118 15.0356 12.1382 15.4481 12.1382 15.9706C12.145 16.5206 11.7255 16.9537 11.2029 16.9469ZM13.1216 12.7187C12.5783 12.9937 12.2138 13.3719 12.145 13.9837C12.1313 14.1075 12.0763 14.1212 11.98 14.1212C11.7187 14.1144 11.4573 14.1212 11.196 14.1212C10.9828 14.1212 10.7696 14.1006 10.5564 14.1281C10.2813 14.1625 10.2607 14.0319 10.2882 13.8119C10.4464 12.6156 11.0378 11.715 12.1175 11.1581C12.7296 10.8419 13.1972 10.4087 13.4104 9.74874C13.7062 8.82062 13.4861 7.99562 12.7846 7.33562C12.0763 6.66875 11.2235 6.49 10.3157 6.875C9.41482 7.25312 8.9403 7.96812 8.88528 8.95124C8.8509 9.54937 8.48641 9.94812 7.94312 9.94124C7.4067 9.93437 7.02158 9.51499 7.02846 8.92374C7.03533 8.52499 7.1041 8.13312 7.22102 7.755C7.80557 5.90562 9.62801 4.68187 11.5467 4.84C13.4792 4.99812 15.0609 6.47625 15.3429 8.40812C15.6042 10.175 14.724 11.9075 13.1216 12.7187Z" fill="#FDB15D"/>
</svg>
