<svg width="18" height="18" viewBox="0 0 18 18" fill="none" xmlns="http://www.w3.org/2000/svg">
<path d="M9.03615 14.417C6.02953 14.417 4.65528 12.893 4.65528 11.776C4.65528 11.51 4.76546 11.255 4.95931 11.071C5.05497 10.9805 5.1687 10.9103 5.29335 10.8648C5.418 10.8194 5.55089 10.7997 5.68367 10.807C6.97018 10.807 6.63351 12.727 9.03615 12.727C10.2635 12.727 10.9848 11.991 10.9848 11.302C10.9848 10.887 10.7461 10.413 9.936 10.223L7.25381 9.55C5.1001 9.005 4.72465 7.81301 4.72465 6.70801C4.72465 4.41501 6.83449 3.58401 8.84231 3.58401C10.693 3.58401 12.8926 4.60001 12.8926 5.97501C12.8926 6.56701 12.3948 6.88501 11.8163 6.88501C10.7165 6.88501 10.9011 5.34901 8.69132 5.34901C7.59253 5.34901 7.01303 5.86201 7.01303 6.57901C7.01303 7.29601 7.86901 7.53901 8.61888 7.702L10.5992 8.14701C12.7682 8.63301 13.3446 9.898 13.3446 11.11C13.3446 12.975 11.8928 14.415 9.03309 14.415L9.03615 14.417ZM17.3368 10.473C17.4245 9.983 17.4674 9.48701 17.4674 8.991C17.4743 7.76239 17.2086 6.54699 16.6885 5.42908C16.1684 4.31118 15.4065 3.31752 14.4556 2.51701C13.5138 1.72391 12.4038 1.14595 11.2061 0.824958C10.0084 0.503965 8.75281 0.447965 7.53029 0.661011C6.77353 0.226396 5.9119 -0.00182933 5.0348 1.10428e-05C4.14691 0.00780743 3.27678 0.244739 2.512 0.686953C1.74723 1.12917 1.11481 1.76106 0.678411 2.51901C0.236361 3.28244 0.00270415 4.14473 2.33312e-05 5.02254C-0.00265749 5.90035 0.225729 6.764 0.663108 7.53001C0.417399 8.86425 0.50049 10.2367 0.90546 11.5331C1.31043 12.8295 2.02556 14.0123 2.99128 14.983C3.94777 15.9438 5.12955 16.6607 6.43356 17.0712C7.73757 17.4817 9.12423 17.5733 10.4726 17.338C11.2285 17.7722 12.0889 18.0008 12.9651 18C13.8527 17.9921 14.7225 17.7553 15.4871 17.3132C16.2517 16.8712 16.884 16.2396 17.3204 15.482C17.763 14.7192 17.9971 13.8572 18 12.9796C18.0028 12.102 17.7744 11.2386 17.3368 10.473Z" fill="#FDB15D"/>
</svg>
