<svg width="39" height="35" viewBox="0 0 39 35" fill="none" xmlns="http://www.w3.org/2000/svg">
<path d="M37.9697 0.153428C37.4205 -0.105861 36.8974 -0.00399777 36.3656 0.21825C24.5872 5.11696 12.8 10.0064 1.02162 14.8959C0.271849 15.2107 -0.024573 15.6182 0.00158189 16.3127C0.0277368 16.9702 0.376468 17.3776 1.10881 17.6091C3.21863 18.2851 5.32846 18.9704 7.43829 19.6186C9.18194 20.1557 10.3066 21.2947 10.8384 23.1653C11.6405 26.0082 12.5036 28.8326 13.3493 31.6663C13.7852 33.1202 15.1104 33.4535 16.1217 32.3701C17.2376 31.1755 18.3362 29.9716 19.4521 28.7678C20.3065 27.851 21.0998 27.7862 22.0763 28.5548C24.4913 30.4254 26.9062 32.3052 29.3212 34.1758C29.731 34.4907 30.132 34.8148 30.6115 35C30.8469 35 31.0736 35 31.309 35C32.3029 34.7037 32.7824 33.9628 32.9567 32.9164C33.2096 31.4163 33.5321 29.9253 33.8286 28.4344C35.5373 19.7205 37.2461 11.0065 38.9549 2.29256C39.138 1.35727 38.7544 0.52384 37.9697 0.153428ZM31.9018 7.14497C27.2114 11.5436 22.5209 15.9515 17.8218 20.3502C16.9848 21.1373 16.453 22.0911 16.3222 23.2857C16.2612 23.8506 15.9212 24.2025 15.4242 24.258C14.9447 24.3136 14.5088 24.0358 14.3693 23.4987C14.0729 22.406 13.637 21.3503 13.576 20.2946C13.6196 18.7944 14.2298 17.7573 15.3283 17.0257C19.2952 14.4051 23.262 11.7844 27.2375 9.16372C28.6325 8.24695 30.0274 7.33017 31.4136 6.40414C31.649 6.24672 31.9105 6.04299 32.1285 6.39488C32.3377 6.71899 32.1285 6.94124 31.9018 7.14497Z" fill="#382817"/>
</svg>
