<svg width="28" height="34" viewBox="0 0 28 34" fill="none" xmlns="http://www.w3.org/2000/svg">
<path d="M13.9905 33.9984C7.24313 33.9604 1.55231 29.0515 0.255299 22.1319C-1.20202 14.393 3.731 6.72987 11.1925 5.15932C14.7192 4.41577 18.0418 5.02275 21.1459 6.89679C22.1952 7.53412 22.3992 8.94534 21.5467 9.84064C19.6959 11.7906 17.8305 13.7329 15.9579 15.66C15.3239 16.3125 14.5589 16.7298 13.7063 17.003C12.7299 17.3141 12.0085 17.921 11.7389 18.9832C11.5058 19.8861 11.9138 20.8725 12.7226 21.4415C13.4732 21.9726 14.4496 21.9726 15.1782 21.4187C15.6956 21.0242 16.089 20.5159 16.2712 19.8558C16.5699 18.7632 17.131 17.8452 17.9107 17.0409C19.6376 15.2655 21.3499 13.4673 23.0696 11.6843C24.0824 10.6297 25.3867 10.8118 26.1008 12.1016C30.9245 20.8042 26.1226 31.7677 16.6282 33.7252C15.7611 33.9225 14.8795 34.0135 13.9905 33.9984Z" fill="#382817"/>
<path d="M14.0124 2.42791C12.8757 2.42791 11.7317 2.42791 10.595 2.42791C9.86629 2.42791 9.34166 1.90439 9.34895 1.19878C9.35623 0.508344 9.88087 0 10.5877 0C12.8684 0 15.1491 0 17.4298 0C18.1584 0 18.6831 0.523519 18.6758 1.22913C18.6685 1.91957 18.1511 2.42791 17.437 2.42791C16.2931 2.4355 15.1491 2.42791 14.0124 2.42791Z" fill="#382817"/>
</svg>
