<svg width="18" height="18" viewBox="0 0 18 18" fill="none" xmlns="http://www.w3.org/2000/svg">
<path d="M8.52625 0.0021024C7.00429 0.0195425 3.73219 0.256954 1.90203 1.85076C0.540683 3.1312 0.0653653 5.0243 0.00965474 7.36522C-0.0365732 9.6977 -0.0922838 14.078 4.35567 15.2707V17.0873C4.35567 17.0873 4.32781 17.8141 4.83395 17.9632C5.45743 18.1505 5.81244 17.5913 6.40511 16.9905L7.51043 15.804C10.5538 16.0442 12.8847 15.4906 13.1532 15.4085C13.7707 15.2212 17.2491 14.7992 17.8175 10.4184C18.4007 5.89406 17.5336 3.04344 15.9684 1.75399H15.9589C15.4865 1.34106 13.5882 0.0279813 9.3471 0.0133541C9.3471 0.0133541 9.03239 -0.00633639 8.52625 0.0021024ZM8.57841 1.27411C9.01046 1.2713 9.27301 1.28874 9.27301 1.28874C12.8628 1.29774 14.5762 2.32333 14.9804 2.66876C16.2985 3.74105 16.9777 6.31094 16.4804 10.0881C16.0081 13.7506 13.187 13.9824 12.6648 14.1404C12.4426 14.2079 10.3896 14.6884 7.8032 14.5303C7.8032 14.5303 5.87704 16.7368 5.27489 17.305C5.17947 17.4046 5.06805 17.4338 4.99693 17.4192C4.89499 17.3956 4.86418 17.2757 4.8701 17.1115L4.88848 14.0966C1.11616 13.1064 1.33841 9.37028 1.37871 7.41867C1.42494 5.46706 1.81076 3.87044 2.95935 2.78915C4.50561 1.46201 7.28403 1.28311 8.57722 1.27411H8.57841ZM8.86289 3.22515C8.83184 3.22486 8.80104 3.2304 8.77226 3.24145C8.74347 3.25251 8.71728 3.26886 8.69519 3.28957C8.6731 3.31028 8.65554 3.33494 8.64353 3.36212C8.63153 3.3893 8.62531 3.41847 8.62523 3.44794C8.62523 3.57396 8.73309 3.67354 8.86289 3.67354C9.45052 3.66293 10.0345 3.76286 10.5813 3.96756C11.128 4.17226 11.6267 4.47768 12.0485 4.86622C12.9096 5.66003 13.3292 6.72669 13.3452 8.12134C13.3452 8.24454 13.4501 8.34693 13.5829 8.34693V8.33793C13.6454 8.33808 13.7055 8.31475 13.7501 8.27302C13.7946 8.23128 13.8199 8.17454 13.8205 8.11515C13.8493 7.4587 13.7372 6.80354 13.4909 6.18951C13.2447 5.57548 12.8694 5.01539 12.3881 4.54329C11.4499 3.67297 10.261 3.22459 8.86289 3.22459V3.22515ZM5.73895 3.74105C5.57119 3.71778 5.4001 3.74974 5.25415 3.83162H5.2417C4.90285 4.02017 4.5976 4.25847 4.3373 4.53767C4.12097 4.77508 4.00363 5.0153 3.97281 5.24652C3.95443 5.38436 3.96688 5.52219 4.01015 5.65384L4.02555 5.66284C4.26914 6.34244 4.5874 6.99617 4.97619 7.61163C5.47701 8.4763 6.09334 9.27597 6.8099 9.99081L6.83123 10.0201L6.86501 10.0437L6.88635 10.0673L6.91124 10.0876C7.66703 10.7698 8.51149 11.3575 9.42414 11.8367C10.4672 12.3756 11.1002 12.6305 11.4801 12.7362V12.7419C11.5915 12.7739 11.6929 12.7885 11.7948 12.7885C12.1186 12.766 12.4251 12.6413 12.6654 12.4341C12.9582 12.187 13.2065 11.896 13.4003 11.5728V11.5672C13.5823 11.242 13.5206 10.9343 13.2581 10.7261C12.7323 10.2898 12.1637 9.90231 11.5601 9.56887C11.1559 9.36071 10.7452 9.48673 10.5787 9.6977L10.2236 10.1225C10.0417 10.3334 9.71099 10.3042 9.71099 10.3042L9.70151 10.3098C7.23543 9.71177 6.57757 7.34159 6.57757 7.34159C6.57757 7.34159 6.54675 7.01923 6.77493 6.85496L7.21943 6.51516C7.43219 6.35088 7.58036 5.96157 7.35218 5.57733C7.00334 5.00357 6.59601 4.46372 6.13604 3.96552C6.03548 3.84807 5.8944 3.76816 5.73776 3.73992L5.73895 3.74105ZM9.27301 4.4094C8.95831 4.4094 8.95831 4.86059 9.27598 4.86059C9.6673 4.86662 10.0535 4.94579 10.4126 5.09358C10.7717 5.24137 11.0966 5.45488 11.3687 5.72191C11.6169 5.98183 11.8076 6.2864 11.9296 6.61757C12.0516 6.94874 12.1023 7.29978 12.0787 7.64989C12.0798 7.70914 12.1053 7.76563 12.1497 7.80727C12.1941 7.84891 12.2539 7.87239 12.3163 7.87267L12.3258 7.88449C12.3887 7.88405 12.4489 7.86014 12.4934 7.81792C12.5378 7.77571 12.563 7.71859 12.5635 7.65889C12.5848 6.76494 12.292 6.01502 11.7178 5.41418C11.1405 4.81333 10.3351 4.47635 9.30679 4.4094H9.27301ZM9.66239 5.62233C9.33821 5.61333 9.32576 6.07353 9.64698 6.08253C10.4281 6.12078 10.8074 6.49546 10.8572 7.26621C10.8583 7.32471 10.8835 7.38049 10.9273 7.4216C10.9712 7.46271 11.0303 7.48589 11.0919 7.48618H11.1014C11.1331 7.48489 11.1642 7.47762 11.1929 7.46479C11.2216 7.45197 11.2473 7.43385 11.2685 7.41149C11.2898 7.38912 11.3061 7.36297 11.3166 7.33455C11.3271 7.30613 11.3315 7.27601 11.3296 7.24595C11.2738 6.24118 10.6966 5.67522 9.67188 5.62289H9.66239V5.62233Z" fill="white"/>
</svg>
