<svg width="0" height="0" class="hidden">
  <symbol xmlns="http://www.w3.org/2000/svg" viewBox="0 0 116.59 84.41" id="logo">
    <title>logo</title>
    <path
      d="M10 69.29H6v12H5v-12H0v-1h10zm7 1.76a4.83 4.83 0 0 1 2.43.62 4.22 4.22 0 0 1 1.7 1.7 5 5 0 0 1 .61 2.51 5.13 5.13 0 0 1-.61 2.54 4.43 4.43 0 0 1-1.7 1.71 4.86 4.86 0 0 1-2.43.6 4.62 4.62 0 0 1-2.09-.47c-.62-.32-.9-1.41-.9-1.41v5.44H12v-13h1V73a10.23 10.23 0 0 1 1.84-1.45 4.52 4.52 0 0 1 2.16-.5zm-.09 8.54a3.65 3.65 0 0 0 1.81-.45A3.17 3.17 0 0 0 20 77.82a4 4 0 0 0 .47-1.94A3.9 3.9 0 0 0 20 74a3.29 3.29 0 0 0-1.27-1.32 3.56 3.56 0 0 0-1.81-.47 3.6 3.6 0 0 0-1.82.47A3.5 3.5 0 0 0 13.81 74a4 4 0 0 0-.45 1.92 4.08 4.08 0 0 0 .45 1.94 3.36 3.36 0 0 0 1.27 1.32 3.69 3.69 0 0 0 1.82.41zm8.09-8.3h1v7.95l5.93-7.95H33v10h-1v-7.94l-5.92 7.94H25zm20 0L40.28 82a4.55 4.55 0 0 1-1.34 1.9 3 3 0 0 1-1.83.56 3.63 3.63 0 0 1-1.28-.22 2.7 2.7 0 0 1-1-.65l.6-1a2.34 2.34 0 0 0 1.73.73 1.74 1.74 0 0 0 1.08-.32 3.34 3.34 0 0 0 .86-1.23l.42-.93-4.25-9.5h1.34l3.58 8.09 3.58-8.09zm13 0v10h-2v-8.18l-3.35 6.18h-.58L48 73.1v8.19h-1v-10h1.35l4.17 7.21 4.25-7.21zm14.82 4.57a4.41 4.41 0 0 1-1.46 3.5A6.79 6.79 0 0 1 67 80.73v3.56h-1v-3.54a6.53 6.53 0 0 1-4.16-1.38 4.45 4.45 0 0 1-1.45-3.51 4.33 4.33 0 0 1 1.45-3.45A6.64 6.64 0 0 1 66 71.05v-3.76h1v3.76a6.91 6.91 0 0 1 4.36 1.38 4.27 4.27 0 0 1 1.46 3.43zm-11.13 0a3.37 3.37 0 0 0 1.09 2.66A5.32 5.32 0 0 0 66 79.61v-7.42a5.13 5.13 0 0 0-3.2 1.07 3.22 3.22 0 0 0-1.11 2.6zM67 79.61a5.19 5.19 0 0 0 3.22-1.07 3.33 3.33 0 0 0 1.12-2.68 3.23 3.23 0 0 0-1.12-2.62 5.25 5.25 0 0 0-3.22-1zm21-1.32v5h-2v-3h-9v3h-3v-5h.51a3.33 3.33 0 0 0 1.61-1.7 20.45 20.45 0 0 0 .58-4.65l.14-3.65H86v10zm-8.46-6.12a28.07 28.07 0 0 1-.38 3.83 5.15 5.15 0 0 1-.9 2.27H84v-8h-4.4zM102 68.29v13h-3v-11h-6v11h-3v-13zm7.91 7H108v6h-3v-13h3v5h2.16l3.43-5h2.87l-4.26 6.28 4.39 6.72h-3.39z">
    </path>
    <circle cx="59.63" cy="27.51" r="27.51"></circle>
    <path
      d="M94 24.16v5.58a20.72 20.72 0 0 1-.59 3.65 17.89 17.89 0 0 1-6.11 9.54 10.63 10.63 0 0 1-5 2.2 4.92 4.92 0 0 1-1.42.16H37.13a4.84 4.84 0 0 1-1.42-.16 11.08 11.08 0 0 1-5.84-2.89 18.63 18.63 0 0 1-5.68-10.63c-.12-.61-.05-1.25-.19-1.87v-3.12a19.88 19.88 0 0 1 1-5.19A18.19 18.19 0 0 1 31.78 12 11.49 11.49 0 0 1 38 10.28h43.09a2.5 2.5 0 1 1-.2 5h-33.4c-.43 0-.44.14-.24.48a2.15 2.15 0 0 0 2.15 1.16c3.69-.07 7.39 0 11.09 0a2.64 2.64 0 0 1 1.78.5 2 2 0 0 1 .73 2.22 2.15 2.15 0 0 1-1.83 1.62 6 6 0 0 1-.95 0h-9.61c-1 0-1 .06-.78.95.19.71.34 1.43.47 2.15s.19.9 1.09.9H70.1a2.92 2.92 0 0 1 1.72.46 2.47 2.47 0 0 1-1 4.5 7.29 7.29 0 0 1-1.15 0H51.48c-1 0-1.06 0-1.22 1a22.21 22.21 0 0 1-.48 2.18.63.63 0 0 0 .65.83h4.15s1.14-.4 1.62 0a2.32 2.32 0 0 1 .9 2.52A2.34 2.34 0 0 1 55 38.5a20.65 20.65 0 0 1-3-.21h-3.62s-1.73 1-1.93 1.71c-.05.19 0 .25.2.26s.37 0 .55 0H81a7.34 7.34 0 0 0 4.56-1.66 5.53 5.53 0 0 0-.78-.34h-11.1a3.19 3.19 0 0 1-1.74-.37 2.47 2.47 0 0 1-1.18-2.56 2.52 2.52 0 0 1 2.08-2 6.51 6.51 0 0 1 1.08-.05H87c1.15 0 1.18 0 1.48-1.11a20.16 20.16 0 0 0 .46-2.17.68.68 0 0 0-.67-.79h-3.29a2.77 2.77 0 0 1-1.63-.47 2.47 2.47 0 0 1 1.31-4.49c1.17-.07 2.35 0 3.54 0 .86 0 .92-.07.78-.88s-.38-1.63-.61-2.42a1 1 0 0 0-1.15-.83H80.5a2.89 2.89 0 0 1-1.71-.44A2.47 2.47 0 0 1 80 15.1c1.25-.07 2.52 0 3.79 0 .42 0 .56-.3.37-.67a2.36 2.36 0 0 1 .1-2.49 2.55 2.55 0 0 1 2-1.08 2.67 2.67 0 0 1 2.09.95 21.24 21.24 0 0 1 5.26 9.83c.26.84.25 1.7.39 2.52z">
    </path>
    <path
      d="M37.22 28c.77-1.36 1.87-1.85 3-1.39a2.15 2.15 0 0 1 1.35 2.28 7.39 7.39 0 0 1-1.7 3.85 3.24 3.24 0 0 1-5.17 0 8.27 8.27 0 0 1 0-10.49A3.82 3.82 0 0 1 36.63 21a2.23 2.23 0 0 1 2.7 1.6 2.1 2.1 0 0 1-1.52 2.58c-.48.12-.61.34-.59.77.01.68 0 1.3 0 2.05z">
    </path>
  </symbol>
  <symbol xmlns="http://www.w3.org/2000/svg" viewBox="0 0 65 50.61" id="logo-min">
    <title>logo-min</title>
    <circle cx="32.82" cy="25.31" r="25.31"></circle>
    <path
      d="M65 23.7v3a18.4 18.4 0 0 1-.55 3.36 16.47 16.47 0 0 1-5.67 8.78 10 10 0 0 1-4.64 2 4.87 4.87 0 0 1-1.32.15H12.19a4.91 4.91 0 0 1-1.32-.15 10.4 10.4 0 0 1-5.42-2.66 17.07 17.07 0 0 1-5.27-9.77c-.12-.56 0-1.14-.18-1.72v-4.63a13.93 13.93 0 0 1 .92-4.15 14.79 14.79 0 0 1 6.23-7.58A11.88 11.88 0 0 1 12.87 9h39.6c1.52.06 2.39.93 2.29 2.31A2.23 2.23 0 0 1 52.28 13H21c-.43 0-.44.14-.24.47A2.16 2.16 0 0 0 23 14.64c3.69-.08 7.39 0 11.08 0a2.7 2.7 0 0 1 1.79.5 2.06 2.06 0 0 1 .75 2.24A2.14 2.14 0 0 1 34.74 19a6 6 0 0 1-1 0h-9.18s-.9.56-.7 1.35.3 1.3.42 1.95 1 .7 1 .7H42a2.31 2.31 0 0 1 1.37.37 2 2 0 0 1 .84 2A2 2 0 0 1 42.53 27a7.11 7.11 0 0 1-.93 0H25.36a2.14 2.14 0 0 0-1.08 1.36c-.12.66-.27 1.31-.43 1.95s.59.69.59.69h3.69a2.22 2.22 0 0 1 1.37.39 2 2 0 0 1-1 3.59c-.85.05-1.71 0-2.55 0h-3.48s-1.59 1.15-1.77 1.8c-.05.17 0 .22.18.23a1.06 1.06 0 0 0 .5 0h31.09a6.32 6.32 0 0 0 4.19-1.46c-.26-.17-.72-.54-.72-.54h-7.2a2.46 2.46 0 0 1-1.38-.3 2 2 0 0 1-1-2.05A2 2 0 0 1 48.07 31a6.33 6.33 0 0 1 .87 0h10.45c.92 0 .94 0 1.19-.89.15-.57.27-1.14.37-1.73s0-.67-.57-.67h-2.6a2.22 2.22 0 0 1-1.3-.38 2 2 0 0 1 1.05-3.59c.93-.06 1.88 0 2.83 0 .69 0 .74-.06.62-.71a18.94 18.94 0 0 0-.48-1.94.84.84 0 0 0-.93-.66H54.2a2.31 2.31 0 0 1-1.37-.35 2 2 0 0 1 1-3.62c1-.06 2 0 3 0 .6 0 .6 0 .32-.53a1.9 1.9 0 0 1 .08-2 2 2 0 0 1 1.65-.93 2.13 2.13 0 0 1 1.67.76 17 17 0 0 1 4.21 7.87c.14.72.12 1.37.24 2.07z">
    </path>
    <path
      d="M12.21 25.74c.7-1.24 1.71-1.69 2.75-1.27a2 2 0 0 1 1.24 2.1 6.74 6.74 0 0 1-1.57 3.54 3 3 0 0 1-4.75 0 7.6 7.6 0 0 1 0-9.64 3.43 3.43 0 0 1 1.78-1.12 2 2 0 0 1 2.49 1.47 1.94 1.94 0 0 1-1.4 2.37c-.44.11-.56.31-.54.71.01.6 0 1.17 0 1.84z">
    </path>
  </symbol>
  <symbol xmlns="http://www.w3.org/2000/svg" viewBox="0 0 97.6 88.75" id="object">
    <title>object</title>
    <path
      d="M97.59 80.25v6.35c0 1.34-.7 2.17-1.77 2.15s-1.7-.83-1.73-2.1V83.3c0-1.37-.54-1.92-1.88-2h-6.79c-1.39 0-1.83-.46-1.83-1.9v-7.24c0-1.39.46-1.9 1.75-1.9h8.73c2.23 0 3.5 1.39 3.52 3.74.02 2.08 0 4.17 0 6.25zm-10-51.52v4.62a2.72 2.72 0 0 1-1.13 2.36c-1.36.95-2.4.48-2.62-1.2a60.87 60.87 0 0 0-2.2-10.45c-.52-1.69.22-2.68 1.9-2.71h.1c3.36 0 4 .63 4 4.14zM76.7 41.37a44.94 44.94 0 0 0-.74-8.6C71.82 11 52.22-3.24 31.65.64 13.46 4.06.08 20.82 0 40.33V73.5c0 4.57 3.09 7.83 7.41 7.85H69.3c4.29 0 7.43-3.3 7.43-7.85q-.04-16.09-.03-32.13zm-65 0a1.57 1.57 0 0 1-1.79.47 2 2 0 0 1-1.2-2.32 2.38 2.38 0 0 1 .44-1.82 1.64 1.64 0 0 1 1.35-.58 1.61 1.61 0 0 1 1.5 1.1 3.64 3.64 0 0 1-.28 3.16zm3.22-13.52c-.17.37-.35.76-.54 1.13a1.68 1.68 0 0 1-2.31.88 1.87 1.87 0 0 1-.83-2.45 27.56 27.56 0 0 1 3.38-6.17A29.2 29.2 0 0 1 34.2 9.05a31.83 31.83 0 0 1 4-.3 1.74 1.74 0 0 1 1.85 1.8 1.81 1.81 0 0 1-2 1.87 24.89 24.89 0 0 0-11.69 3.12 27.11 27.11 0 0 0-11.42 12.32zm23.14 30.82c-9.37 0-17.15-8.48-17.13-18.6.07-10.27 7.93-18.4 17.78-18.38 9.32 0 17.1 8.51 17.06 18.56-.02 10.29-7.87 18.45-17.71 18.42z">
    </path>
    <path d="M31.39 40a7 7 0 1 1 13.92.1 7.23 7.23 0 0 1-7 7.39A7.21 7.21 0 0 1 31.39 40z"></path>
  </symbol>
  <symbol xmlns="http://www.w3.org/2000/svg" viewBox="0 0 112.7 56.5" id="object-2">
    <title>object-2</title>
    <path
      d="M87.54.2h22.2c2.4 0 3.28 2.09 2.62 3.37a2.46 2.46 0 0 1-1.69 1.39c-1.33.38-2.67.73-4 1.16a6 6 0 0 0-2.62 10.06c2.54 2.65 5 5.29 6.63 8.65 6 12.7-2 28.41-15.74 31.18a25.76 25.76 0 0 1-30.5-22.13c-.61-5.14-.18-10.31-.23-15.48V1.26c0-1 .2-1.26 1.21-1.26 7.39.05 14.8 0 22.19 0a.25.25 0 0 0-.07.2zM60.7 19.24V35.5c0 2.37-1.23 3.22-3.5 2.47q-15.86-5.3-31.71-10.64a5.13 5.13 0 0 1-3.83-5.14V17.9a1.73 1.73 0 0 0-1.74-2c-4.62-.63-9.23-1.31-13.82-2A7 7 0 0 1 7 .05h51.05c1.9 0 2.65.78 2.65 2.7z">
    </path>
  </symbol>
  <symbol xmlns="http://www.w3.org/2000/svg" viewBox="0 0 124.91 111.76" id="phone">
    <title>phone</title>
    <path
      d="M124.86 81.94c-.5 11.08-4.68 19.37-13.09 25.58-4.87 3.61-10.47 4.73-16.51 4.06-9-1-17.35-4.22-25.81-7.09-17.88-6.08-32.36-16.81-45-30C17.66 67.44 11.42 60 6.58 51.67 2.34 44.42-.33 36.69 0 28.27A32.6 32.6 0 0 1 12.12 3.94C18.24-1.24 27.46-.71 33 2.06a10.81 10.81 0 0 1 5.12 5.55C41 14.09 43.8 20.57 46.78 27c1.23 2.62 1.76 5.2.62 7.94a21.71 21.71 0 0 1-3.82 6.13c-.95 1-1.89 2.07-2.78 3.13a3.79 3.79 0 0 0-.28 5.13 70.51 70.51 0 0 0 32 26.21c2.67 1.09 4.23.77 6.1-1.4q3.42-4 6.82-8c2.45-2.9 5.85-3.83 9.88-2.5 5.1 1.68 9.8 4.17 14.68 6.32q4.59 2 9.16 4.15c3.84 1.78 6.14 4.49 5.7 7.83z">
    </path>
  </symbol>
  <symbol xmlns="http://www.w3.org/2000/svg" viewBox="0 0 53.92 97.06" id="price">
    <title>price</title>
    <path
      d="M52.88 6.21a3.87 3.87 0 0 0 .87-3.82A3 3 0 0 0 51.16 0a3.35 3.35 0 0 0-3.08 1.34q-6.26 7-12.51 14c-1.25 1.4-1.72 1.44-3.2.22-1-.86-2.06-1.69-3.09-2.55a5.07 5.07 0 0 0-6.93 0c-5.66 4.77-11.35 9.49-17 14.27A15.05 15.05 0 0 0 0 39.38V82.6C0 90.62 5.8 97 13 97h25.81c7.29 0 13-6.42 13-14.55V39.01a14.76 14.76 0 0 0-3.52-9.83c-2.06-2.39-4.63-4.11-7-6.15-1.66-1.45-1.72-2-.26-3.67Q47 12.79 52.88 6.21zm-24.6 14.87c1 .29 1.16 1 .45 1.81-1.66 1.88-3.34 3.73-5 5.61a3.86 3.86 0 0 0-.83 3.85 3.11 3.11 0 0 0 2.49 2.35 3 3 0 0 0 2.94-1.13c1.68-1.86 3.33-3.73 5-5.59 1-1.11 1.58-.95 1.93.59 1 4.43 0 8.26-3.16 11.18a8.4 8.4 0 0 1-10.3 1.49 10.21 10.21 0 0 1-5.59-8.69c-.03-7.76 6.37-13.24 12.07-11.47zM32.82 72a4.14 4.14 0 0 1-1.7-.31H22.7a2.22 2.22 0 0 0-.35.89v1.34a1.56 1.56 0 0 0 .35.77h8.64a2.39 2.39 0 0 1 2.19 2.53 2.34 2.34 0 0 1-2.17 2.47h-8.6s-.39-.39-.39 0v4.16a2.4 2.4 0 0 1-2.3 2.49 2.56 2.56 0 0 1-2.33-2.49v-4.23c.14-.27.08-.36-.16-.34h-1.44a2.34 2.34 0 0 1-2.1-2.49c0-1.36 1-2.49 2.14-2.08h1.48c.18-.43.24-.48.24-.7v-1.5c0-.22-.06-.29-.26-.29H16.2a2.34 2.34 0 0 1-2.14-2.49 2.39 2.39 0 0 1 2.14-2.53 10.9 10.9 0 0 1 1.4 0 4.25 4.25 0 0 0 1.16-.39V54.68s-.25-2.17.74-2.46a.85.85 0 0 0 .69-.51h5.57v.46c2 0 3.86-.07 5.76 0 4 .16 7.49 3.58 8.28 7.92.95 5.54-2.06 10.7-6.98 11.91z">
    </path>
    <path
      d="M31.45 56.66h-8.32a.37.37 0 0 0-.37.36v9.37c0 .27.09.34.33.34h8.22a5.27 5.27 0 0 0 1.69-.27 5 5 0 0 0 3.07-6 4.83 4.83 0 0 0-4.62-3.8z">
    </path>
  </symbol>
  <symbol xmlns="http://www.w3.org/2000/svg" viewBox="0 0 99.11 99" id="procent">
    <title>procent</title>
    <path
      d="M46.51 0h6.19a7.3 7.3 0 0 0 .73.15c3.08.53 6.25.74 9.19 1.65Q92 10.79 98.33 41c.37 1.78.52 3.62.78 5.44v6.18a6.44 6.44 0 0 0-.18.85 43.7 43.7 0 0 1-3.17 13.87C88.68 84.3 76.13 94.69 58 98.25c-1.76.34-3.56.5-5.34.75h-6.15a6.31 6.31 0 0 0-.73-.15c-3.08-.53-6.21-.84-9.21-1.63A49.42 49.42 0 0 1 .86 58c-.35-2-.55-4.08-.86-6.14l.12-5.53c.05-.26.11-.51.16-.77.52-3 .81-6.08 1.58-9A49.4 49.4 0 0 1 41.17.73c1.76-.3 3.56-.48 5.34-.73zM29.07 72.28A3.49 3.49 0 0 0 31.65 71q19.73-19.74 39.47-39.44c.23-.23.46-.44.67-.69a3.09 3.09 0 0 0-1.52-5 3.15 3.15 0 0 0-3.3 1Q47.05 46.82 27.12 66.76a4 4 0 0 0-.58.66 3.1 3.1 0 0 0 2.53 4.86zm22.46-9a11.93 11.93 0 1 0 11.89-11.82 11.95 11.95 0 0 0-11.89 11.85zm-16.75-16.7A11.88 11.88 0 1 0 23 34.73a11.73 11.73 0 0 0 11.78 11.85z">
    </path>
    <path
      d="M63.48 69.06a5.72 5.72 0 1 1 5.73-5.69 5.76 5.76 0 0 1-5.73 5.69zM40.55 34.79a5.71 5.71 0 1 1-5.67-5.73 5.68 5.68 0 0 1 5.67 5.73z">
    </path>
  </symbol>
  <symbol xmlns="http://www.w3.org/2000/svg" viewBox="0 0 99.57 99.57" id="question">
    <title>question</title>
    <path
      d="M49.86 0a49.79 49.79 0 1 0 49.71 49.94A49.82 49.82 0 0 0 49.86 0zm.85 76.7a4.38 4.38 0 0 1-4.18-4.38 4.21 4.21 0 1 1 4.18 4.38zm8.68-19.13c-2.46 1.24-4.11 3-4.42 5.72-.06.56-.31.62-.75.62h-3.55a21.45 21.45 0 0 0-2.89 0c-1.25.15-1.34-.44-1.21-1.44a14.92 14.92 0 0 1 8.27-12 10.92 10.92 0 0 0 5.86-6.38 10 10 0 0 0-2.84-10.89 9.77 9.77 0 0 0-11.17-2.08 10.07 10.07 0 0 0-6.47 9.39C40.06 43.22 38.41 45 36 45a4.22 4.22 0 0 1-4.14-4.6 18.91 18.91 0 1 1 27.53 17.17z">
    </path>
  </symbol>
  <symbol xmlns="http://www.w3.org/2000/svg" viewBox="0 0 66.9 66.9" id="skype">
    <title>skype</title>
    <path
      d="M33.58 53.58c-11.17 0-16.28-5.66-16.28-9.81a3.6 3.6 0 0 1 3.82-3.6c4.79 0 3.53 7.13 12.46 7.13 4.57 0 7.25-2.73 7.25-5.29 0-1.55-.89-3.31-3.9-4L27 35.49c-8-2-9.4-6.45-9.4-10.56 0-8.52 7.84-11.61 15.3-11.61 6.88 0 15.06 3.78 15.06 8.89 0 2.2-1.85 3.38-4 3.38-4.09 0-3.4-5.71-11.62-5.71-4.08 0-6.23 1.91-6.23 4.57s3.18 3.57 6 4.18l7.36 1.65c8.07 1.81 10.21 6.51 10.21 11 0 6.93-5.4 12.29-16 12.29zm30.86-14.66a31.76 31.76 0 0 0 .48-5.5A30.92 30.92 0 0 0 62 20.18 31.55 31.55 0 0 0 28 2.46 18.51 18.51 0 0 0 18.71 0a19.09 19.09 0 0 0-9.37 2.55A18.68 18.68 0 0 0 2.46 28a31 31 0 0 0 .91 14.87 31.37 31.37 0 0 0 20.54 20.58 31.94 31.94 0 0 0 15 1 18.66 18.66 0 0 0 9.27 2.46 19.09 19.09 0 0 0 9.37-2.55 18.66 18.66 0 0 0 6.88-25.43z">
    </path>
  </symbol>
  <symbol xmlns="http://www.w3.org/2000/svg" viewBox="0 0 132.75 119.03" id="telegram">
    <title>telegram</title>
    <path
      d="M129.24.52a6.41 6.41 0 0 0-5.46.22q-60.14 25-120.3 50C.93 51.77-.08 53.16 0 55.52s1.27 3.63 3.76 4.42c7.19 2.3 14.37 4.63 21.55 6.84 5.93 1.83 9.76 5.7 11.57 12.07 2.73 9.68 5.67 19.29 8.55 28.93 1.48 5 6 6.09 9.43 2.4 3.8-4.07 7.54-8.16 11.34-12.26 2.91-3.12 5.61-3.34 8.93-.73l24.67 19.14a21.42 21.42 0 0 0 3.77 2.53l3.32.17c3.17-1.07 4.71-3.54 5.29-7 .86-5.11 2-10.18 3-15.26q8.73-44.49 17.45-89a6.34 6.34 0 0 0-3.39-7.25zm-20.65 24.1q-24 22.46-47.93 44.94a15.64 15.64 0 0 0-5.1 10 3.42 3.42 0 0 1-3.06 3.31 3.25 3.25 0 0 1-3.59-2.59c-1-3.72-2.49-7.31-2.7-10.9.15-5.11 2.22-8.64 6-11.13q20.23-13.38 40.5-26.76c4.75-3.12 9.5-6.24 14.21-9.39.81-.54 1.7-1.23 2.44 0s0 1.82-.77 2.52z">
    </path>
  </symbol>
  <symbol xmlns="http://www.w3.org/2000/svg" viewBox="0 0 61.82 74.49" id="time">
    <title>time</title>
    <path
      d="M30.89 74.49C16 74.4 3.43 63.57.56 48.29c-3.21-17.09 7.68-34 24.15-37.48a29.45 29.45 0 0 1 22 3.84 4.18 4.18 0 0 1 .88 6.5Q41.45 27.62 35.23 34a11.71 11.71 0 0 1-5 3 6 6 0 0 0-4.34 4.38 5.15 5.15 0 0 0 2.17 5.42 4.51 4.51 0 0 0 5.42 0 6.43 6.43 0 0 0 2.41-3.45 14.14 14.14 0 0 1 3.62-6.21c3.82-3.92 7.6-7.89 11.39-11.83 2.24-2.33 5.12-1.93 6.7.92 10.65 19.22 0 43.42-20.92 47.74a24.24 24.24 0 0 1-5.79.52zM30.94 5h-7a2.46 2.46 0 0 1-2.57-2.53A2.53 2.53 0 0 1 24.65.09l12.2.1c2-.68 3.71.55 3.69 2.34A2.45 2.45 0 0 1 38 5h-7.06z">
    </path>
  </symbol>
  <symbol xmlns="http://www.w3.org/2000/svg" viewBox="0 0 109.03 109.03" id="viber">
    <title>viber</title>
    <path
      d="M51.65 0c-9.22.11-29 1.55-40.13 11.2C3.28 19 .4 30.43.06 44.61S-.56 85.27 26.38 92.5v11s-.17 4.4 2.9 5.31c3.78 1.13 5.93-2.26 9.52-5.89l6.69-7.19c18.44 1.45 32.56-1.9 34.18-2.4 3.74-1.13 24.81-3.69 28.25-30.22 3.54-27.41-1.72-44.68-11.2-52.49C93.81 8.12 82.31.17 56.62.08c0 0-1.91-.08-4.97-.08zm1.2 7.61c2.61 0 4.2.09 4.2.09 21.75.07 32.13 6.3 34.57 8.37 8 6.5 12.1 22.06 9.09 44.94C97.85 83.2 80.76 84.6 77.6 85.56a101.56 101.56 0 0 1-29.45 2.36s-11.67 13.37-15.31 16.81a2 2 0 0 1-1.69.69c-.62-.14-.8-.87-.77-1.87l.11-18.26C7.64 79.3 9 56.66 9.24 44.84s2.61-21.49 9.57-28c9.37-8 26.19-9.12 34-9.18zm1.53 12.05a1.45 1.45 0 0 0-.55.1 1.5 1.5 0 0 0-.48.3 1.47 1.47 0 0 0-.31.44 1.24 1.24 0 0 0-.12.53 1.43 1.43 0 0 0 1.46 1.39 28.73 28.73 0 0 1 10.56 1.8 27.68 27.68 0 0 1 9 5.53c5.29 4.87 7.86 11.43 8 20a1.43 1.43 0 0 0 1.46 1.39 1.52 1.52 0 0 0 1-.4 1.36 1.36 0 0 0 .43-1 28.37 28.37 0 0 0-2-11.83A29.51 29.51 0 0 0 76 27.77c-5.76-5.35-13.07-8.1-21.66-8.1zM33.5 23.08a4.93 4.93 0 0 0-3 .54h-.1a23 23 0 0 0-5.65 4.28 7.89 7.89 0 0 0-2.28 4.29 5.31 5.31 0 0 0 .23 2.47l.1.06a59.32 59.32 0 0 0 5.94 11.8A69.92 69.92 0 0 0 40.2 60.93l.13.18.21.14.14.15.15.12a76.55 76.55 0 0 0 15.7 10.59c6.52 3.27 10.48 4.81 12.85 5.45a7.37 7.37 0 0 0 2 .28 9.48 9.48 0 0 0 5.44-2.15 21.08 21.08 0 0 0 4.59-5.22 3.64 3.64 0 0 0-.89-5.09 67.42 67.42 0 0 0-10.61-7c-2.52-1.26-5.09-.5-6.13.78l-2.22 2.57a4.24 4.24 0 0 1-3.2 1.1h-.06c-15.41-3.62-19.52-18-19.52-18A3.4 3.4 0 0 1 40 41.94l2.78-2.06a4.28 4.28 0 0 0 .83-5.68A61.37 61.37 0 0 0 36 24.44a4.26 4.26 0 0 0-2.49-1.37zm23.11 3.54a1.37 1.37 0 1 0 0 2.74 18.59 18.59 0 0 1 6.88 1.41 18 18 0 0 1 5.79 3.8A15.7 15.7 0 0 1 72.7 40a15.16 15.16 0 0 1 .91 6.25 1.34 1.34 0 0 0 .43 1 1.46 1.46 0 0 0 1 .39l.06.07a1.47 1.47 0 0 0 1-.4 1.33 1.33 0 0 0 .42-1 18.32 18.32 0 0 0-5.12-13.6C67.92 29.07 63 27 56.82 26.62zm2.77 8a1.36 1.36 0 1 0-.09 2.72c4.61.22 6.85 2.44 7.15 7a1.25 1.25 0 0 0 .41.91 1.39 1.39 0 0 0 1 .38h.06a1.42 1.42 0 0 0 .54-.12 1.28 1.28 0 0 0 .44-.32 1.2 1.2 0 0 0 .29-.45 1.35 1.35 0 0 0 .08-.52c-.33-5.94-3.74-9.28-9.79-9.59z">
    </path>
  </symbol>
  <symbol xmlns="http://www.w3.org/2000/svg" viewBox="0 0 116.52 116.52" id="whatsapp">
    <title>whatsapp</title>
    <path
      d="M99.54 16.93A58.08 58.08 0 0 0 .48 57.74 57.45 57.45 0 0 0 8.23 86.6L0 116.52l30.75-8a58.22 58.22 0 0 0 27.73 7 58 58 0 0 0 58-57.73 57.25 57.25 0 0 0-17-40.85zm-41 88.58A48.34 48.34 0 0 1 34 98.82l-1.76-1-18.25 4.76 4.87-17.7-1.2-1.88A48 48 0 0 1 58.52 9.49 48.26 48.26 0 0 1 77 13.13a48 48 0 0 1-18.5 92.38zM85 70.05c-1.45-.73-8.57-4.21-9.9-4.7s-2.29-.72-3.26.73-3.84 4.68-4.64 5.65-1.7 1.08-3.14.36a39.73 39.73 0 0 1-11.66-7.16 43.9 43.9 0 0 1-8.07-10c-.84-1.45-.09-2.23.64-2.95s1.45-1.69 2.17-2.53a9.55 9.55 0 0 0 1.45-2.4 2.61 2.61 0 0 0-.12-2.53c-.36-.72-3.27-7.82-4.47-10.71s-2.37-2.42-3.26-2.46-1.85-.05-2.74-.05a5.4 5.4 0 0 0-2.13.5 5.3 5.3 0 0 0-1.74 1.3 16.1 16.1 0 0 0-5.08 12c0 7.1 5.2 14 5.92 14.93s10.2 15.56 24.74 21.82a87.41 87.41 0 0 0 8.26 3 20 20 0 0 0 9.13.57c2.79-.41 8.58-3.49 9.79-6.86s1.21-6.25.84-6.86-1.33-.93-2.73-1.65z"
      fill-rule="evenodd"></path>
  </symbol>
  <symbol xmlns="http://www.w3.org/2000/svg" viewBox="0 0 11.56 21.71" id="arrow">
    <title>arrow</title>
    <path d="M.35.35l10.5 10.5-10.5 10.5" stroke="#382817"></path>
  </symbol>
  <symbol xmlns="http://www.w3.org/2000/svg" viewBox="0 0 66.9 61" id="auto">
    <title>auto</title>
    <path
      d="M14.54 61a5.08 5.08 0 0 1 0-10.14 5.08 5.08 0 0 1 0 10.14zM58 55.93a4.84 4.84 0 1 1-4.77-5.09A4.95 4.95 0 0 1 58 55.93z">
    </path>
    <path
      d="M66.89 45.55a22.85 22.85 0 0 0-.28-4.44c-1.29-6.4-2.47-12.82-3.75-19.24a7.8 7.8 0 0 0-7.42-6.3h-8.21A4.33 4.33 0 0 0 43 20v18.13s-.14 2.29-1.29 2.53c-1.54.34-2.71-2.8-2.71-2.8V3.45A3.22 3.22 0 0 0 35.75 0H3.15A3.2 3.2 0 0 0 0 3.3v49.47a2.7 2.7 0 0 0 2.81 2.94h2.54c.44 0 .62-.07.65-.62a8.53 8.53 0 0 1 8.23-8.16A8.48 8.48 0 0 1 22.66 55c.05.61.24.69.75.69h20.16c.53 0 .62-.18.67-.69a8.61 8.61 0 0 1 7.54-8.08 8.5 8.5 0 0 1 8.84 6.29c.22.81-.12 2 .6 2.38s1.65.08 2.49.08a3.1 3.1 0 0 0 3.18-3.34q.02-3.33 0-6.78zM60 40.71h-5.06a1.85 1.85 0 0 1-2-2.08v-11a1.87 1.87 0 0 1 2-2.13h2.87a1.56 1.56 0 0 1 1.63 1.43q1.14 5.8 2.22 11.63A1.6 1.6 0 0 1 60 40.71z">
    </path>
  </symbol>
  <symbol xmlns="http://www.w3.org/2000/svg" viewBox="0 0 117.86 79.95" id="auto-min">
    <title>auto-min</title>
    <path
      d="M33.67 71.94a8.2 8.2 0 0 1-8.47 8 8 8 0 1 1 .05-16.07 8.23 8.23 0 0 1 8.42 8.07zm67.33 0a8.43 8.43 0 1 1-8.29-8.06 8.22 8.22 0 0 1 8.29 8.06z">
    </path>
    <path
      d="M117.85 47.84a7.78 7.78 0 0 0-6.37-7.45 30.32 30.32 0 0 0-6-.18 6.13 6.13 0 0 1-6.26-4.87c-1.85-8.81-3.66-17.6-5.5-26.42C92.57 3.5 88.23 0 82.49 0H62c-6.65 0-11.49 4.63-11.49 10.93v28c0 1.06-.31 1.28-1.37 1.28-7-.05-14 0-21 0H7.34C3 40.19 0 43 0 47.22v16.19c0 5.35 3.87 9 9.44 8.94.85 0 1.06-.2 1.13-1 .53-7.28 7-13 14.52-13.06 7.82 0 14.29 5.6 14.84 13 .08.88.32 1.08 1.21 1.08h35.64c.85 0 1.06-.2 1.13-1a14.46 14.46 0 0 1 14.52-13.11c7.84 0 14.18 5.53 14.84 13 0 .73.16 1.11 1.08 1.08 1.76-.07 3.5 0 5.26 0a3.92 3.92 0 0 0 4.21-4q.08-10.27.03-20.5zm-29.94-8.06H72.92a5.32 5.32 0 0 1-5.58-5.3V20.92a5.27 5.27 0 0 1 5.52-5.22h10.92c2 0 3 .75 3.37 2.66q1.93 9 3.79 17.93a2.86 2.86 0 0 1-3.03 3.49z">
    </path>
  </symbol>
  <symbol xmlns="http://www.w3.org/2000/svg" viewBox="0 0 87.04 84.4" id="chat">
    <title>chat</title>
    <path
      d="M0 30.53v-19.4C0 4.35 5.36-.56 12.32.05l31 .05a10.85 10.85 0 0 1 12.44 10.84v21.53a10.8 10.8 0 0 1-11 11H15.14a5.83 5.83 0 0 0-4.41 1.83c-2.26 2.3-4.61 4.54-6.87 6.82a2.26 2.26 0 0 1-2.59.8A2.2 2.2 0 0 1 0 50.5V30.53z">
    </path>
    <path
      d="M87 61.87v20c0 1-.2 2-1.25 2.38a2.23 2.23 0 0 1-2.6-.74c-2.33-2.32-4.71-4.61-7.06-7A5.62 5.62 0 0 0 72 74.82H42.06A10.88 10.88 0 0 1 31 63.36v-9.85c-.17-2.27.86-3.51 3-3.51h11.06a17.13 17.13 0 0 0 17.07-16.74c0-1.34.56-1.88 1.91-1.88h12.34A10.86 10.86 0 0 1 87 42.07v9.89z">
    </path>
  </symbol>
  <symbol xmlns="http://www.w3.org/2000/svg" viewBox="0 0 79.75 97.47" id="check">
    <title>check</title>
    <path
      d="M72.33 27.83c-7.51 0-13.35-3.22-17.19-10.07a19.69 19.69 0 0 1-2.41-9V5.28A2.18 2.18 0 0 1 54 3a1.93 1.93 0 0 1 2.33.68q6 6.36 12.12 12.67L75.72 24a2.21 2.21 0 0 1 .7 2.52 2 2 0 0 1-2.24 1.35c-.6-.06-1.18-.04-1.85-.04z">
    </path>
    <path
      d="M79.72 42.94A7.92 7.92 0 0 0 73.45 35c-1.68-.32-3.45-.21-5.15-.47-12.5-1.9-21.67-13-21.8-26.22 0-5.53-4.66-9.46-10.3-8L20.57.21a13 13 0 0 0-5.27.14C6 2.44 0 10.2 0 20.22v57.61C0 88.58 8.41 97.38 18.68 97.4h34.67a82.19 82.19 0 0 0 10-.17c9-1.13 16.26-9.48 16.3-19 .13-11.74.09-23.53.07-35.29zm-19.9 22.85A10.23 10.23 0 0 1 55.75 74c-4 3-8.18 5.91-12.37 8.72a6 6 0 0 1-7.06-.11q-5.89-3.94-11.63-8.14A11.15 11.15 0 0 1 20 64.92V44.27c0-1.63.52-2.33 2.06-2.57a40.88 40.88 0 0 0 16-6.2 3.17 3.17 0 0 1 3.72 0A40.31 40.31 0 0 0 58 41.74 2 2 0 0 1 59.84 44c.02 7.25.1 14.53-.02 21.79z">
    </path>
    <path
      d="M34.76 56.62a3.7 3.7 0 0 1 2.51 1.13c.46.43.75.37 1.18-.09 1.68-1.83 3.43-3.59 5.11-5.39a3.19 3.19 0 0 1 4.71-.27 3.54 3.54 0 0 1 .15 5c-1.06 1.2-2.18 2.31-3.28 3.46-1.5 1.56-3 3.13-4.47 4.67a3.2 3.2 0 0 1-4.73.35c-1.1-.87-2.22-1.74-3.28-2.65a3.55 3.55 0 0 1-1-3.92 3.34 3.34 0 0 1 3.1-2.29z">
    </path>
  </symbol>
  <symbol xmlns="http://www.w3.org/2000/svg" viewBox="0 0 110.58 110.58" id="close">
    <title>close</title>
    <path d="M110.23.35L55.29 55.29m0 0l54.94 54.94M55.29 55.29L.35.35m54.94 54.94L.35 110.23" ></path>
  </symbol>
  <symbol xmlns="http://www.w3.org/2000/svg" viewBox="0 0 137.97 126.47" id="comment">
    <title>comment</title>
    <path
      d="M117.06 0H20.52C9.34 0 0 8.77 0 19.3v72.79a16.23 16.23 0 0 0 .8 5.13C3.06 104 7.74 108.47 15 110.56c3.32 1 4.77 2.78 4.77 6.06 0 1.89.06 3.77 0 5.66a3.64 3.64 0 0 0 2 3.77 4.26 4.26 0 0 0 4.56-.61c4.93-3.37 10-6.64 14.87-10a23.08 23.08 0 0 1 13.49-4.06c20.73.06 41.45 0 62.2 0 12 0 21.1-8.61 21.1-19.92V19.82C138 8.71 128.85 0 117.06 0zM27.68 28.65a5.14 5.14 0 0 1 3.43-1.12h75.68c3.13 0 5.29 1.86 5.32 4.53s-2.19 4.47-5.35 4.47H31.11a4.83 4.83 0 0 1-4.69-2.87 4.22 4.22 0 0 1 1.26-5.01zm46.73 54.74a7.43 7.43 0 0 1-1.76.14H30.9c-3.17 0-5.32-1.8-5.35-4.47s2.15-4.53 5.29-4.53h42.38a4.68 4.68 0 0 1 4.87 3.91 4.59 4.59 0 0 1-3.68 4.95zm34.15-23a5.39 5.39 0 0 1-1.32.14H30.91a4.74 4.74 0 0 1-4.71-3.05 4.25 4.25 0 0 1 1.5-4.93 5.53 5.53 0 0 1 3.48-1h76.03a4.68 4.68 0 0 1 4.94 4 4.48 4.48 0 0 1-3.59 4.84z">
    </path>
  </symbol>
  <symbol xmlns="http://www.w3.org/2000/svg" viewBox="0 0 100 100" id="direction">
    <title>direction</title>
    <path
      d="M93.41 34.53q-13.9-14-27.88-27.91a21.93 21.93 0 0 0-4-3.22 21.35 21.35 0 0 0-26.91 3.11q-14.14 14-28.13 28.13a21.45 21.45 0 0 0 0 30.77c9.32 9.43 18.73 18.78 28.11 28.15A21.7 21.7 0 0 0 50.15 100a21.4 21.4 0 0 0 15.15-6.4c9.43-9.39 18.86-18.73 28.2-28.21a21.46 21.46 0 0 0-.09-30.86zm-64.84-2.6a6.88 6.88 0 0 1 7-6.93h20.5c1 0 1.23-.27 1.12-1.18a1.82 1.82 0 0 1 1-2.06 1.74 1.74 0 0 1 2.13.42c3.44 3.45 6.9 6.89 10.32 10.36a1.74 1.74 0 0 1 0 2.75q-5.16 5.2-10.33 10.35a1.88 1.88 0 0 1-1.91.52 1.64 1.64 0 0 1-1.19-1.82c.18-1.23-.27-1.49-1.5-1.49-8.06.06-16.15 0-24.22 0-2.08 0-2.9-.83-2.9-2.91-.02-2.64-.04-5.32-.02-8.01zm42.9 35.87a6.9 6.9 0 0 1-7.15 7.2H43.87c-.85 0-1.11.22-1 1a1.87 1.87 0 0 1-1.1 2.21c-1.32.55-2.43-.39-3.12-2.35a11.92 11.92 0 0 1-6.75-7c-4.81-2-4.2-4.58 2.17-6.62a4.92 4.92 0 0 1 3.12-3c1.3-3.65 2.61-6.25 4.6-5.42a1.6 1.6 0 0 1 1 1.79c-.2 1.29.36 1.47 1.52 1.47h24.13c2.17 0 3 .81 3 3 .03 2.58.03 5.15.03 7.72z">
    </path>
  </symbol>
  <symbol xmlns="http://www.w3.org/2000/svg" viewBox="0 0 113.15 113.15" id="excl">
    <title>excl</title>
    <path
      d="M56.66 0a56.58 56.58 0 1 0 56.49 56.75A56.61 56.61 0 0 0 56.66 0zm-.17 90.52a5.66 5.66 0 1 1 5.76-5.41 5.49 5.49 0 0 1-5.76 5.41zm5.92-23.7c0 3.61-2.3 6.05-5.6 6s-5.4-2.51-5.4-6V29.19c0-3.33 2.3-5.84 5.43-5.84s5.57 2.44 5.57 5.87v37.6z">
    </path>
  </symbol>
  <symbol xmlns="http://www.w3.org/2000/svg" viewBox="0 0 144.03 117.78" id="hand">
    <title>hand</title>
    <path
      d="M80.22 117.78c-5.11-.1-10.86-2.65-15.71-7.45Q52.12 98.07 39.68 85.87c-2.44-2.39-4-2.49-6.84-.41a3 3 0 0 1-4.08-.19c-2.48-2.46-5-4.92-7.3-7.57a8.3 8.3 0 0 1 .42-11.36c5.88-5.87 11.73-11.86 18-17.35a27.52 27.52 0 0 1 17.89-6.76 3.43 3.43 0 0 1 3.6 2.12 3.22 3.22 0 0 1-1 3.85c-3.11 3-6.2 6.12-9.31 9.15a15.3 15.3 0 0 0-4.56 13.41 7.68 7.68 0 0 0 7.16 6.53 20.56 20.56 0 0 0 13.65-3.63c2.54-1.77 5.17-3.37 7.78-5 3.5-2.24 6.68-1.92 9.7 1 1.44 1.42 2.92 2.78 4.3 4.23a10.76 10.76 0 0 0 7.55 3.31c6.62.35 11.44 3.38 13.81 9.53s1.1 11.9-3.63 16.7c-2.79 2.84-5.62 5.64-8.54 8.33-4.44 3.96-10.28 6.08-18.06 6.02zM0 28V3.29C0 1.94.26.8 1.71.2S4 .36 5 1.27Q21.37 17.36 37.84 33.4c2.32 2.24 2.32 4.26 0 6.53-6.84 6.78-13.71 13.6-20.55 20.35a10.21 10.21 0 0 1-10.89 1.9c-4-1.71-6.27-4.8-6.33-9.06C-.06 44.76 0 36.39 0 28zm144 .22v23.83c0 4.79-2.28 8.39-6.32 10.06s-8.26.73-11.73-2.65q-9.78-9.55-19.53-19.18c-2.31-2.31-2.31-4.74 0-7q16.33-16 32.64-32c.9-.88 1.86-1.61 3.24-1s1.7 1.66 1.7 3.01v24.93z">
    </path>
    <path
      d="M125.32 72.34a7.18 7.18 0 0 1-12 5.17c-2.41-2.24-4.65-4.64-7-7a11 11 0 0 0-8-3.44 14.69 14.69 0 0 1-9.86-3.91c-4.43-4-9.28-4.39-14.39-1.27-4.59 2.81-9.16 5.62-13.75 8.4-2.44 1.48-4.72 1.26-6.2-.57s-1.19-4.2.84-6.19c5.2-5.14 10.6-10.13 15.64-15.43 5.56-5.87 12.27-7.25 19.92-5.74a32.06 32.06 0 0 1 16.64 8.9c5.3 5.27 10.57 10.57 15.87 15.87a6.8 6.8 0 0 1 2.29 5.21zm-72.09 45.12a6.16 6.16 0 0 1-3.88-1.86q-8.73-8.52-17.35-17a3.49 3.49 0 0 1-.13-5.21 3.64 3.64 0 0 1 5.17.06c6.43 6.25 12.79 12.53 19.18 18.81a2.92 2.92 0 0 1 .71 3.47c-.58 1.32-1.7 1.82-3.7 1.73z">
    </path>
  </symbol>

  <symbol xmlns="http://www.w3.org/2000/svg" viewBox="0 0 18 18" id="refresh">
    <path d="M15.4291 2.7159C15.4291 2.21781 15.4251 1.75989 15.4291 1.30197C15.4332 0.550822 16.0277 -0.0195698 16.7668 0.000514386C17.4296 0.0205986 17.996 0.582956 17.996 1.24574C18 3.34654 17.996 5.44735 18 7.54816C18 7.6767 17.9679 7.71687 17.8353 7.71687C15.7344 7.71285 13.6336 7.71687 11.5327 7.71285C10.8538 7.71285 10.2915 7.12639 10.2874 6.44353C10.2834 5.73656 10.8418 5.1501 11.5447 5.14207C12.3401 5.13404 13.1395 5.14207 13.9348 5.14207C13.9911 5.14207 14.0473 5.14207 14.1397 5.14207C13.6697 4.51544 13.1314 4.00932 12.5008 3.61165C10.0986 2.10534 7.23856 2.24191 5.00112 3.97719C4.02499 4.73637 3.35818 5.7205 2.93238 6.87735C2.68333 7.54816 1.98438 7.88156 1.32158 7.66866C0.646731 7.44774 0.265119 6.71266 0.506137 6.04184C1.33363 3.76429 2.82392 2.06115 4.98505 0.968573C6.48739 0.20939 8.09016 -0.0999066 9.76523 0.0527333C11.85 0.241525 13.6577 1.05694 15.1841 2.49096C15.2564 2.55523 15.3287 2.62351 15.4291 2.7159Z" />
    <path d="M2.57487 15.2886C2.57487 15.7787 2.57487 16.2245 2.57487 16.6704C2.57085 17.4376 2.0125 18.004 1.26534 18C0.55434 17.996 0 17.4095 0.00401696 16.6664C0.00401696 14.6057 0.00803392 12.5451 0 10.4805C0 10.3238 0.0361526 10.2836 0.196831 10.2836C2.26557 10.2876 4.3343 10.2876 6.40303 10.2876C7.13814 10.2876 7.7206 10.85 7.7206 11.569C7.7206 12.2961 7.15421 12.8544 6.41509 12.8584C5.57956 12.8624 4.74403 12.8584 3.87637 12.8584C4.15755 13.2521 4.46686 13.5774 4.81232 13.8707C6.33073 15.136 8.07811 15.6702 10.0263 15.3408C12.3602 14.9432 14.0071 13.6136 14.9511 11.4324C15.0033 11.316 15.0435 11.1954 15.0957 11.079C15.385 10.4403 16.1201 10.1471 16.7628 10.4162C17.3934 10.6773 17.7268 11.4083 17.4738 12.047C16.1843 15.3087 13.8264 17.3131 10.3557 17.8714C7.43539 18.3414 4.88864 17.4537 2.73153 15.4372C2.68735 15.3971 2.65119 15.3609 2.57487 15.2886Z" />
  </symbol>
  
	<symbol viewBox="0 0 26 30" xmlns="http://www.w3.org/2000/svg" id="play">
		<path d="M0.0207821 14.9001C0.0207821 11.3038 0.0207821 7.72676 0.0207821 4.13046C0.000521516 2.51501 0.689383 1.26496 2.18867 0.495694C3.68796 -0.273568 5.16698 -0.119716 6.58523 0.764936C12.319 4.36124 18.073 7.93831 23.8068 11.5538C26.7446 13.4001 26.7243 16.631 23.7865 18.4772C18.1338 22.0158 12.4608 25.5352 6.82835 29.093C5.32907 30.0354 3.80952 30.3623 2.18867 29.4969C0.547558 28.6507 -0.0197391 27.266 0.000521516 25.5544C0.0410428 21.9966 0.0207821 18.458 0.0207821 14.9001Z"/>
	</symbol>

  <symbol xmlns="http://www.w3.org/2000/svg" viewBox="0 0 11.56 21.71" id='arrow-2'>
    <polygon class="cls-1" points="0.71 21.71 0 21 10.15 10.85 0 0.71 0.71 0 11.56 10.85 0.71 21.71" />
  </symbol>

</svg>