<svg xmlns="http://www.w3.org/2000/svg" viewBox="0 0 66.9 61"><defs><style>.cls-1{fill:#382817;}</style></defs><title>auto</title><g id="Слой_2" data-name="Слой 2"><g id="Слой_1-2" data-name="Слой 1"><path class="cls-1" d="M14.54,61a5.08,5.08,0,0,1,0-10.14,5.08,5.08,0,0,1,0,10.14Z"/><path class="cls-1" d="M58,55.93a4.84,4.84,0,1,1-4.77-5.09A4.95,4.95,0,0,1,58,55.93Z"/><path class="cls-1" d="M66.89,45.55a22.85,22.85,0,0,0-.28-4.44c-1.29-6.4-2.47-12.82-3.75-19.24a7.8,7.8,0,0,0-7.42-6.3q-4.11,0-8.21,0A4.33,4.33,0,0,0,43,20c0,1.21,0,2.4,0,3.61V38.13s-.14,2.29-1.29,2.53C40.17,41,39,37.86,39,37.86V3.45A3.22,3.22,0,0,0,35.75,0C24.89,0,14,0,3.15,0A3.2,3.2,0,0,0,0,3.3c0,.75,0,1.51,0,2.24V52.77a2.7,2.7,0,0,0,2.81,2.94c.85,0,1.68,0,2.54,0,.44,0,.62-.07.65-.62a8.53,8.53,0,0,1,8.23-8.16A8.48,8.48,0,0,1,22.66,55c.05.61.24.69.75.69q10.08,0,20.16,0c.53,0,.62-.18.67-.69a8.61,8.61,0,0,1,7.54-8.08,8.5,8.5,0,0,1,8.84,6.29c.22.81-.12,2,.6,2.38s1.65.08,2.49.08a3.1,3.1,0,0,0,3.18-3.34Q66.91,49,66.89,45.55ZM60,40.71c-1.69,0-3.37,0-5.06,0a1.85,1.85,0,0,1-2-2.08v-11a1.87,1.87,0,0,1,2-2.13h2.87a1.56,1.56,0,0,1,1.63,1.43q1.14,5.8,2.22,11.63A1.6,1.6,0,0,1,60,40.71Z"/></g></g></svg>