<svg xmlns="http://www.w3.org/2000/svg" viewBox="0 0 117.86 79.95"><defs><style>.cls-1{fill:#382817;}</style></defs><title>auto-min</title><g id="Слой_2" data-name="Слой 2"><g id="Слой_1-2" data-name="Слой 1"><path class="cls-1" d="M33.67,71.94a8.2,8.2,0,0,1-8.47,8,8,8,0,1,1,.05-16.07A8.23,8.23,0,0,1,33.67,71.94Z"/><path class="cls-1" d="M101,71.94a8.43,8.43,0,1,1-8.29-8.06A8.22,8.22,0,0,1,101,71.94Z"/><path class="cls-1" d="M117.85,47.84a7.78,7.78,0,0,0-6.37-7.45,30.32,30.32,0,0,0-6-.18,6.13,6.13,0,0,1-6.26-4.87c-1.85-8.81-3.66-17.6-5.5-26.42C92.57,3.5,88.23,0,82.49,0,75.65,0,68.81,0,62,0,55.35,0,50.51,4.63,50.51,10.93c0,9.34,0,18.66,0,28,0,1.06-.31,1.28-1.37,1.28-7-.05-14,0-21,0H7.34C3,40.19,0,43,0,47.22V63.41c0,5.35,3.87,9,9.44,8.94.85,0,1.06-.2,1.13-1,.53-7.28,7-13,14.52-13.06,7.82,0,14.29,5.6,14.84,13,.08.88.32,1.08,1.21,1.08,11.89,0,23.75,0,35.64,0,.85,0,1.06-.2,1.13-1A14.46,14.46,0,0,1,92.43,58.26c7.84,0,14.18,5.53,14.84,13,0,.73.16,1.11,1.08,1.08,1.76-.07,3.5,0,5.26,0a3.92,3.92,0,0,0,4.21-4Q117.9,58.07,117.85,47.84ZM87.91,39.78c-2.55,0-5.08,0-7.63,0s-4.92,0-7.36,0a5.32,5.32,0,0,1-5.58-5.3q0-6.78,0-13.56a5.27,5.27,0,0,1,5.52-5.22c3.63,0,7.29,0,10.92,0,2,0,3,.75,3.37,2.66q1.93,9,3.79,17.93A2.86,2.86,0,0,1,87.91,39.78Z"/></g></g></svg>