<svg xmlns="http://www.w3.org/2000/svg" viewBox="0 0 87.04 84.4"><defs><style>.cls-1{fill:#382817;}</style></defs><title>chat</title><g id="Слой_2" data-name="Слой 2"><g id="Слой_1-2" data-name="Слой 1"><path class="cls-1" d="M0,30.53V11.13C0,4.35,5.36-.56,12.32.05l31,.05A10.85,10.85,0,0,1,55.76,10.94c0,7.17,0,14.35,0,21.53a10.8,10.8,0,0,1-11,11c-9.88,0-19.75,0-29.62,0a5.83,5.83,0,0,0-4.41,1.83c-2.26,2.3-4.61,4.54-6.87,6.82a2.26,2.26,0,0,1-2.59.8A2.2,2.2,0,0,1,0,50.5C0,43.83,0,37.18,0,30.53Z"/><path class="cls-1" d="M87,61.87c0,6.65,0,13.32,0,20,0,1-.2,2-1.25,2.38a2.23,2.23,0,0,1-2.6-.74c-2.33-2.32-4.71-4.61-7.06-7A5.62,5.62,0,0,0,72,74.82q-15,0-29.94,0A10.88,10.88,0,0,1,31,63.36l0-9.85C30.83,51.24,31.86,50,34,50H45.06A17.13,17.13,0,0,0,62.13,33.26c0-1.34.56-1.88,1.91-1.88,4.12,0,8.22,0,12.34,0A10.86,10.86,0,0,1,87,42.07c0,3.29,0,6.59,0,9.89Z"/></g></g></svg>