<svg xmlns="http://www.w3.org/2000/svg" viewBox="0 0 79.75 97.47"><defs><style>.cls-1{fill:#382817;}</style></defs><title>check</title><g id="Слой_2" data-name="Слой 2"><g id="Слой_1-2" data-name="Слой 1"><path class="cls-1" d="M72.33,27.83c-7.51,0-13.35-3.22-17.19-10.07a19.69,19.69,0,0,1-2.41-9c0-1.15,0-2.32,0-3.48A2.18,2.18,0,0,1,54,3a1.93,1.93,0,0,1,2.33.68q6,6.36,12.12,12.67L75.72,24a2.21,2.21,0,0,1,.7,2.52,2,2,0,0,1-2.24,1.35C73.58,27.81,73,27.83,72.33,27.83Z"/><path class="cls-1" d="M79.72,42.94A7.92,7.92,0,0,0,73.45,35c-1.68-.32-3.45-.21-5.15-.47-12.5-1.9-21.67-13-21.8-26.22,0-5.53-4.66-9.46-10.3-8L20.57.21A13,13,0,0,0,15.3.35C6,2.44,0,10.2,0,20.22V77.83C0,88.58,8.41,97.38,18.68,97.4q17.35,0,34.67,0a82.19,82.19,0,0,0,10-.17c9-1.13,16.26-9.48,16.3-19C79.78,66.49,79.74,54.7,79.72,42.94ZM59.82,65.79A10.23,10.23,0,0,1,55.75,74c-4,3-8.18,5.91-12.37,8.72a6,6,0,0,1-7.06-.11q-5.89-3.94-11.63-8.14A11.15,11.15,0,0,1,20,64.92V44.27c0-1.63.52-2.33,2.06-2.57a40.88,40.88,0,0,0,16-6.2,3.17,3.17,0,0,1,3.72,0A40.31,40.31,0,0,0,58,41.74,2,2,0,0,1,59.84,44C59.86,51.25,59.94,58.53,59.82,65.79Z"/><path class="cls-1" d="M34.76,56.62a3.7,3.7,0,0,1,2.51,1.13c.46.43.75.37,1.18-.09,1.68-1.83,3.43-3.59,5.11-5.39A3.19,3.19,0,0,1,48.27,52a3.54,3.54,0,0,1,.15,5c-1.06,1.2-2.18,2.31-3.28,3.46-1.5,1.56-3,3.13-4.47,4.67a3.2,3.2,0,0,1-4.73.35c-1.1-.87-2.22-1.74-3.28-2.65a3.55,3.55,0,0,1-1-3.92A3.34,3.34,0,0,1,34.76,56.62Z"/></g></g></svg>