<svg xmlns="http://www.w3.org/2000/svg" viewBox="0 0 137.97 126.47"><defs><style>.cls-1{fill:#fdb15d;}</style></defs><title>comment</title><g id="Слой_2" data-name="Слой 2"><g id="Слой_1-2" data-name="Слой 1"><path class="cls-1" d="M117.06,0c-16,0-32,0-48,0S36.69,0,20.52,0C9.34,0,0,8.77,0,19.3Q0,55.71,0,92.09a16.23,16.23,0,0,0,.8,5.13C3.06,104,7.74,108.47,15,110.56c3.32,1,4.77,2.78,4.77,6.06,0,1.89.06,3.77,0,5.66a3.64,3.64,0,0,0,2,3.77,4.26,4.26,0,0,0,4.56-.61c4.93-3.37,10-6.64,14.87-10a23.08,23.08,0,0,1,13.49-4.06c20.73.06,41.45,0,62.2,0,12,0,21.1-8.61,21.1-19.92V19.82C138,8.71,128.85,0,117.06,0ZM27.68,28.65a5.14,5.14,0,0,1,3.43-1.12h75.68c3.13,0,5.29,1.86,5.32,4.53s-2.19,4.47-5.35,4.47H31.11a4.83,4.83,0,0,1-4.69-2.87A4.22,4.22,0,0,1,27.68,28.65ZM74.41,83.39a7.43,7.43,0,0,1-1.76.14H30.9c-3.17,0-5.32-1.8-5.35-4.47s2.15-4.53,5.29-4.53H73.22a4.68,4.68,0,0,1,4.87,3.91A4.59,4.59,0,0,1,74.41,83.39Zm34.15-23a5.39,5.39,0,0,1-1.32.14H30.91a4.74,4.74,0,0,1-4.71-3.05,4.25,4.25,0,0,1,1.5-4.93,5.53,5.53,0,0,1,3.48-1c12.61,0,25.25,0,37.86,0h38.17a4.68,4.68,0,0,1,4.94,4A4.48,4.48,0,0,1,108.56,60.39Z"/></g></g></svg>