<svg xmlns="http://www.w3.org/2000/svg" viewBox="0 0 100 100"><defs><style>.cls-1{fill:#382817;}</style></defs><title>direction</title><g id="Слой_2" data-name="Слой 2"><g id="Слой_1-2" data-name="Слой 1"><path class="cls-1" d="M93.41,34.53q-13.9-14-27.88-27.91a21.93,21.93,0,0,0-4-3.22A21.35,21.35,0,0,0,34.62,6.51q-14.14,14-28.13,28.13a21.45,21.45,0,0,0,0,30.77c9.32,9.43,18.73,18.78,28.11,28.15A21.7,21.7,0,0,0,50.15,100,21.4,21.4,0,0,0,65.3,93.6c9.43-9.39,18.86-18.73,28.2-28.21A21.46,21.46,0,0,0,93.41,34.53Zm-64.84-2.6a6.88,6.88,0,0,1,7-6.93H45.68c3.47,0,6.93,0,10.39,0,1,0,1.23-.27,1.12-1.18a1.82,1.82,0,0,1,1-2.06,1.74,1.74,0,0,1,2.13.42c3.44,3.45,6.9,6.89,10.32,10.36a1.74,1.74,0,0,1,0,2.75q-5.16,5.2-10.33,10.35a1.88,1.88,0,0,1-1.91.52,1.64,1.64,0,0,1-1.19-1.82c.18-1.23-.27-1.49-1.5-1.49-8.06.06-16.15,0-24.22,0-2.08,0-2.9-.83-2.9-2.91C28.57,37.3,28.55,34.62,28.57,31.93ZM71.47,67.8A6.9,6.9,0,0,1,64.32,75H54.26c-3.46,0-6.92,0-10.39,0-.85,0-1.11.22-1,1a1.87,1.87,0,0,1-1.1,2.21c-1.32.55-2.43-.39-3.12-2.35a11.92,11.92,0,0,1-6.75-7c-4.81-2-4.2-4.58,2.17-6.62a4.92,4.92,0,0,1,3.12-3c1.3-3.65,2.61-6.25,4.6-5.42a1.6,1.6,0,0,1,1,1.79c-.2,1.29.36,1.47,1.52,1.47,8,0,16.09,0,24.13,0,2.17,0,3,.81,3,3C71.47,62.66,71.47,65.23,71.47,67.8Z"/></g></g></svg>