<svg xmlns="http://www.w3.org/2000/svg" viewBox="0 0 144.03 117.78"><defs><style>.cls-1{fill:#382817;}</style></defs><title>hand</title><g id="Слой_2" data-name="Слой 2"><g id="Слой_1-2" data-name="Слой 1"><path class="cls-1" d="M80.22,117.78c-5.11-.1-10.86-2.65-15.71-7.45Q52.12,98.07,39.68,85.87c-2.44-2.39-4-2.49-6.84-.41a3,3,0,0,1-4.08-.19c-2.48-2.46-5-4.92-7.3-7.57a8.3,8.3,0,0,1,.42-11.36c5.88-5.87,11.73-11.86,18-17.35a27.52,27.52,0,0,1,17.89-6.76,3.43,3.43,0,0,1,3.6,2.12,3.22,3.22,0,0,1-1,3.85c-3.11,3-6.2,6.12-9.31,9.15a15.3,15.3,0,0,0-4.56,13.41,7.68,7.68,0,0,0,7.16,6.53,20.56,20.56,0,0,0,13.65-3.63c2.54-1.77,5.17-3.37,7.78-5,3.5-2.24,6.68-1.92,9.7,1,1.44,1.42,2.92,2.78,4.3,4.23a10.76,10.76,0,0,0,7.55,3.31c6.62.35,11.44,3.38,13.81,9.53s1.1,11.9-3.63,16.7c-2.79,2.84-5.62,5.64-8.54,8.33C93.84,115.72,88,117.84,80.22,117.78Z"/><path class="cls-1" d="M0,28V3.29C0,1.94.26.8,1.71.2S4,.36,5,1.27Q21.37,17.36,37.84,33.4c2.32,2.24,2.32,4.26,0,6.53C31,46.71,24.13,53.53,17.29,60.28A10.21,10.21,0,0,1,6.4,62.18c-4-1.71-6.27-4.8-6.33-9.06C-.06,44.76,0,36.39,0,28Z"/><path class="cls-1" d="M144,28.22V52.05c0,4.79-2.28,8.39-6.32,10.06s-8.26.73-11.73-2.65q-9.78-9.55-19.53-19.18c-2.31-2.31-2.31-4.74,0-7q16.33-16,32.64-32c.9-.88,1.86-1.61,3.24-1S144,1.94,144,3.29C144,11.59,144,19.89,144,28.22Z"/><path class="cls-1" d="M125.32,72.34a7.18,7.18,0,0,1-12,5.17c-2.41-2.24-4.65-4.64-7-7a11,11,0,0,0-8-3.44,14.69,14.69,0,0,1-9.86-3.91c-4.43-4-9.28-4.39-14.39-1.27-4.59,2.81-9.16,5.62-13.75,8.4-2.44,1.48-4.72,1.26-6.2-.57s-1.19-4.2.84-6.19c5.2-5.14,10.6-10.13,15.64-15.43,5.56-5.87,12.27-7.25,19.92-5.74a32.06,32.06,0,0,1,16.64,8.9c5.3,5.27,10.57,10.57,15.87,15.87A6.8,6.8,0,0,1,125.32,72.34Z"/><path class="cls-1" d="M53.23,117.46a6.16,6.16,0,0,1-3.88-1.86q-8.73-8.52-17.35-17a3.49,3.49,0,0,1-.13-5.21,3.64,3.64,0,0,1,5.17.06c6.43,6.25,12.79,12.53,19.18,18.81a2.92,2.92,0,0,1,.71,3.47C56.35,117.05,55.23,117.55,53.23,117.46Z"/></g></g></svg>