<svg xmlns="http://www.w3.org/2000/svg" viewBox="0 0 65 50.61"><defs><style>.cls-1{fill:#fdb15d;}.cls-2{fill:#382817;}</style></defs><title>logo-min</title><g id="Слой_2" data-name="Слой 2"><g id="Слой_1-2" data-name="Слой 1"><circle class="cls-1" cx="32.82" cy="25.31" r="25.31"/><path class="cls-2" d="M65,23.7v3a18.4,18.4,0,0,1-.55,3.36,16.47,16.47,0,0,1-5.67,8.78,10,10,0,0,1-4.64,2,4.87,4.87,0,0,1-1.32.15H12.19a4.91,4.91,0,0,1-1.32-.15,10.4,10.4,0,0,1-5.42-2.66A17.07,17.07,0,0,1,.18,28.41c-.12-.56,0-1.14-.18-1.72V22.06a13.93,13.93,0,0,1,.92-4.15,14.79,14.79,0,0,1,6.23-7.58A11.88,11.88,0,0,1,12.87,9Q32.22,9,51.59,9h.88c1.52.06,2.39.93,2.29,2.31A2.23,2.23,0,0,1,52.28,13H21c-.43,0-.44.14-.24.47A2.16,2.16,0,0,0,23,14.64c3.69-.08,7.39,0,11.08,0a2.7,2.7,0,0,1,1.79.5,2.06,2.06,0,0,1,.75,2.24A2.14,2.14,0,0,1,34.74,19a6,6,0,0,1-1,0H24.56s-.9.56-.7,1.35.3,1.3.42,1.95,1,.7,1,.7H42a2.31,2.31,0,0,1,1.37.37,2,2,0,0,1,.84,2A2,2,0,0,1,42.53,27a7.11,7.11,0,0,1-.93,0H25.36a2.14,2.14,0,0,0-1.08,1.36c-.12.66-.27,1.31-.43,1.95s.59.69.59.69h3.69a2.22,2.22,0,0,1,1.37.39,2,2,0,0,1-1,3.59c-.85.05-1.71,0-2.55,0H22.47s-1.59,1.15-1.77,1.8c-.05.17,0,.22.18.23a1.06,1.06,0,0,0,.5,0H52.47a6.32,6.32,0,0,0,4.19-1.46c-.26-.17-.72-.54-.72-.54h-7.2a2.46,2.46,0,0,1-1.38-.3,2,2,0,0,1-1-2.05A2,2,0,0,1,48.07,31a6.33,6.33,0,0,1,.87,0H59.39c.92,0,.94,0,1.19-.89.15-.57.27-1.14.37-1.73s0-.67-.57-.67c-.86,0-1.73,0-2.6,0a2.22,2.22,0,0,1-1.3-.38,2,2,0,0,1,1.05-3.59c.93-.06,1.88,0,2.83,0,.69,0,.74-.06.62-.71a18.94,18.94,0,0,0-.48-1.94.84.84,0,0,0-.93-.66H54.2a2.31,2.31,0,0,1-1.37-.35,2,2,0,0,1,1-3.62c1-.06,2,0,3,0,.6,0,.6,0,.32-.53a1.9,1.9,0,0,1,.08-2A2,2,0,0,1,58.88,13a2.13,2.13,0,0,1,1.67.76,17,17,0,0,1,4.21,7.87C64.9,22.35,64.88,23,65,23.7Z"/><path class="cls-2" d="M12.21,25.74c.7-1.24,1.71-1.69,2.75-1.27a2,2,0,0,1,1.24,2.1,6.74,6.74,0,0,1-1.57,3.54,3,3,0,0,1-4.75,0,7.6,7.6,0,0,1,0-9.64,3.43,3.43,0,0,1,1.78-1.12,2,2,0,0,1,2.49,1.47,1.94,1.94,0,0,1-1.4,2.37c-.44.11-.56.31-.54.71C12.22,24.5,12.21,25.07,12.21,25.74Z"/></g></g></svg>