<svg xmlns="http://www.w3.org/2000/svg" viewBox="0 0 116.59 84.41"><defs><style>.cls-1{fill:#382817;}.cls-2{fill:#fdb15d;}</style></defs><title>logo</title><g id="Слой_2" data-name="Слой 2"><g id="Слой_1-2" data-name="Слой 1"><path class="cls-1" d="M10,69.29H6v12H5v-12H0v-1H10Z"/><path class="cls-1" d="M17,71.05a4.83,4.83,0,0,1,2.43.62,4.22,4.22,0,0,1,1.7,1.7,5,5,0,0,1,.61,2.51,5.13,5.13,0,0,1-.61,2.54,4.43,4.43,0,0,1-1.7,1.71,4.86,4.86,0,0,1-2.43.6,4.62,4.62,0,0,1-2.09-.47c-.62-.32-.9-1.41-.9-1.41v5.44H12v-13h1V73a10.23,10.23,0,0,1,1.84-1.45A4.52,4.52,0,0,1,17,71.05Zm-.09,8.54a3.65,3.65,0,0,0,1.81-.45A3.17,3.17,0,0,0,20,77.82a4,4,0,0,0,.47-1.94A3.9,3.9,0,0,0,20,74a3.29,3.29,0,0,0-1.27-1.32,3.56,3.56,0,0,0-1.81-.47,3.6,3.6,0,0,0-1.82.47A3.5,3.5,0,0,0,13.81,74a4,4,0,0,0-.45,1.92,4.08,4.08,0,0,0,.45,1.94,3.36,3.36,0,0,0,1.27,1.32A3.69,3.69,0,0,0,16.9,79.59Z"/><path class="cls-1" d="M25,71.29h1v7.95l5.93-7.95H33v10H32V73.35l-5.92,7.94H25Z"/><path class="cls-1" d="M45,71.29,40.28,82a4.55,4.55,0,0,1-1.34,1.9,3,3,0,0,1-1.83.56,3.63,3.63,0,0,1-1.28-.22,2.7,2.7,0,0,1-1-.65l.6-1a2.34,2.34,0,0,0,1.73.73A1.74,1.74,0,0,0,38.24,83a3.34,3.34,0,0,0,.86-1.23l.42-.93-4.25-9.5h1.34l3.58,8.09,3.58-8.09Z"/><path class="cls-1" d="M58,71.29v10H56V73.11l-3.35,6.18h-.58L48,73.1v8.19H47v-10h1.35l4.17,7.21,4.25-7.21Z"/><path class="cls-1" d="M72.82,75.86a4.41,4.41,0,0,1-1.46,3.5A6.79,6.79,0,0,1,67,80.73v3.56H66V80.75a6.53,6.53,0,0,1-4.16-1.38,4.45,4.45,0,0,1-1.45-3.51,4.33,4.33,0,0,1,1.45-3.45A6.64,6.64,0,0,1,66,71.05V67.29h1v3.76a6.91,6.91,0,0,1,4.36,1.38A4.27,4.27,0,0,1,72.82,75.86Zm-11.13,0a3.37,3.37,0,0,0,1.09,2.66A5.32,5.32,0,0,0,66,79.61V72.19a5.13,5.13,0,0,0-3.2,1.07A3.22,3.22,0,0,0,61.69,75.86ZM67,79.61a5.19,5.19,0,0,0,3.22-1.07,3.33,3.33,0,0,0,1.12-2.68,3.23,3.23,0,0,0-1.12-2.62,5.25,5.25,0,0,0-3.22-1Z"/><path class="cls-1" d="M88,78.29v5H86v-3H77v3H74v-5h.51a3.33,3.33,0,0,0,1.61-1.7,20.45,20.45,0,0,0,.58-4.65l.14-3.65H86v10Zm-8.46-6.12A28.07,28.07,0,0,1,79.16,76a5.15,5.15,0,0,1-.9,2.27H84v-8H79.6Z"/><path class="cls-1" d="M102,68.29v13H99v-11H93v11H90v-13Z"/><path class="cls-1" d="M109.91,75.29H108v6h-3v-13h3v5h2.16l3.43-5h2.87l-4.26,6.28,4.39,6.72H113.2Z"/><circle class="cls-2" cx="59.63" cy="27.51" r="27.51"/><path class="cls-1" d="M94,24.16v5.58a20.72,20.72,0,0,1-.59,3.65,17.89,17.89,0,0,1-6.11,9.54,10.63,10.63,0,0,1-5,2.2,4.92,4.92,0,0,1-1.42.16H37.13a4.84,4.84,0,0,1-1.42-.16,11.08,11.08,0,0,1-5.84-2.89,18.63,18.63,0,0,1-5.68-10.63c-.12-.61-.05-1.25-.19-1.87V26.62a19.88,19.88,0,0,1,1-5.19A18.19,18.19,0,0,1,31.78,12,11.49,11.49,0,0,1,38,10.28q21,0,42.09,0h1a2.5,2.5,0,1,1-.2,5c-5,0-9.94,0-14.91,0H47.49c-.43,0-.44.14-.24.48a2.15,2.15,0,0,0,2.15,1.16c3.69-.07,7.39,0,11.09,0a2.64,2.64,0,0,1,1.78.5A2,2,0,0,1,63,19.64a2.15,2.15,0,0,1-1.83,1.62,6,6,0,0,1-.95,0H50.61c-1,0-1,.06-.78.95.19.71.34,1.43.47,2.15s.19.9,1.09.9H70.1a2.92,2.92,0,0,1,1.72.46,2.47,2.47,0,0,1-1,4.5,7.29,7.29,0,0,1-1.15,0H51.48c-1,0-1.06,0-1.22,1a22.21,22.21,0,0,1-.48,2.18.63.63,0,0,0,.65.83h4.15s1.14-.4,1.62,0a2.32,2.32,0,0,1,.9,2.52A2.34,2.34,0,0,1,55,38.5a20.65,20.65,0,0,1-3-.21H48.38s-1.73,1-1.93,1.71c-.05.19,0,.25.2.26s.37,0,.55,0H81a7.34,7.34,0,0,0,4.56-1.66,5.53,5.53,0,0,0-.78-.34H73.68a3.19,3.19,0,0,1-1.74-.37,2.47,2.47,0,0,1-1.18-2.56,2.52,2.52,0,0,1,2.08-2,6.51,6.51,0,0,1,1.08-.05H87c1.15,0,1.18,0,1.48-1.11A20.16,20.16,0,0,0,88.94,30a.68.68,0,0,0-.67-.79c-1.1,0-2.2,0-3.29,0a2.77,2.77,0,0,1-1.63-.47,2.47,2.47,0,0,1,1.31-4.49c1.17-.07,2.35,0,3.54,0,.86,0,.92-.07.78-.88s-.38-1.63-.61-2.42a1,1,0,0,0-1.15-.83H80.5a2.89,2.89,0,0,1-1.71-.44A2.47,2.47,0,0,1,80,15.1c1.25-.07,2.52,0,3.79,0,.42,0,.56-.3.37-.67a2.36,2.36,0,0,1,.1-2.49,2.55,2.55,0,0,1,2-1.08,2.67,2.67,0,0,1,2.09.95,21.24,21.24,0,0,1,5.26,9.83C93.87,22.48,93.86,23.34,94,24.16Z"/><path class="cls-1" d="M37.22,28c.77-1.36,1.87-1.85,3-1.39a2.15,2.15,0,0,1,1.35,2.28,7.39,7.39,0,0,1-1.7,3.85,3.24,3.24,0,0,1-5.17,0,8.27,8.27,0,0,1,0-10.49A3.82,3.82,0,0,1,36.63,21a2.23,2.23,0,0,1,2.7,1.6,2.1,2.1,0,0,1-1.52,2.58c-.48.12-.61.34-.59.77C37.23,26.63,37.22,27.25,37.22,28Z"/></g></g></svg>