<svg xmlns="http://www.w3.org/2000/svg" viewBox="0 0 112.7 56.5"><defs><style>.cls-1{fill:#382817;}</style></defs><title>object-2</title><g id="Слой_2" data-name="Слой 2"><g id="Слой_1-2" data-name="Слой 1"><path class="cls-1" d="M87.54.2c7.39,0,14.81,0,22.2,0,2.4,0,3.28,2.09,2.62,3.37a2.46,2.46,0,0,1-1.69,1.39c-1.33.38-2.67.73-4,1.16a6,6,0,0,0-2.62,10.06c2.54,2.65,5,5.29,6.63,8.65,6,12.7-2,28.41-15.74,31.18A25.76,25.76,0,0,1,64.44,33.88c-.61-5.14-.18-10.31-.23-15.48,0-5.72,0-11.42,0-17.14,0-1,.2-1.26,1.21-1.26,7.39.05,14.8,0,22.19,0A.25.25,0,0,0,87.54.2Z"/><path class="cls-1" d="M60.7,19.24V35.5c0,2.37-1.23,3.22-3.5,2.47q-15.86-5.3-31.71-10.64a5.13,5.13,0,0,1-3.83-5.14c0-1.44,0-2.85,0-4.29a1.73,1.73,0,0,0-1.74-2c-4.62-.63-9.23-1.31-13.82-2A7,7,0,0,1,7,.05q25.55,0,51.05,0c1.9,0,2.65.78,2.65,2.7Z"/></g></g></svg>