<svg xmlns="http://www.w3.org/2000/svg" viewBox="0 0 97.6 88.75"><defs><style>.cls-1{fill:#382817;}</style></defs><title>object</title><g id="Слой_2" data-name="Слой 2"><g id="Слой_1-2" data-name="Слой 1"><path class="cls-1" d="M97.59,80.25V86.6c0,1.34-.7,2.17-1.77,2.15s-1.7-.83-1.73-2.1c0-1.11,0-2.24,0-3.35,0-1.37-.54-1.92-1.88-2H85.42c-1.39,0-1.83-.46-1.83-1.9V72.16c0-1.39.46-1.9,1.75-1.9,2.9,0,5.83,0,8.73,0,2.23,0,3.5,1.39,3.52,3.74C97.61,76.08,97.59,78.17,97.59,80.25Z"/><path class="cls-1" d="M87.59,28.73v4.62a2.72,2.72,0,0,1-1.13,2.36c-1.36.95-2.4.48-2.62-1.2a60.87,60.87,0,0,0-2.2-10.45c-.52-1.69.22-2.68,1.9-2.71h.1c3.36,0,4,.63,4,4.14Z"/><path class="cls-1" d="M76.7,41.37a44.94,44.94,0,0,0-.74-8.6C71.82,11,52.22-3.24,31.65.64,13.46,4.06.08,20.82,0,40.33,0,51.38,0,62.42,0,73.5c0,4.57,3.09,7.83,7.41,7.85H69.3c4.29,0,7.43-3.3,7.43-7.85Q76.69,57.41,76.7,41.37Zm-65,0a1.57,1.57,0,0,1-1.79.47,2,2,0,0,1-1.2-2.32,2.38,2.38,0,0,1,.44-1.82,1.64,1.64,0,0,1,1.35-.58A1.61,1.61,0,0,1,12,38.22,3.64,3.64,0,0,1,11.72,41.38Zm3.22-13.52c-.17.37-.35.76-.54,1.13a1.68,1.68,0,0,1-2.31.88,1.87,1.87,0,0,1-.83-2.45,27.56,27.56,0,0,1,3.38-6.17A29.2,29.2,0,0,1,34.2,9.05a31.83,31.83,0,0,1,4-.3,1.74,1.74,0,0,1,1.85,1.8,1.81,1.81,0,0,1-2,1.87,24.89,24.89,0,0,0-11.69,3.12A27.11,27.11,0,0,0,14.94,27.86ZM38.06,58.67c-9.37,0-17.15-8.48-17.13-18.6C21,29.8,28.86,21.67,38.71,21.69c9.32,0,17.1,8.51,17.06,18.56C55.75,50.54,47.9,58.7,38.06,58.67Z"/><path class="cls-1" d="M31.39,40a7,7,0,1,1,13.92.1,7.23,7.23,0,0,1-7,7.39A7.21,7.21,0,0,1,31.39,40Z"/></g></g></svg>