<svg xmlns="http://www.w3.org/2000/svg" viewBox="0 0 124.91 111.76"><defs><style>.cls-1{fill:#fdb15d;}</style></defs><title>phone</title><g id="Слой_2" data-name="Слой 2"><g id="Слой_1-2" data-name="Слой 1"><path class="cls-1" d="M124.86,81.94c-.5,11.08-4.68,19.37-13.09,25.58-4.87,3.61-10.47,4.73-16.51,4.06-9-1-17.35-4.22-25.81-7.09-17.88-6.08-32.36-16.81-45-30C17.66,67.44,11.42,60,6.58,51.67,2.34,44.42-.33,36.69,0,28.27A32.6,32.6,0,0,1,12.12,3.94C18.24-1.24,27.46-.71,33,2.06a10.81,10.81,0,0,1,5.12,5.55C41,14.09,43.8,20.57,46.78,27c1.23,2.62,1.76,5.2.62,7.94a21.71,21.71,0,0,1-3.82,6.13c-.95,1-1.89,2.07-2.78,3.13a3.79,3.79,0,0,0-.28,5.13,70.51,70.51,0,0,0,32,26.21c2.67,1.09,4.23.77,6.1-1.4q3.42-4,6.82-8c2.45-2.9,5.85-3.83,9.88-2.5,5.1,1.68,9.8,4.17,14.68,6.32q4.59,2,9.16,4.15C123,75.89,125.3,78.6,124.86,81.94Z"/></g></g></svg>