<svg xmlns="http://www.w3.org/2000/svg" viewBox="0 0 53.92 97.06"><defs><style>.cls-1{fill:#382817;}</style></defs><title>price</title><g id="Слой_2" data-name="Слой 2"><g id="Слой_1-2" data-name="Слой 1"><path class="cls-1" d="M52.88,6.21a3.87,3.87,0,0,0,.87-3.82A3,3,0,0,0,51.16,0a3.35,3.35,0,0,0-3.08,1.34q-6.26,7-12.51,14c-1.25,1.4-1.72,1.44-3.2.22-1-.86-2.06-1.69-3.09-2.55a5.07,5.07,0,0,0-6.93,0C16.69,17.78,11,22.5,5.35,27.28A15.05,15.05,0,0,0,0,39.38c0,7.13,0,14.26,0,21.39C0,68.06,0,75.32,0,82.6,0,90.62,5.8,97,13,97q12.9,0,25.81,0c7.29,0,13-6.42,13-14.55q0-21.72,0-43.44a14.76,14.76,0,0,0-3.52-9.83c-2.06-2.39-4.63-4.11-7-6.15-1.66-1.45-1.72-2-.26-3.67Q47,12.79,52.88,6.21ZM28.28,21.08c1,.29,1.16,1,.45,1.81-1.66,1.88-3.34,3.73-5,5.61a3.86,3.86,0,0,0-.83,3.85,3.11,3.11,0,0,0,2.49,2.35,3,3,0,0,0,2.94-1.13c1.68-1.86,3.33-3.73,5-5.59,1-1.11,1.58-.95,1.93.59,1,4.43,0,8.26-3.16,11.18a8.4,8.4,0,0,1-10.3,1.49,10.21,10.21,0,0,1-5.59-8.69C16.18,24.79,22.58,19.31,28.28,21.08ZM32.82,72a4.14,4.14,0,0,1-1.7-.31H22.7a2.22,2.22,0,0,0-.35.89c0,.46,0,.89,0,1.34a1.56,1.56,0,0,0,.35.77h8.64a2.39,2.39,0,0,1,2.19,2.53,2.34,2.34,0,0,1-2.17,2.47h-8.6s-.39-.39-.39,0c0,1.38,0,2.78,0,4.16a2.4,2.4,0,0,1-2.3,2.49,2.56,2.56,0,0,1-2.33-2.49V79.62c.14-.27.08-.36-.16-.34-.49,0-1,0-1.44,0a2.34,2.34,0,0,1-2.1-2.49c0-1.36,1-2.49,2.14-2.08h1.48c.18-.43.24-.48.24-.7q0-.75,0-1.5c0-.22-.06-.29-.26-.29-.49,0-.95,0-1.44,0a2.34,2.34,0,0,1-2.14-2.49A2.39,2.39,0,0,1,16.2,67.2a10.9,10.9,0,0,1,1.4,0,4.25,4.25,0,0,0,1.16-.39V54.68s-.25-2.17.74-2.46a.85.85,0,0,0,.69-.51h5.57v.46c2,0,3.86-.07,5.76,0,4,.16,7.49,3.58,8.28,7.92C40.75,65.63,37.74,70.79,32.82,72Z"/><path class="cls-1" d="M31.45,56.66c-2.77,0-5.55,0-8.32,0a.37.37,0,0,0-.37.36v9.37c0,.27.09.34.33.34,1.46,0,2.89,0,4.35,0h3.87A5.27,5.27,0,0,0,33,66.46a5,5,0,0,0,3.07-6A4.83,4.83,0,0,0,31.45,56.66Z"/></g></g></svg>