<svg xmlns="http://www.w3.org/2000/svg" viewBox="0 0 99.11 99"><defs><style>.cls-1{fill:#382817;}</style></defs><title>procent</title><g id="Слой_2" data-name="Слой 2"><g id="Слой_1-2" data-name="Слой 1"><path class="cls-1" d="M46.51,0H52.7a7.3,7.3,0,0,0,.73.15c3.08.53,6.25.74,9.19,1.65Q92,10.79,98.33,41c.37,1.78.52,3.62.78,5.44v6.18a6.44,6.44,0,0,0-.18.85,43.7,43.7,0,0,1-3.17,13.87C88.68,84.3,76.13,94.69,58,98.25c-1.76.34-3.56.5-5.34.75H46.51a6.31,6.31,0,0,0-.73-.15c-3.08-.53-6.21-.84-9.21-1.63A49.42,49.42,0,0,1,.86,58C.51,56,.31,53.92,0,51.86l.12-5.53c.05-.26.11-.51.16-.77.52-3,.81-6.08,1.58-9A49.4,49.4,0,0,1,41.17.73C42.93.43,44.73.25,46.51,0ZM29.07,72.28A3.49,3.49,0,0,0,31.65,71Q51.38,51.26,71.12,31.56c.23-.23.46-.44.67-.69a3.09,3.09,0,0,0-1.52-5,3.15,3.15,0,0,0-3.3,1Q47.05,46.82,27.12,66.76a4,4,0,0,0-.58.66,3.1,3.1,0,0,0,2.53,4.86Zm22.46-9A11.93,11.93,0,1,0,63.42,51.46,11.95,11.95,0,0,0,51.53,63.31ZM34.78,46.58A11.88,11.88,0,1,0,23,34.73,11.73,11.73,0,0,0,34.78,46.58Z"/><path class="cls-1" d="M63.48,69.06a5.72,5.72,0,1,1,5.73-5.69A5.76,5.76,0,0,1,63.48,69.06Z"/><path class="cls-1" d="M40.55,34.79a5.71,5.71,0,1,1-5.67-5.73A5.68,5.68,0,0,1,40.55,34.79Z"/></g></g></svg>