<svg xmlns="http://www.w3.org/2000/svg" viewBox="0 0 99.57 99.57"><defs><style>.cls-1{fill:#fdb15d;}</style></defs><title>question</title><g id="Слой_2" data-name="Слой 2"><g id="Слой_1-2" data-name="Слой 1"><path class="cls-1" d="M49.86,0A49.79,49.79,0,1,0,99.57,49.94,49.82,49.82,0,0,0,49.86,0Zm.85,76.7a4.38,4.38,0,0,1-4.18-4.38,4.21,4.21,0,1,1,4.18,4.38Zm8.68-19.13c-2.46,1.24-4.11,3-4.42,5.72-.06.56-.31.62-.75.62-1.18,0-2.36,0-3.55,0a21.45,21.45,0,0,0-2.89,0c-1.25.15-1.34-.44-1.21-1.44a14.92,14.92,0,0,1,8.27-12,10.92,10.92,0,0,0,5.86-6.38A10,10,0,0,0,57.86,33.2a9.77,9.77,0,0,0-11.17-2.08,10.07,10.07,0,0,0-6.47,9.39C40.06,43.22,38.41,45,36,45a4.22,4.22,0,0,1-4.14-4.6A18.91,18.91,0,1,1,59.39,57.57Z"/></g></g></svg>