<svg width="18" height="18" viewBox="0 0 18 18" fill="none" xmlns="http://www.w3.org/2000/svg">
<path d="M15.4291 2.7159C15.4291 2.21781 15.4251 1.75989 15.4291 1.30197C15.4332 0.550822 16.0277 -0.0195698 16.7668 0.000514386C17.4296 0.0205986 17.996 0.582956 17.996 1.24574C18 3.34654 17.996 5.44735 18 7.54816C18 7.6767 17.9679 7.71687 17.8353 7.71687C15.7344 7.71285 13.6336 7.71687 11.5327 7.71285C10.8538 7.71285 10.2915 7.12639 10.2874 6.44353C10.2834 5.73656 10.8418 5.1501 11.5447 5.14207C12.3401 5.13404 13.1395 5.14207 13.9348 5.14207C13.9911 5.14207 14.0473 5.14207 14.1397 5.14207C13.6697 4.51544 13.1314 4.00932 12.5008 3.61165C10.0986 2.10534 7.23856 2.24191 5.00112 3.97719C4.02499 4.73637 3.35818 5.7205 2.93238 6.87735C2.68333 7.54816 1.98438 7.88156 1.32158 7.66866C0.646731 7.44774 0.265119 6.71266 0.506137 6.04184C1.33363 3.76429 2.82392 2.06115 4.98505 0.968573C6.48739 0.20939 8.09016 -0.0999066 9.76523 0.0527333C11.85 0.241525 13.6577 1.05694 15.1841 2.49096C15.2564 2.55523 15.3287 2.62351 15.4291 2.7159Z"/>
<path d="M2.57487 15.2886C2.57487 15.7787 2.57487 16.2245 2.57487 16.6704C2.57085 17.4376 2.0125 18.004 1.26534 18C0.55434 17.996 0 17.4095 0.00401696 16.6664C0.00401696 14.6057 0.00803392 12.5451 0 10.4805C0 10.3238 0.0361526 10.2836 0.196831 10.2836C2.26557 10.2876 4.3343 10.2876 6.40303 10.2876C7.13814 10.2876 7.7206 10.85 7.7206 11.569C7.7206 12.2961 7.15421 12.8544 6.41509 12.8584C5.57956 12.8624 4.74403 12.8584 3.87637 12.8584C4.15755 13.2521 4.46686 13.5774 4.81232 13.8707C6.33073 15.136 8.07811 15.6702 10.0263 15.3408C12.3602 14.9432 14.0071 13.6136 14.9511 11.4324C15.0033 11.316 15.0435 11.1954 15.0957 11.079C15.385 10.4403 16.1201 10.1471 16.7628 10.4162C17.3934 10.6773 17.7268 11.4083 17.4738 12.047C16.1843 15.3087 13.8264 17.3131 10.3557 17.8714C7.43539 18.3414 4.88864 17.4537 2.73153 15.4372C2.68735 15.3971 2.65119 15.3609 2.57487 15.2886Z"/>
</svg>
