<svg xmlns="http://www.w3.org/2000/svg" viewBox="0 0 66.9 66.9"><defs><style>.cls-1{fill:#fdb15d;}</style></defs><title>skype</title><g id="Слой_2" data-name="Слой 2"><g id="Слой_1-2" data-name="Слой 1"><path class="cls-1" d="M33.58,53.58c-11.17,0-16.28-5.66-16.28-9.81a3.6,3.6,0,0,1,3.82-3.6c4.79,0,3.53,7.13,12.46,7.13,4.57,0,7.25-2.73,7.25-5.29,0-1.55-.89-3.31-3.9-4L27,35.49c-8-2-9.4-6.45-9.4-10.56,0-8.52,7.84-11.61,15.3-11.61,6.88,0,15.06,3.78,15.06,8.89,0,2.2-1.85,3.38-4,3.38-4.09,0-3.4-5.71-11.62-5.71-4.08,0-6.23,1.91-6.23,4.57s3.18,3.57,6,4.18l7.36,1.65c8.07,1.81,10.21,6.51,10.21,11,0,6.93-5.4,12.29-16,12.29ZM64.44,38.92a31.76,31.76,0,0,0,.48-5.5A30.92,30.92,0,0,0,62,20.18,31.55,31.55,0,0,0,28,2.46,18.51,18.51,0,0,0,18.71,0,19.09,19.09,0,0,0,9.34,2.55,18.68,18.68,0,0,0,2.46,28a31,31,0,0,0,.91,14.87A31.37,31.37,0,0,0,23.91,63.45a31.94,31.94,0,0,0,15,1,18.66,18.66,0,0,0,9.27,2.46,19.09,19.09,0,0,0,9.37-2.55,18.66,18.66,0,0,0,6.88-25.43Z"/></g></g></svg>