<svg xmlns="http://www.w3.org/2000/svg" viewBox="0 0 132.75 119.03"><defs><style>.cls-1{fill:#382817;}</style></defs><title>telegram</title><g id="Слой_2" data-name="Слой 2"><g id="Слой_1-2" data-name="Слой 1"><path class="cls-1" d="M129.24.52a6.41,6.41,0,0,0-5.46.22q-60.14,25-120.3,50C.93,51.77-.08,53.16,0,55.52s1.27,3.63,3.76,4.42c7.19,2.3,14.37,4.63,21.55,6.84,5.93,1.83,9.76,5.7,11.57,12.07,2.73,9.68,5.67,19.29,8.55,28.93,1.48,5,6,6.09,9.43,2.4,3.8-4.07,7.54-8.16,11.34-12.26,2.91-3.12,5.61-3.34,8.93-.73L99.8,116.33a21.42,21.42,0,0,0,3.77,2.53l3.32.17c3.17-1.07,4.71-3.54,5.29-7,.86-5.11,2-10.18,3-15.26q8.73-44.49,17.45-89A6.34,6.34,0,0,0,129.24.52Zm-20.65,24.1q-24,22.46-47.93,44.94a15.64,15.64,0,0,0-5.1,10,3.42,3.42,0,0,1-3.06,3.31,3.25,3.25,0,0,1-3.59-2.59c-1-3.72-2.49-7.31-2.7-10.9.15-5.11,2.22-8.64,6-11.13Q72.44,44.87,92.71,31.49c4.75-3.12,9.5-6.24,14.21-9.39.81-.54,1.7-1.23,2.44,0S109.36,23.92,108.59,24.62Z"/></g></g></svg>