<svg xmlns="http://www.w3.org/2000/svg" viewBox="0 0 61.82 74.49"><defs><style>.cls-1{fill:#382817;}</style></defs><title>time</title><g id="Слой_2" data-name="Слой 2"><g id="Слой_1-2" data-name="Слой 1"><path class="cls-1" d="M30.89,74.49C16,74.4,3.43,63.57.56,48.29c-3.21-17.09,7.68-34,24.15-37.48a29.45,29.45,0,0,1,22,3.84,4.18,4.18,0,0,1,.88,6.5Q41.45,27.62,35.23,34a11.71,11.71,0,0,1-5,3,6,6,0,0,0-4.34,4.38,5.15,5.15,0,0,0,2.17,5.42,4.51,4.51,0,0,0,5.42,0,6.43,6.43,0,0,0,2.41-3.45,14.14,14.14,0,0,1,3.62-6.21c3.82-3.92,7.6-7.89,11.39-11.83,2.24-2.33,5.12-1.93,6.7.92,10.65,19.22,0,43.42-20.92,47.74A24.24,24.24,0,0,1,30.89,74.49Z"/><path class="cls-1" d="M30.94,5h-7a2.46,2.46,0,0,1-2.57-2.53A2.53,2.53,0,0,1,24.65.09l12.2.1c2-.68,3.71.55,3.69,2.34A2.45,2.45,0,0,1,38,5C35.63,5,33.28,5,30.94,5Z"/></g></g></svg>