<svg xmlns="http://www.w3.org/2000/svg" viewBox="0 0 109.03 109.03"><defs><style>.cls-1{fill:#fff;}</style></defs><title>viber</title><g id="Слой_2" data-name="Слой 2"><g id="Слой_1-2" data-name="Слой 1"><path class="cls-1" d="M51.65,0c-9.22.11-29,1.55-40.13,11.2C3.28,19,.4,30.43.06,44.61S-.56,85.27,26.38,92.5v11s-.17,4.4,2.9,5.31c3.78,1.13,5.93-2.26,9.52-5.89l6.69-7.19c18.44,1.45,32.56-1.9,34.18-2.4,3.74-1.13,24.81-3.69,28.25-30.22,3.54-27.41-1.72-44.68-11.2-52.49h0C93.81,8.12,82.31.17,56.62.08,56.62.08,54.71,0,51.65,0Zm1.2,7.61c2.61,0,4.2.09,4.2.09C78.8,7.77,89.18,14,91.62,16.07c8,6.5,12.1,22.06,9.09,44.94C97.85,83.2,80.76,84.6,77.6,85.56a101.56,101.56,0,0,1-29.45,2.36s-11.67,13.37-15.31,16.81a2,2,0,0,1-1.69.69c-.62-.14-.8-.87-.77-1.87l.11-18.26C7.64,79.3,9,56.66,9.24,44.84s2.61-21.49,9.57-28c9.37-8,26.19-9.12,34-9.18Zm1.53,12.05a1.45,1.45,0,0,0-.55.1,1.5,1.5,0,0,0-.48.3,1.47,1.47,0,0,0-.31.44,1.24,1.24,0,0,0-.12.53,1.43,1.43,0,0,0,1.46,1.39,28.73,28.73,0,0,1,10.56,1.8,27.68,27.68,0,0,1,9,5.53c5.29,4.87,7.86,11.43,8,20a1.43,1.43,0,0,0,1.46,1.39v0a1.52,1.52,0,0,0,1-.4,1.36,1.36,0,0,0,.43-1,28.37,28.37,0,0,0-2-11.83A29.51,29.51,0,0,0,76,27.77c-5.76-5.35-13.07-8.1-21.66-8.1ZM33.5,23.08a4.93,4.93,0,0,0-3,.54H30.4a23,23,0,0,0-5.65,4.28,7.89,7.89,0,0,0-2.28,4.29,5.31,5.31,0,0,0,.23,2.47l.1.06a59.32,59.32,0,0,0,5.94,11.8A69.92,69.92,0,0,0,40.2,60.93l.13.18.21.14.14.15.15.12a76.55,76.55,0,0,0,15.7,10.59c6.52,3.27,10.48,4.81,12.85,5.45v0a7.37,7.37,0,0,0,2,.28,9.48,9.48,0,0,0,5.44-2.15,21.08,21.08,0,0,0,4.59-5.22v0a3.64,3.64,0,0,0-.89-5.09,67.42,67.42,0,0,0-10.61-7c-2.52-1.26-5.09-.5-6.13.78l-2.22,2.57a4.24,4.24,0,0,1-3.2,1.1l-.06,0c-15.41-3.62-19.52-18-19.52-18A3.4,3.4,0,0,1,40,41.94l2.78-2.06a4.28,4.28,0,0,0,.83-5.68A61.37,61.37,0,0,0,36,24.44a4.26,4.26,0,0,0-2.49-1.37Zm23.11,3.54a1.37,1.37,0,1,0,0,2.74,18.59,18.59,0,0,1,6.88,1.41,18,18,0,0,1,5.79,3.8A15.7,15.7,0,0,1,72.7,40a15.16,15.16,0,0,1,.91,6.25,1.34,1.34,0,0,0,.43,1,1.46,1.46,0,0,0,1,.39l.06.07a1.47,1.47,0,0,0,1-.4,1.33,1.33,0,0,0,.42-1,18.32,18.32,0,0,0-5.12-13.6C67.92,29.07,63,27,56.82,26.62Zm2.77,8a1.36,1.36,0,1,0-.09,2.72c4.61.22,6.85,2.44,7.15,7a1.25,1.25,0,0,0,.41.91,1.39,1.39,0,0,0,1,.38h.06a1.42,1.42,0,0,0,.54-.12,1.28,1.28,0,0,0,.44-.32,1.2,1.2,0,0,0,.29-.45,1.35,1.35,0,0,0,.08-.52c-.33-5.94-3.74-9.28-9.79-9.59Z"/></g></g></svg>