<svg xmlns="http://www.w3.org/2000/svg" viewBox="0 0 116.52 116.52"><defs><style>.cls-1{fill:#fdb15d;fill-rule:evenodd;}</style></defs><title>whatsapp</title><g id="Слой_2" data-name="Слой 2"><g id="Слой_1-2" data-name="Слой 1"><path class="cls-1" d="M99.54,16.93A58.08,58.08,0,0,0,.48,57.74,57.45,57.45,0,0,0,8.23,86.6L0,116.52l30.75-8a58.22,58.22,0,0,0,27.73,7h0a58,58,0,0,0,58-57.73,57.25,57.25,0,0,0-17-40.85Zm-41,88.58h0a48.34,48.34,0,0,1-24.54-6.69l-1.76-1-18.25,4.76,4.87-17.7L17.66,83A48,48,0,0,1,58.52,9.49,48.26,48.26,0,0,1,77,13.13,48,48,0,0,1,58.5,105.51ZM85,70.05c-1.45-.73-8.57-4.21-9.9-4.7s-2.29-.72-3.26.73S68,70.76,67.2,71.73s-1.7,1.08-3.14.36A39.73,39.73,0,0,1,52.4,64.93a43.9,43.9,0,0,1-8.07-10c-.84-1.45-.09-2.23.64-2.95s1.45-1.69,2.17-2.53a9.55,9.55,0,0,0,1.45-2.4,2.61,2.61,0,0,0-.12-2.53C48.11,43.8,45.2,36.7,44,33.81s-2.37-2.42-3.26-2.46S38.89,31.3,38,31.3a5.4,5.4,0,0,0-2.13.5,5.3,5.3,0,0,0-1.74,1.3,16.1,16.1,0,0,0-5.08,12c0,7.1,5.2,14,5.92,14.93S45.17,75.59,59.71,81.85a87.41,87.41,0,0,0,8.26,3,20,20,0,0,0,9.13.57c2.79-.41,8.58-3.49,9.79-6.86s1.21-6.25.84-6.86S86.4,70.77,85,70.05Z"/></g></g></svg>